<svg xmlns="http://www.w3.org/2000/svg" xmlns:xlink="http://www.w3.org/1999/xlink" width="1559" height="1374" viewBox="0 0 1559 1374">
  <defs>
    <clipPath id="clip-path">
      <rect id="Rectangle_449" data-name="Rectangle 449" width="1559" height="1374" transform="translate(181 3457)" fill="#fff" stroke="#707070" stroke-width="1"/>
    </clipPath>
  </defs>
  <g id="Mask_Group_1" data-name="Mask Group 1" transform="translate(-181 -3457)" clip-path="url(#clip-path)">
    <g id="Group_216" data-name="Group 216" transform="translate(181 3307)" opacity="0.04">
      <path id="Path_444" data-name="Path 444" d="M2325.828,2011.578h0q0-105.606-.031-211.226a24.406,24.406,0,0,1,8.742-18.8,291.276,291.276,0,0,1,186.676-67.233c78.568,0,152.438,30.77,208,86.65a297.047,297.047,0,0,1,0,418.384c-55.566,55.877-129.43,86.647-208,86.647a291.182,291.182,0,0,1-183.711-64.752,29.574,29.574,0,0,1-11.073-23C2326.43,2149.359,2325.828,2080.47,2325.828,2011.578Zm-128.563,60.484a168.723,168.723,0,0,1-18.246-13.757c-57.021-49.924-121.9-84.8-196.629-100.29-29.175-6.045-29.032-5.307-20.836-33.657,26.464-91.49,82.639-158.129,166.669-201.011,17.43-8.9,36.555-14.561,55.132-21.055,16.073-5.608,18.892-3.469,18.931,13.5.134,57.363.053,114.735.053,172.1h0c0,49.98-.109,157.088,0,182.187a2.856,2.856,0,0,1-4.43,2.406Zm-384.521.869c-5.086,26.66-10.441,50.3-15.656,65.566a2.045,2.045,0,0,1-.236.362,313.478,313.478,0,0,1-45.118,72.089c-58.283,69.94-133.061,107.894-223.248,116.25-16.537,1.527-20.667-4.515-20.523-20.635.908-99.582,1-199.173.942-298.764-.056-99.159-.27-198.313-1.289-297.461-.165-16.425,5.926-19.909,20.589-19.016,33.615,2.044,65.5,10.05,95.957,22.628,2.9,1.231,6.462,2.806,10.577,4.758C1767.711,1781.579,1840.4,1927.8,1812.744,2072.932Zm708.469-486.124a418.268,418.268,0,0,0-195.2,48.21q.058-20.76.1-41.539c.066-16.654-4.94-24.116-22.021-25.548-68.479-5.739-134.974,4.532-199.792,29.433a425.287,425.287,0,0,0-142.15,90.716,483.328,483.328,0,0,0-34.4,36.687,400.377,400.377,0,0,0-34.137,47.094l-.012-.034s-56.608-85.667-172.79-148.958c-2.94-1.932-7.069-4.059-12.583-6.882q-21.419-10.975-43.11-19.489c-.252-.1-.49-.209-.738-.308l-.01.01q-126.77-49.651-263.243-15.848c-13.74,3.418-17.576,9.208-17.557,22.866.25,162.414-.146,324.832-.255,487.256-.073,108.736.167,217.477-.172,326.216-.036,12.272,2.209,18.664,15.826,22.4,70.469,19.3,141.055,19.589,211.43,2.061,85.564-21.293,159.36-63.606,219.813-128.983,55.707-60.237,92.563-129.949,108.04-210.85,4.375-22.888,5-24,26.493-17.715,127.261,37.211,204.74,121.853,231.643,251.661,6.208,29.93,3.641,61.808,4.1,92.8.386,25.871.493,24.077,31.576,24.342,22.24.192,44.494.151,66.726,0,26.954-.184,27.5-.014,27.527-25.956q.025-17.4.017-34.783a3.693,3.693,0,0,1,5.377-3.294c101.653,51.636,223.144,60.778,341.913,18.025,116.226-41.835,206.667-136.052,245.305-253.967C3015.046,1859.142,2799.156,1586.807,2521.214,1586.807Z" transform="translate(-1383.149 -820.702)" fill="#fff"/>
      <path id="Path_445" data-name="Path 445" d="M1265.857,1585.818c44.325,36.7,292.021,308.354,333.334,478.679v-79.185c-1.806-318.853,251.913-412.948,403.807-419.4H2165.91l214.61.216c.272.078.575.117.854.194,3.251.33,6.913.641,11.268,1.015,1.236.1,2.452.255,3.686.369.316-.036.632-.068.97-.083.854.083,1.667.233,2.566.267l.158.189c83.1,8.244,158.041,35.623,226.323,78.036q3.538,2.2,7.2,4.224c11.855,6.584,23.7,13.185,34.97,20.538l2.407,1.568c5.945,3.875,7.75,11.1,4.212,16.862l-52.494,85.6c-7.544,12.5-26.32,15.056-37.72,5.146q-70.939-61.69-181.631-82.593h-10.855V2414.2c0,18.617-16.914,33.712-37.773,33.712l-88.695.43c-20.056,0-36.309-14.508-36.309-32.4V1697.885l-63.747-.862-124.178.481c-27.052.109-54.111,2.542-80.373,8.363-175.971,39.034-218.571,182.716-218.77,224.838v28.156h274.853c15.553,0,28.159,11.255,28.159,25.124v78.869c0,13.944-12.713,25.226-28.339,25.136l-274.674-.813v330.049c0,17.18-15.608,31.113-34.865,31.113h-11.8l-61.69-.859h-.176c-18.886,0-26.154-3.891-33.417-15.563-103.584-388.555-279.063-588.146-328.782-638.748-4.671-4.763-13.42-1.762-13.381,4.566l3.69,617.331c0,22.043-8.716,32.414-34.857,32.414l-74.5.867c-26.148,0-34.862-10.373-34.862-32.411V1599.185c0-22.036,8.714-32.4,34.862-32.4l74.5-.872S1240.7,1564.991,1265.857,1585.818Z" transform="translate(-1117.942 -1565.905)" fill="#fff"/>
    </g>
  </g>
</svg>
