<svg xmlns="http://www.w3.org/2000/svg" width="72.061" height="196.336" viewBox="0 0 72.061 196.336">
  <g id="Group_324" data-name="Group 324" transform="translate(-179 -12774.957)">
    <g id="Group_293" data-name="Group 293" transform="translate(-363.47 13492.12)">
      <g id="Group_292" data-name="Group 292" transform="translate(542.47 -542.105)">
        <path id="Path_2068" data-name="Path 2068" d="M548.413-472.956a4.392,4.392,0,0,1,.336,1.816,2.685,2.685,0,0,1-.705,2.13,2.041,2.041,0,0,1-2.048.079q-1.775-.631-3.525-1.332v-6.983q1.653-.662,3.329-1.262a1.894,1.894,0,0,1,1.929.091,2.462,2.462,0,0,1,.675,1.953,4.29,4.29,0,0,1-.242,1.485,2.312,2.312,0,0,1-.675,1.011A1.966,1.966,0,0,1,548.413-472.956Zm-4.38-3.47c0,.773,0,1.16,0,1.934.627-.043.941-.064,1.571-.1a1.279,1.279,0,0,0,.891-.357,1.319,1.319,0,0,0,.3-.93.994.994,0,0,0-.3-.834,1.051,1.051,0,0,0-.891-.087C544.973-476.657,544.659-476.582,544.032-476.426Zm2.791,5.7a1.083,1.083,0,0,0,.319-.905A1.206,1.206,0,0,0,545.877-473c-.74-.041-1.109-.063-1.845-.107,0,.811,0,1.216,0,2.027.736.182,1.1.271,1.845.443A1.121,1.121,0,0,0,546.823-470.73Z" transform="translate(-542.47 484.532)" fill="#fff"/>
        <path id="Path_2069" data-name="Path 2069" d="M628.409-504.528a4.38,4.38,0,0,1,1.124,2.229,17.89,17.89,0,0,1,.4,3.961v8.6c-.652-.153-.977-.232-1.626-.4v-3.582q-1.6-.21-3.2-.45V-491c-.637-.184-.954-.279-1.588-.475v-6.7a12.3,12.3,0,0,1,.4-3.2,6.67,6.67,0,0,1,1.112-2.3,3.346,3.346,0,0,1,1.684-1.2A1.694,1.694,0,0,1,628.409-504.528Zm-.1,8.039v-2.132a7.059,7.059,0,0,0-.431-2.747,1.059,1.059,0,0,0-1.17-.737,1.65,1.65,0,0,0-1.172,1.062,5.976,5.976,0,0,0-.423,2.54v1.885Q626.711-496.55,628.308-496.489Z" transform="translate(-616.09 508.375)" fill="#fff"/>
        <path id="Path_2070" data-name="Path 2070" d="M708-508.346a10.459,10.459,0,0,1-1.374-3.292,18.145,18.145,0,0,1-.5-4.387,18.154,18.154,0,0,1,.5-4.387A10.458,10.458,0,0,1,708-523.7a3.194,3.194,0,0,1,1.97-1.519,1.815,1.815,0,0,1,1.671.545,5.455,5.455,0,0,1,1.257,2.28q-.522,1.321-1.059,2.637c-.317-.7-.765-2.057-1.788-1.965a1.687,1.687,0,0,0-1.176.847,6.093,6.093,0,0,0-.8,2.026,12.915,12.915,0,0,0-.288,2.828,12.915,12.915,0,0,0,.288,2.828,6.092,6.092,0,0,0,.8,2.026,1.686,1.686,0,0,0,1.176.847c1.026.091,1.474-1.286,1.788-1.991q.537,1.315,1.059,2.636a5.422,5.422,0,0,1-1.262,2.306,1.827,1.827,0,0,1-1.676.544A3.187,3.187,0,0,1,708-508.346Z" transform="translate(-691.113 526.803)" fill="#fff"/>
        <path id="Path_2071" data-name="Path 2071" d="M794.648-523.549q-.475,1.354-.961,2.7,0,2.463,0,4.926c-.658-.078-.987-.12-1.643-.21V-535.19c.657-.089.985-.131,1.643-.21q0,4.55,0,9.1,1.625-4.7,3.172-9.425c.738-.063,1.107-.091,1.845-.141q-1.465,4.569-2.972,9.124,1.6,5.64,3.146,11.3c-.776-.05-1.163-.079-1.938-.145Q795.811-519.573,794.648-523.549Z" transform="translate(-769.15 536.437)" fill="#fff"/>
        <path id="Path_2072" data-name="Path 2072" d="M901.969-535.9a5.048,5.048,0,0,0-1.983-2.009v17c-.666,0-1,0-1.665,0V-537.9a5.126,5.126,0,0,0-1.993,2.012q-.282-1.785-.565-3.571a6.611,6.611,0,0,1,1.6-1.968,2.885,2.885,0,0,1,1.778-.675,2.9,2.9,0,0,1,1.793.667,6.406,6.406,0,0,1,1.6,1.963Q902.251-537.686,901.969-535.9Z" transform="translate(-863.354 542.105)" fill="#fff"/>
        <path id="Path_2073" data-name="Path 2073" d="M973.617-519.339a11.144,11.144,0,0,1-1.407-3.768,25.3,25.3,0,0,1-.508-5.483,25.3,25.3,0,0,1,.508-5.483,11.143,11.143,0,0,1,1.407-3.768,2.264,2.264,0,0,1,2.016-1.246,3.008,3.008,0,0,1,2.008,1.517,14.152,14.152,0,0,1,1.4,3.768,23.493,23.493,0,0,1,.511,5.211,23.493,23.493,0,0,1-.511,5.211,14.156,14.156,0,0,1-1.4,3.768,3.008,3.008,0,0,1-2.008,1.517A2.263,2.263,0,0,1,973.617-519.339Zm3.164-3.634a7.187,7.187,0,0,0,.8-2.308,17.088,17.088,0,0,0,.292-3.309,17.089,17.089,0,0,0-.292-3.309,7.186,7.186,0,0,0-.8-2.308,1.516,1.516,0,0,0-1.148-.878,1.334,1.334,0,0,0-1.149.782,6.85,6.85,0,0,0-.806,2.307,17.889,17.889,0,0,0-.292,3.406,17.891,17.891,0,0,0,.292,3.406,6.852,6.852,0,0,0,.806,2.307,1.334,1.334,0,0,0,1.149.782A1.516,1.516,0,0,0,976.781-522.973Z" transform="translate(-932.327 539.367)" fill="#fff"/>
        <path id="Path_2074" data-name="Path 2074" d="M1098.013-518.818a5.2,5.2,0,0,0-1.95-1.829v14.093c-.656.127-.984.188-1.642.3v-14.589a3.677,3.677,0,0,0-1.972,1.568q-.282-1.635-.56-3.272a4.44,4.44,0,0,1,1.587-1.494,2.665,2.665,0,0,1,1.756-.253,3.989,3.989,0,0,1,1.766.887,7.712,7.712,0,0,1,1.569,1.832Q1098.286-520.195,1098.013-518.818Z" transform="translate(-1041.489 525.97)" fill="#fff"/>
        <path id="Path_2075" data-name="Path 2075" d="M1168.656-491.613a5.884,5.884,0,0,1-1.377-2.652,14.8,14.8,0,0,1-.5-4.22,14.807,14.807,0,0,1,.5-4.22,5.883,5.883,0,0,1,1.377-2.652,1.938,1.938,0,0,1,1.968-.5,3.916,3.916,0,0,1,1.954,1.447,9.035,9.035,0,0,1,1.36,2.652,10.047,10.047,0,0,1,.5,3.276,10.047,10.047,0,0,1-.5,3.276,9.038,9.038,0,0,1-1.36,2.652,3.916,3.916,0,0,1-1.954,1.447A1.938,1.938,0,0,1,1168.656-491.613Zm3.086-3.059a4.694,4.694,0,0,0,.782-1.624,7.888,7.888,0,0,0,.283-2.188,7.891,7.891,0,0,0-.283-2.188,4.694,4.694,0,0,0-.782-1.624,1.849,1.849,0,0,0-1.118-.752,1.194,1.194,0,0,0-1.121.417,3.741,3.741,0,0,0-.787,1.621,10.025,10.025,0,0,0-.286,2.526,10.023,10.023,0,0,0,.286,2.526,3.74,3.74,0,0,0,.787,1.621,1.194,1.194,0,0,0,1.121.417A1.849,1.849,0,0,0,1171.742-494.672Z" transform="translate(-1109.511 509.262)" fill="#fff"/>
        <path id="Path_2076" data-name="Path 2076" d="M1267.893-484.177a4.5,4.5,0,0,1,1.024,1.277,3.023,3.023,0,0,1,.358,1.441,2.6,2.6,0,0,1-.358,1.357,3.241,3.241,0,0,1-1.024,1.058,3.967,3.967,0,0,1-1.575.615c-.551.09-.828.134-1.381.22v2.817c-.636.22-.955.327-1.594.536v-11.289q1.495.5,2.976,1.025A4.89,4.89,0,0,1,1267.893-484.177Zm-.579,3.6a1.427,1.427,0,0,0,.37-1.049,1.733,1.733,0,0,0-.37-1.138,1.881,1.881,0,0,0-1.083-.631c-.516-.116-.775-.173-1.293-.285v3.547l1.293-.033A1.508,1.508,0,0,0,1267.314-480.581Z" transform="translate(-1197.215 491.279)" fill="#fff"/>
      </g>
    </g>
    <g id="Group_296" data-name="Group 296" transform="translate(222.635 12940.92) rotate(-180)">
      <path id="Path_477" data-name="Path 477" d="M0,0,7.605,11.79,15.21,0" transform="translate(0 153.631)" fill="none" stroke="#fff" stroke-linejoin="bevel" stroke-width="2"/>
      <line id="Line_2" data-name="Line 2" y1="163.849" transform="translate(7.605 0)" fill="none" stroke="#fff" stroke-width="2"/>
    </g>
  </g>
</svg>
