<svg xmlns="http://www.w3.org/2000/svg" width="225" height="57" viewBox="0 0 225 57">
  <g id="Group_336" data-name="Group 336" transform="translate(-180 -870)">
    <g id="Rectangle_528" data-name="Rectangle 528" transform="translate(184 874)" fill="none" stroke="#fff" stroke-width="2">
      <path d="M0,0H207a14,14,0,0,1,14,14V53a0,0,0,0,1,0,0H14A14,14,0,0,1,0,39V0A0,0,0,0,1,0,0Z" stroke="none"/>
      <path d="M2,1H207a13,13,0,0,1,13,13V51a1,1,0,0,1-1,1H14A13,13,0,0,1,1,39V2A1,1,0,0,1,2,1Z" fill="none"/>
    </g>
    <g id="Rectangle_527" data-name="Rectangle 527" transform="translate(180 870)" fill="#7673fe" stroke="#00061c" stroke-width="2">
      <path d="M0,0H207a14,14,0,0,1,14,14V53a0,0,0,0,1,0,0H14A14,14,0,0,1,0,39V0A0,0,0,0,1,0,0Z" stroke="none"/>
      <path d="M2,1H207a13,13,0,0,1,13,13V51a1,1,0,0,1-1,1H14A13,13,0,0,1,1,39V2A1,1,0,0,1,2,1Z" fill="none"/>
    </g>
  </g>
</svg>
