<svg xmlns="http://www.w3.org/2000/svg" width="225" height="57" viewBox="0 0 225 57">
  <g id="Group_335" data-name="Group 335" transform="translate(-1519 -114)">
    <g id="Rectangle_492" data-name="Rectangle 492" transform="translate(1523 118)" fill="none" stroke="#fff" stroke-width="2">
      <path d="M0,0H207a14,14,0,0,1,14,14V53a0,0,0,0,1,0,0H14A14,14,0,0,1,0,39V0A0,0,0,0,1,0,0Z" stroke="none"/>
      <path d="M2,1H207a13,13,0,0,1,13,13V51a1,1,0,0,1-1,1H14A13,13,0,0,1,1,39V2A1,1,0,0,1,2,1Z" fill="none"/>
    </g>
    <g id="Rectangle_448" data-name="Rectangle 448" transform="translate(1519 114)" fill="#fff" stroke="#00061c" stroke-width="2">
      <path d="M0,0H207a14,14,0,0,1,14,14V53a0,0,0,0,1,0,0H14A14,14,0,0,1,0,39V0A0,0,0,0,1,0,0Z" stroke="none"/>
      <path d="M2,1H207a13,13,0,0,1,13,13V51a1,1,0,0,1-1,1H14A13,13,0,0,1,1,39V2A1,1,0,0,1,2,1Z" fill="none"/>
    </g>
  </g>
</svg>
