<svg xmlns="http://www.w3.org/2000/svg" width="68" height="24.183" viewBox="0 0 68 24.183">
  <g id="Cardano_Logo" data-name="Cardano Logo" transform="translate(0.052 -0.023)">
    <g id="Group_150" data-name="Group 150" transform="translate(0 0)">
      <path id="Path_1819" data-name="Path 1819" d="M620.475-66.008c-.312-.018-.982.688-1,1s.688-.018,1,0-.018.312,0,0S620.787-65.991,620.475-66.008Z" transform="translate(-619.527 77.214)" fill="#fff"/>
      <path id="Path_1820" data-name="Path 1820" d="M629.129-65.457a2.212,2.212,0,0,0,2,2c.034,0-.033,0,0,0a2.332,2.332,0,0,0,2-2,2.21,2.21,0,0,0-2-2A2.206,2.206,0,0,0,629.129-65.457Z" transform="translate(-622.18 77.662)" fill="#fff"/>
      <path id="Path_1821" data-name="Path 1821" d="M620.475-66.008c-.312-.018-.982.688-1,1s.688-.018,1,0-.018.312,0,0S620.787-65.991,620.475-66.008Z" transform="translate(-619.527 77.214)" fill="#fff"/>
      <path id="Path_1822" data-name="Path 1822" d="M628.782-79.024c.279-.141.141-.72,0-1s.28-.141,0,0-1.141-.279-1,0S628.5-78.884,628.782-79.024Z" transform="translate(-621.833 81.23)" fill="#fff"/>
      <path id="Path_1823" data-name="Path 1823" d="M631.277-75.088c.432-.217.218-1.569,0-2s-.569-.217-1,0-.218.569,0,1S630.846-74.87,631.277-75.088Z" transform="translate(-622.328 80.294)" fill="#fff"/>
      <path id="Path_1824" data-name="Path 1824" d="M623.4-72.171c.333.219.781.333,1,0s.332-.782,0-1-.781-.333-1,0S623.069-72.389,623.4-72.171Z" transform="translate(-620.453 79.376)" fill="#fff"/>
      <path id="Path_1825" data-name="Path 1825" d="M624.576-66.126a1.1,1.1,0,0,0-1,1,1.1,1.1,0,0,0,1,1,1.1,1.1,0,0,0,1-1A1.1,1.1,0,0,0,624.576-66.126Z" transform="translate(-620.627 77.331)" fill="#fff"/>
      <path id="Path_1826" data-name="Path 1826" d="M623.412-57.965c-.356.179-.179.644,0,1s.645.179,1,0,.179-.644,0-1S623.767-58.144,623.412-57.965Z" transform="translate(-620.463 75.171)" fill="#fff"/>
      <path id="Path_1827" data-name="Path 1827" d="M627.652-69.5c.476.312,1.688.476,2,0s-.524-1.688-1-2-.688.525-1,1S627.176-69.814,627.652-69.5Z" transform="translate(-621.703 78.708)" fill="#fff"/>
      <path id="Path_1828" data-name="Path 1828" d="M642.694-75.1c.4.265.735-.6,1-1s.4-.735,0-1-.735-.405-1,0S642.29-75.361,642.694-75.1Z" transform="translate(-625.745 80.301)" fill="#fff"/>
      <path id="Path_1829" data-name="Path 1829" d="M645.414-80.035c.261.171.829.262,1,0s.262.171,0,0-.828-.261-1,0S645.152-80.207,645.414-80.035Z" transform="translate(-626.465 81.24)" fill="#fff"/>
      <path id="Path_1830" data-name="Path 1830" d="M642.2-67.463a2.208,2.208,0,0,0-2,2,2.211,2.211,0,0,0,2,2c.034,0-.034,0,0,0a2.332,2.332,0,0,0,2-2c.027-.467-.689-.651-1-1S642.67-67.436,642.2-67.463Z" transform="translate(-625.254 77.669)" fill="#fff"/>
      <path id="Path_1831" data-name="Path 1831" d="M631.894-69.79a2.525,2.525,0,0,0,2,1c.271,0,.757.123,1,0a2.7,2.7,0,0,0,1-3,2.525,2.525,0,0,0-2-1c-.271,0-.757.878-1,1C632.031-71.355,631.459-70.652,631.894-69.79Z" transform="translate(-622.945 78.995)" fill="#fff"/>
      <path id="Path_1832" data-name="Path 1832" d="M650.688-72.187c.355-.179.179-.644,0-1s.356-1.179,0-1-1.179.645-1,1S650.332-72.008,650.688-72.187Z" transform="translate(-627.739 79.393)" fill="#fff"/>
      <path id="Path_1833" data-name="Path 1833" d="M645.211-71.512c-.508.256-1.256,1.492-1,2s1.492.256,2,0,.256-.492,0-1S645.719-71.769,645.211-71.512Z" transform="translate(-626.263 78.718)" fill="#fff"/>
      <path id="Path_1834" data-name="Path 1834" d="M637.04-80.282c.4.023.977.4,1,0s-.6-.977-1-1-.977-.4-1,0S636.642-80.3,637.04-80.282Z" transform="translate(-624.091 81.488)" fill="#fff"/>
      <path id="Path_1835" data-name="Path 1835" d="M636.928-73.824a.981.981,0,0,0,1-1,.981.981,0,0,0-1-1,.98.98,0,0,0-1,1A.981.981,0,0,0,636.928-73.824Z" transform="translate(-623.98 80.029)" fill="#fff"/>
      <path id="Path_1836" data-name="Path 1836" d="M628.657-59.87c.508-.256,1.256-.492,1-1s-1.492-1.256-2-1-.256,1.491,0,2S628.15-59.614,628.657-59.87Z" transform="translate(-621.709 76.075)" fill="#fff"/>
      <path id="Path_1837" data-name="Path 1837" d="M638.431-71.793c-.53.808-.807,2.47,0,3,.286.188.659,0,1,0a3.065,3.065,0,0,0,2-1c.53-.808-.193-1.471-1-2-.286-.188-.658-1-1-1C638.838-72.793,638.756-72.288,638.431-71.793Z" transform="translate(-624.483 78.998)" fill="#fff"/>
      <path id="Path_1838" data-name="Path 1838" d="M641.437-61.13a2.525,2.525,0,0,0-2-1c-.272,0-.756-.122-1,0a1.931,1.931,0,0,0-1,1c-.147.444.789.582,1,1,.3.595.335,1,1,1,.272,0,.756.123,1,0C641.3-59.565,641.872-60.268,641.437-61.13Z" transform="translate(-624.488 76.336)" fill="#fff"/>
      <path id="Path_1839" data-name="Path 1839" d="M646.217-61.879c-.475-.312-1.688.524-2,1s.525.688,1,1,.688.476,1,0S646.693-61.568,646.217-61.879Z" transform="translate(-626.268 76.085)" fill="#fff"/>
      <path id="Path_1840" data-name="Path 1840" d="M650.408-65.141a1.1,1.1,0,0,0-1-1,1.1,1.1,0,0,0-1,1,1.1,1.1,0,0,0,1,1A1.106,1.106,0,0,0,650.408-65.141Z" transform="translate(-627.459 77.347)" fill="#fff"/>
      <path id="Path_1841" data-name="Path 1841" d="M654.738-66.029c-.313-.017-.982.688-1,1s-.313-.018,0,0,.982.313,1,0S655.051-66.011,654.738-66.029Z" transform="translate(-628.79 77.234)" fill="#fff"/>
      <path id="Path_1842" data-name="Path 1842" d="M650.7-57.981c-.334-.219-.782-.333-1,0s-.333.781,0,1,.781.333,1,0S651.029-57.762,650.7-57.981Z" transform="translate(-627.748 75.187)" fill="#fff"/>
      <path id="Path_1843" data-name="Path 1843" d="M628.8-51c-.262-.171-.829-.262-1,0s.738.829,1,1-.171.262,0,0S629.061-50.83,628.8-51Z" transform="translate(-621.851 73.208)" fill="#fff"/>
      <path id="Path_1844" data-name="Path 1844" d="M645.431-51.012c-.279.14-.141.721,0,1s.72.141,1,0,.141-.721,0-1S645.711-51.153,645.431-51.012Z" transform="translate(-626.483 73.218)" fill="#fff"/>
      <path id="Path_1845" data-name="Path 1845" d="M634.9-60.127c.256-.391,1.1-.542,1-1s-.609-.743-1-1c-.286-.188-.658,0-1,0-.592,0-.675-.5-1,0-.257.391-1.1,1.542-1,2s.609.743,1,1c.286.188.659,0,1,0C634.493-59.127,634.574-59.631,634.9-60.127Z" transform="translate(-622.951 76.332)" fill="#fff"/>
      <path id="Path_1846" data-name="Path 1846" d="M631.291-55.171c-.4-.265-.735-.4-1,0s-.4,1.735,0,2,.735-.6,1-1S631.7-54.906,631.291-55.171Z" transform="translate(-622.342 74.377)" fill="#fff"/>
      <path id="Path_1847" data-name="Path 1847" d="M637.031-50.87c-.4-.023-.978.6-1,1s.6.977,1,1,.978-.6,1-1S637.428-50.848,637.031-50.87Z" transform="translate(-624.082 73.076)" fill="#fff"/>
      <path id="Path_1848" data-name="Path 1848" d="M636.913-56.559a.981.981,0,0,0-1,1,.981.981,0,0,0,1,1,.98.98,0,0,0,1-1A.981.981,0,0,0,636.913-56.559Z" transform="translate(-623.964 74.764)" fill="#fff"/>
      <path id="Path_1849" data-name="Path 1849" d="M642.707-55.179c-.431.218-.218.568,0,1s.568,1.218,1,1,.218-1.569,0-2S643.139-55.4,642.707-55.179Z" transform="translate(-625.758 74.384)" fill="#fff"/>
    </g>
    <text id="CARDANO_FOUNDATION" data-name="CARDANO
FOUNDATION" transform="translate(32.949 10.206)" fill="#fff" font-size="7" font-family="Impact"><tspan x="0" y="0">CARDANO</tspan><tspan x="0" y="9">FOUNDATION</tspan></text>
  </g>
</svg>
