<svg xmlns="http://www.w3.org/2000/svg" xmlns:xlink="http://www.w3.org/1999/xlink" width="681.323" height="993.142" viewBox="0 0 681.323 993.142">
  <defs>
    <filter id="Path_444" x="456.173" y="404.906" width="115.26" height="91.46" filterUnits="userSpaceOnUse">
      <feOffset input="SourceAlpha"/>
      <feGaussianBlur stdDeviation="10" result="blur"/>
      <feFlood flood-color="#fff"/>
      <feComposite operator="in" in2="blur"/>
      <feComposite in="SourceGraphic"/>
    </filter>
    <filter id="Path_445" x="456.173" y="378.475" width="115.26" height="91.279" filterUnits="userSpaceOnUse">
      <feOffset input="SourceAlpha"/>
      <feGaussianBlur stdDeviation="10" result="blur-2"/>
      <feFlood flood-color="#fff"/>
      <feComposite operator="in" in2="blur-2"/>
      <feComposite in="SourceGraphic"/>
    </filter>
    <filter id="WELCOME_TO" x="402.806" y="339.448" width="207.769" height="74.772" filterUnits="userSpaceOnUse">
      <feOffset input="SourceAlpha"/>
      <feGaussianBlur stdDeviation="10" result="blur-3"/>
      <feFlood flood-color="#fff"/>
      <feComposite operator="in" in2="blur-3"/>
      <feComposite in="SourceGraphic"/>
    </filter>
  </defs>
  <g id="Group_333" data-name="Group 333" transform="translate(-1079 -246.858)">
    <circle id="Ellipse_27" data-name="Ellipse 27" cx="200" cy="200" r="200" transform="translate(1272 840)" fill="#091026"/>
    <circle id="Ellipse_46" data-name="Ellipse 46" cx="48.5" cy="48.5" r="48.5" transform="translate(1287 460)" fill="#091026"/>
    <circle id="Ellipse_47" data-name="Ellipse 47" cx="12.5" cy="12.5" r="12.5" transform="translate(1079 339)" fill="#091026"/>
    <g id="Group_265" data-name="Group 265" transform="translate(1477.546 246.858)">
      <path id="Path_1901" data-name="Path 1901" d="M-1255.561,684.772a1.119,1.119,0,0,1,.382-.055c-.1-.1-.21-.224-.341-.379C-1255.537,684.485-1255.547,684.627-1255.561,684.772Z" transform="translate(1398.131 -610.541)" fill="#fff"/>
      <path id="Path_1902" data-name="Path 1902" d="M-1194.718,691.34c0-.029,0-.058,0-.089-.017.016-.037.027-.056.044C-1194.754,691.312-1194.735,691.323-1194.718,691.34Z" transform="translate(1369.847 -613.758)" fill="#fff"/>
      <path id="Path_1903" data-name="Path 1903" d="M-1349.479,585.184a1.282,1.282,0,0,1-.193.045,1.3,1.3,0,0,1-.181,0l.291.478C-1349.534,585.533-1349.507,585.358-1349.479,585.184Z" transform="translate(1442.002 -564.408)" fill="#fff"/>
      <path id="Path_1904" data-name="Path 1904" d="M-1419.745,725.718a.965.965,0,0,1,.276.282c.111-.159.219-.319.333-.478A5.428,5.428,0,0,0-1419.745,725.718Z" transform="translate(1474.521 -629.703)" fill="#fff"/>
      <path id="Path_1905" data-name="Path 1905" d="M-1317.934,583.834a1.275,1.275,0,0,1-.208.023,1.234,1.234,0,0,1-.32-.05q.089.452.177.909C-1318.17,584.417-1318.052,584.124-1317.934,583.834Z" transform="translate(1427.397 -563.767)" fill="#fff"/>
      <path id="Path_1906" data-name="Path 1906" d="M-1424.36,635.1a.788.788,0,0,1,.146.226c.153-.195.3-.386.462-.585C-1423.96,634.845-1424.159,634.972-1424.36,635.1Z" transform="translate(1476.668 -587.465)" fill="#fff"/>
      <path id="Path_1907" data-name="Path 1907" d="M-1247.621,827.52l.4-.158A.785.785,0,0,0-1247.621,827.52Z" transform="translate(1394.437 -677.086)" fill="#fff"/>
      <path id="Path_1908" data-name="Path 1908" d="M-1333.342,737.35c-1.392-.054-1.484-.545-.83-1.744,3.274-6,6.455-12.055,9.668-18.09,1.794-3.369,3.616-6.724,5.354-10.122.363-.71,1.274-1.5.405-2.392-.648-.665-1.5-.315-2.275-.141-10.575,2.364-21.155,4.708-31.722,7.106-1.621.368-2.428.4-2-1.74q3.2-15.811,6.158-31.669a3.278,3.278,0,0,1,2.455-2.916,11.691,11.691,0,0,0,7.157-13.179c-.029-.144-.164-.269-.393-.511a1.118,1.118,0,0,0-.382.055,40.4,40.4,0,0,1-.364,5.052,11.129,11.129,0,0,1-17.624,6.452,15.582,15.582,0,0,1-3.7-3.822c-1.087-1.676-1.631-2.025-2.556.228a31.616,31.616,0,0,1-7.785,11.663c-7.992,7.278-21.717,6.528-28.214-1.641-3.408-4.285-4.1-9.341-3.693-14.634.071-.932.568-1.859,0-3-1.271.86-2.437,1.777-3.716,2.492-6.2,3.471-12.671.01-12.954-7-.057-1.406-.583-1.364-1.582-1.255a21.631,21.631,0,0,1-3.459.187c-7.065-.371-11.158-6.214-9.213-13.047.825-2.9,2.567-5.29,4.741-8.04a.79.79,0,0,0-.146-.226c-4.159,2.614-6.872,9.5-5.854,13.987a10.556,10.556,0,0,0,10.154,8.289,5.446,5.446,0,0,0,1.333,0c2.116-.449,2.9.2,3.306,2.523.95,5.384,7.19,8.286,12.6,6.154,1.225-.482,2.362-1.184,3.848-1.942a36.1,36.1,0,0,0,.158,7.132c.748,4.844,2.7,9.018,6.756,11.962a2.508,2.508,0,0,1,1.23,2.615q-2.13,20.437-4.128,40.886a2.178,2.178,0,0,1-1.732,2.024c-9.154,3.418-17.528,1.679-25.091-4.132-6.993-5.374-8.816-12.792-7.659-21.2.121-.88.169-1.77.251-2.655l-.492-1.192c-2,8.055-1.863,15.974,3.883,22.439,8.24,9.271,18.626,11.6,30.565,7.4-.471,4.506-.921,8.647-1.333,12.792-.329,3.313-.049,3.583,3.206,3.3.443-.038.885-.086,1.326-.146q16.385-2.247,32.767-4.514c1.258-.176,1.723-.067,1.448,1.442-2.089,11.449-4.1,22.913-6.111,34.375q-2.7,15.357-5.33,30.725c-.13.76-.772,1.871.47,2.295.876.3,1.141-.621,1.494-1.208.228-.38.418-.783.626-1.174l36.819-69.374a.786.786,0,0,1,.4-.158Zm-40.064,70.193-.4-.182q2.35-13.553,4.7-27.107,2.9-16.59,5.837-33.174c.292-1.653.606-3.3.955-4.947.342-1.612-.179-2.43-1.909-2.189q-12.344,1.717-24.685,3.445c-3.327.462-6.659.883-9.986,1.348-1.947.272-2.532-.635-2.331-2.446,1.073-9.668,2.17-19.334,3.15-29.012.811-8.012,1.462-16.04,2.207-24.058.081-.876.361-1.732.483-2.606.153-1.1.692-1.315,1.67-.915,14.618,5.988,24.6-2.586,29.583-13.017.381-.8.818-1.569,1.358-2.6,1.812,1.816,3.369,3.73,5.512,4.927,1.792,1,3.627,1.951,5.766,1.83,1.84-.1,2.2.49,1.821,2.371-2.157,10.753-4.069,21.557-6.24,32.307-.494,2.444.522,2.059,2.051,1.716q16.451-3.683,32.915-7.308c.325-.072.662-.09,1.585-.211Z" transform="translate(1482.313 -587.776)" fill="#fff"/>
      <path id="Path_1909" data-name="Path 1909" d="M-1333.566,583.65c-6.146-5.686-13.821-6.884-21.851-6.646-2.007.06-4.013.147-6.02.221q-.04-3.046-.08-6.094a25,25,0,0,0-30.671-24.156c-9.372,2.13-15.846,7.946-20.478,16.463-1.42-4.624-3.941-7.92-9.06-7.625-5.1.294-7.534,3.7-8.574,8.784-6.96-10.95-16.531-15.29-28.516-11.548-13.371,4.174-17.016,14.894-16.3,27.94a43.168,43.168,0,0,0-9.878-1.761,39.233,39.233,0,0,0-10.083.77,34.563,34.563,0,0,0-27.09,34.727c.275,10.737,4.051,19.992,12.918,26.61s18.973,9,29.9,8.235c2.37-.167,4.723-.574,7.385-.909-1.326,3.359-2.682,6.43-3.226,9.751a.816.816,0,0,1,.727.344,51.513,51.513,0,0,1,7.339-16.129.964.964,0,0,0-.276-.282,3.487,3.487,0,0,0-2.116,2.245c-.957,2.241-2.65,3.056-4.939,3.39-14.921,2.176-28.656-.27-38.925-12.073-9.041-10.392-10.2-22.829-4.983-35.289,5.243-12.529,15.291-19.245,28.91-20.324a31.5,31.5,0,0,1,13.165,1.508c2.268.807,2.373.044,2.232-1.977-.619-8.879,1.355-16.857,8.861-22.535,10.589-8.009,25.4-5.2,32.888,6.161.7,1.061,1.344,2.166,2.281,3.7a1.28,1.28,0,0,0,.181,0,1.284,1.284,0,0,0,.193-.045c.891-5.574,2.234-10.5,8.828-10.237,5.511.222,6.6,4.524,7.583,9.5a1.238,1.238,0,0,0,.32.05,1.279,1.279,0,0,0,.208-.023,31.836,31.836,0,0,1,7.848-11.662c11.479-10.752,28.994-9.607,37.813,2.514,4.233,5.818,4.925,12.419,4.455,19.318-.071,1.038-.621,1.365-1.458,1.564a10.491,10.491,0,0,0-4.148,1.767c.98,1.014,1.7.021,2.372-.187a38.21,38.21,0,0,1,23.115-.133c9.85,3.058,15.622,11.452,15.614,22.065-.008,9.52-6.458,17.694-16.441,20.946-1.126.367-2.434.288-3.5,1.235,0,.031,0,.06,0,.089,1.037,1,2.437.932,3.587,1.424,6.838,2.927,10.187,8.446,9.112,15.156-1.053,6.577-5.854,10.728-13.15,11.489-1.736.181-4.266-.687-5,.6s1.378,2.964,2.084,4.556c2.551,5.753,4.58,11.636,3.674,18.031-1.413,9.968-9.386,17.9-19.836,20.138a43.06,43.06,0,0,1-6.5.591c-.262,1.082-1.2.611-1.888.71l-.4.158a37.622,37.622,0,0,0,8.5-.386c15.29-2.929,23.85-15.9,20.414-31.016a50.185,50.185,0,0,0-4.829-12.043c11.42-1.349,16.171-4.462,17.649-11.4a14.829,14.829,0,0,0-1.531-11.077c-2.047-3.446-5.352-5.333-9.068-6.949.89-.312,1.564-.534,2.227-.783C-1324.917,616.692-1320.407,595.824-1333.566,583.65Z" transform="translate(1522.182 -546.33)" fill="#fff"/>
      <path id="Path_1910" data-name="Path 1910" d="M-1433.586,756.279a.817.817,0,0,0-.727-.344l.492,1.192C-1433.745,756.844-1433.665,756.561-1433.586,756.279Z" transform="translate(1481.299 -643.853)" fill="#fff"/>
      <path id="Path_1911" data-name="Path 1911" d="M-1246.88,826.745c.69-.1,1.627.373,1.888-.71l-.13.007Z" transform="translate(1394.092 -676.469)" fill="#fff"/>
      <path id="Path_1912" data-name="Path 1912" d="M-1339.239,664.15c-.1.521-.07,1.065-.146,1.595-.589,4.119-2.623,7.135-6.636,8.6-4.254,1.552-8.051.9-11.264-2.43-.556-.577-1.13-1.136-1.673-1.727-2.619-2.845-3.251-2.746-4.955.857a33.175,33.175,0,0,1-3.521,5.973c-4.52,5.938-10.111,9.744-18,8.871-7.2-.8-12.724-3.965-15.254-11.1a18.564,18.564,0,0,1-.949-9.728c.164-.874.272-1.862-.575-2.456-.915-.64-1.684.09-2.426.533a23.369,23.369,0,0,1-2.828,1.5c-5.061,2.15-9.966-.311-10.925-5.714-.4-2.266-1.487-3.027-3.582-2.957a26.373,26.373,0,0,1-3.471-.053,8.2,8.2,0,0,1-7.443-7.5,11.856,11.856,0,0,1,1.846-7.9,34.419,34.419,0,0,0,2.008-3.153c.247-.478.589-1.055.395-1.529-2.175,2.75-3.916,5.141-4.741,8.04-1.945,6.833,2.147,12.676,9.213,13.047a21.645,21.645,0,0,0,3.459-.187c1-.109,1.525-.151,1.582,1.255.283,7.01,6.749,10.471,12.954,7,1.279-.715,2.445-1.632,3.716-2.492.568,1.145.071,2.073,0,3-.405,5.294.285,10.35,3.693,14.634,6.5,8.169,20.222,8.919,28.214,1.641a31.612,31.612,0,0,0,7.784-11.663c.925-2.253,1.47-1.9,2.556-.228a15.583,15.583,0,0,0,3.7,3.822,11.129,11.129,0,0,0,17.624-6.452,40.4,40.4,0,0,0,.364-5.052C-1339.225,662.45-1339.1,663.461-1339.239,664.15Z" transform="translate(1481.088 -587.973)" fill="#fff"/>
      <path id="Path_1913" data-name="Path 1913" d="M-1432.239,635.6a16.716,16.716,0,0,0-4.319,7.862c-2.028,8.282,4.416,15.225,11.164,14.6,1.888-.176,2.842.6,3.477,2.455,2,5.874,7.688,8.383,13.552,6.232.773-.283,1.468-1.073,2.5-.6.221,6.895,1.641,13.284,7.456,17.837,1.054.826.886,2.005.769,3.2-.634,6.461-1.261,12.923-1.933,19.379-.644,6.191-1.156,12.4-1.906,18.576a3.722,3.722,0,0,1-2.9,3.375,21.04,21.04,0,0,1-11.836.669c-12-2.936-19.361-11.227-18.652-23.416.1-1.682.694-3.326.382-5.036-.02-.063-.04-.128-.059-.192a1.869,1.869,0,0,1-.5.217c-.082.885-.13,1.775-.251,2.655-1.157,8.412.666,15.83,7.659,21.2,7.563,5.811,15.937,7.55,25.091,4.132a2.178,2.178,0,0,0,1.733-2.024q1.984-20.451,4.127-40.886a2.508,2.508,0,0,0-1.23-2.615c-4.051-2.944-6.008-7.119-6.756-11.963a36.141,36.141,0,0,1-.158-7.132c-1.486.758-2.623,1.46-3.848,1.942-5.407,2.131-11.647-.771-12.6-6.154-.41-2.319-1.19-2.971-3.306-2.523a5.441,5.441,0,0,1-1.333,0,10.556,10.556,0,0,1-10.154-8.289c-1.018-4.489,1.7-11.373,5.854-13.987a1.027,1.027,0,0,0-.182-.165C-1431.085,634.479-1431.758,635.113-1432.239,635.6Z" transform="translate(1482.52 -587.486)" fill="#fff"/>
      <path id="Path_1914" data-name="Path 1914" d="M-1260.37,755.15c4.2-7.85,8.413-15.69,12.481-23.608.552-1.074,1.426-2.24.54-3.482-.964-1.351-2.395-.823-3.7-.614-.967.156-1.918.4-2.874.612q-13.033,2.918-26.073,5.8c-3.035.672-3.128.566-2.523-2.448q2.732-13.619,5.26-27.277c.482-2.6,1.41-4.227,3.894-5.455,4.635-2.29,6.186-6.622,6.363-11.531.033-.906-.216-2.03-1.238-2.1-.033,0-.06,0-.091,0,.229.241.364.367.393.511a11.691,11.691,0,0,1-7.157,13.179,3.279,3.279,0,0,0-2.455,2.916q-2.991,15.852-6.158,31.669c-.433,2.144.374,2.108,2,1.74,10.567-2.4,21.147-4.742,31.722-7.106.778-.174,1.627-.524,2.275.141.869.893-.042,1.682-.405,2.392-1.738,3.4-3.56,6.753-5.354,10.122-3.213,6.035-6.394,12.088-9.668,18.09-.653,1.2-.562,1.69.831,1.744a2.152,2.152,0,0,1,.155-.179C-1262.614,758.2-1261.223,756.746-1260.37,755.15Z" transform="translate(1411.279 -610.87)" fill="#fff"/>
      <path id="Path_1915" data-name="Path 1915" d="M-1315.919,565.518a26.635,26.635,0,0,1,4.478-6.936c5.637-6.5,12.865-10.1,21.425-9.561,13.091.826,21.92,10.873,22.035,24.022.026,2.945.036,5.557-3.67,6.258-.786.149-1.833.824-1.351,1.876.387.845,1.448.57,2.175.286,4.784-1.874,9.785-1.6,14.773-1.64a27.452,27.452,0,0,1,12.56,3.16c11.406,5.642,15.414,24.783,4.141,34.426a29.2,29.2,0,0,1-10.444,5.743c-.852.266-1.917.5-2.005,1.516,0,.018,0,.034,0,.051,1.067-.946,2.375-.868,3.5-1.235,9.983-3.252,16.434-11.426,16.441-20.946.008-10.613-5.764-19.007-15.614-22.065a38.208,38.208,0,0,0-23.115.133c-.667.208-1.392,1.2-2.372.187a10.49,10.49,0,0,1,4.148-1.767c.837-.2,1.387-.525,1.458-1.564.47-6.9-.223-13.5-4.455-19.318-8.819-12.121-26.334-13.267-37.813-2.514a31.845,31.845,0,0,0-7.848,11.662C-1316.628,567.174-1316.243,566.277-1315.919,565.518Z" transform="translate(1426.938 -547.226)" fill="#fff"/>
      <path id="Path_1916" data-name="Path 1916" d="M-1348.152,574.733a15.315,15.315,0,0,1,1.036-3.585c1.33-2.67,3.4-4.344,6.494-4.354,2.8-.01,5.024,1.783,6.107,4.766.244.671.367,1.38.613,2.046.265.719.371,1.7,1.16,1.926-.982-4.976-2.072-9.279-7.583-9.5-6.594-.266-7.938,4.663-8.828,10.237C-1348.454,576.076-1348.293,575.37-1348.152,574.733Z" transform="translate(1441.677 -555.492)" fill="#fff"/>
      <path id="Path_1917" data-name="Path 1917" d="M-1215.334,693.091a22.332,22.332,0,0,1,4.076,1.989c4.474,2.86,6.531,6.915,5.927,12.236-.62,5.461-3.639,8.933-8.841,10.572a18.734,18.734,0,0,1-5.518.861c-4.221.038-4.559.649-2.667,4.523.548,1.12,1.158,2.212,1.642,3.361,2.162,5.138,3.672,10.368,3.015,16.073-1.329,11.537-13.524,19.275-22.563,19.851-1.047.067-2.213-.206-3.059.673,0,.012,0,.022.006.034-.009.051-.021.092-.032.137a43.046,43.046,0,0,0,6.5-.591c10.45-2.239,18.424-10.17,19.836-20.138.906-6.394-1.123-12.278-3.674-18.031-.706-1.592-2.826-3.262-2.084-4.556s3.267-.418,5-.6c7.3-.761,12.1-4.913,13.15-11.489,1.075-6.71-2.274-12.23-9.112-15.156-1.149-.492-2.549-.421-3.587-1.424C-1217.327,692.531-1216.2,692.761-1215.334,693.091Z" transform="translate(1392.449 -613.835)" fill="#fff"/>
      <path id="Path_1918" data-name="Path 1918" d="M-1468.7,648.529a4.96,4.96,0,0,0-.76,1.1c-1.066,2.126-2.891,3-5.149,3.311a49.159,49.159,0,0,1-14.888.053c-8.907-1.473-16.764-4.993-22.7-11.921-6.382-7.451-8.512-16.235-7.217-25.915,1.474-11.022,7.1-19.229,16.791-24.585,8.4-4.643,17.3-4.965,26.443-2.663,3.012.758,3.576.294,3.362-2.747a28.918,28.918,0,0,1,1.108-10.576c2.446-7.976,7.717-13.414,15.959-14.815,9.727-1.653,17.11.2,23.828,10.263.346.518.6,1.092.971,1.6a2.051,2.051,0,0,0,1.536,1.086c-.937-1.537-1.582-2.642-2.281-3.7-7.489-11.361-22.3-14.17-32.888-6.161-7.506,5.678-9.48,13.656-8.861,22.535.141,2.02.036,2.784-2.232,1.976a31.5,31.5,0,0,0-13.165-1.508c-13.619,1.08-23.667,7.8-28.91,20.325-5.215,12.46-4.058,24.9,4.983,35.289,10.27,11.8,24,14.249,38.925,12.073,2.29-.334,3.983-1.15,4.939-3.39a3.488,3.488,0,0,1,2.116-2.245c-.031-.022-.053-.046-.088-.067C-1467.623,647.4-1468.212,647.988-1468.7,648.529Z" transform="translate(1521.566 -551.891)" fill="#fff"/>
      <path id="Path_1919" data-name="Path 1919" d="M-1431.639,740.825A40.516,40.516,0,0,1-1427,730.07a16.713,16.713,0,0,0,1.174-2.1c.224-.512.485-1.1.211-1.557a51.509,51.509,0,0,0-7.339,16.129,2.16,2.16,0,0,1,.267.631C-1431.87,742.668-1431.867,741.651-1431.639,740.825Z" transform="translate(1480.666 -630.119)" fill="#fff"/>
      <path id="Path_1920" data-name="Path 1920" d="M-1243.435,825.715a2.179,2.179,0,0,0-.156.179l.13-.007c.011-.045.024-.086.032-.137C-1243.432,825.737-1243.433,825.727-1243.435,825.715Z" transform="translate(1392.562 -676.32)" fill="#fff"/>
      <path id="Path_1921" data-name="Path 1921" d="M-1432.89,757.21a2.164,2.164,0,0,0-.267-.632c-.08.282-.159.565-.235.849A1.877,1.877,0,0,0-1432.89,757.21Z" transform="translate(1480.871 -644.152)" fill="#fff"/>
      <path id="Path_1922" data-name="Path 1922" d="M-1290.287,736.093q-16.461,3.643-32.915,7.308c-1.529.343-2.545.728-2.051-1.716,2.171-10.751,4.083-21.554,6.24-32.307.377-1.881.019-2.475-1.821-2.371-2.139.121-3.975-.828-5.766-1.83-2.143-1.2-3.7-3.111-5.512-4.927-.541,1.031-.978,1.8-1.358,2.6-4.982,10.431-14.964,19.005-29.583,13.017-.978-.4-1.517-.181-1.67.915-.122.874-.4,1.73-.483,2.606-.746,8.019-1.4,16.047-2.207,24.059-.979,9.678-2.077,19.344-3.15,29.012-.2,1.811.385,2.718,2.331,2.446,3.327-.465,6.659-.886,9.986-1.348q12.344-1.713,24.685-3.445c1.73-.241,2.251.577,1.909,2.189-.348,1.643-.663,3.293-.955,4.947q-2.927,16.585-5.837,33.173-2.369,13.55-4.7,27.107l.4.182c17.944-33.808,35.888-67.617,54.048-101.829C-1289.625,736-1289.962,736.021-1290.287,736.093Z" transform="translate(1451.656 -617.944)" fill="#fff"/>
      <path id="Path_1923" data-name="Path 1923" d="M-1331.4,670.142l-9.223-11.82-.794.637,9.237,11.818Z" transform="translate(1438.079 -598.437)" fill="#fff"/>
      <path id="Path_1924" data-name="Path 1924" d="M-1504.939,665.719c-2.313,3.392-2.1,10.392.45,13.4A27.928,27.928,0,0,1-1504.939,665.719Z" transform="translate(1514.906 -601.878)" fill="#fff"/>
      <path id="Path_1925" data-name="Path 1925" d="M-1263.691,630.4a4.705,4.705,0,0,0-.46-6.124c-1.729-1.783-4.359-2.3-5.931-1.156C-1264.66,624.066-1264.528,624.217-1263.691,630.4Z" transform="translate(1404.888 -581.777)" fill="#fff"/>
      <path id="Path_1926" data-name="Path 1926" d="M-1431.655,690.833a4.632,4.632,0,0,0,1.374,5.9c1.832,1.45,4.582,1.566,5.97.251C-1428.94,696.491-1430.348,697.786-1431.655,690.833Z" transform="translate(1480.316 -613.563)" fill="#fff"/>
      <path id="Path_1927" data-name="Path 1927" d="M-1338.722,675.429c-1.266-3-3.883-6.19-5.549-6.995A20.864,20.864,0,0,0-1338.722,675.429Z" transform="translate(1439.405 -603.141)" fill="#fff"/>
      <path id="Path_1928" data-name="Path 1928" d="M-1326.483,663.1c-1.276-2.339-1.31-2.378-3.166-3.341C-1328.754,660.9-1328.595,662.711-1326.483,663.1Z" transform="translate(1432.602 -599.103)" fill="#fff"/>
      <path id="Path_1929" data-name="Path 1929" d="M-1501.335,694.829a3.911,3.911,0,0,0,2,3.747A5.516,5.516,0,0,0-1501.335,694.829Z" transform="translate(1512.489 -615.422)" fill="#fff"/>
    </g>
    <g id="Group_268" data-name="Group 268" transform="translate(1440.757 499)">
      <g id="Group_267" data-name="Group 267" transform="translate(0 0)">
        <path id="Path_1959" data-name="Path 1959" d="M-864.775,320.187c2.256,1.86,2.871,4.244,2.854,7.14q-.153,25.757,0,51.519c.027,3.939-.705,6.635-5.409,5.941-3.621-.535-4.538,1.087-4.473,4.522.191,10.341.068,20.689.068,31.034q0,94.349,0,188.7c0,10.093-1.383,11.482-11.386,11.482q-138.422,0-276.841-.005c-10.715,0-12-1.3-12-12.316q-.011-108.314.066-216.63c.006-4.412.037-7.749-5.94-6.878-3.034.443-3.6-2.007-3.6-4.543.017-18,.053-36-.048-54a7.251,7.251,0,0,1,2.447-5.4c13.019-13.28,16.948-28.791,16.495-47.6-1.258-52.316-.448-104.684-.409-157.031,0-3.457.514-6.8-4.845-6.039-2.947.416-3.871-1.734-3.87-4.357.012-20.276-.06-40.554.083-60.829.034-4.871,3.028-7.489,7.875-7.838,1.647-.118,3.308-.047,4.964-.047q137.179,0,274.358,0c10.846,0,12.646,1.785,12.651,12.528.008,17.794-.074,35.589.055,53.381.032,4.442-.241,7.974-6.13,7.276-3.365-.4-2.749,2.214-2.776,4.183q-.229,17.35-.422,34.7c-4.479.163-4.008-3.425-4.153-6.007a178.4,178.4,0,0,1-.038-22.93c.461-6.366-3.753-8.605-7.841-11.312-1.9-1.256-2.577,0-2.855,1.653a33.644,33.644,0,0,0-.215,5.571q-.008,84.969,0,169.94a42.8,42.8,0,0,0,.271,6.188c.441,3.04,2.66,3.364,5.041,3.357,2.356-.006,4.637-.256,5.146-3.262a40.385,40.385,0,0,0,.309-6.807q.011-55.2.012-110.4c0-2.685-.2-5.4.419-8.034.467-1.971.857-4.285,3.892-3.563.142,3.291.4,6.583.407,9.874.029,39.306.088,78.613-.072,117.919-.019,4.744.626,8.938,3.691,12.606.451,1.246-.294,1.6-1.3,1.751-4.7-3.508-10.08-4.263-15.663-3.7a70.9,70.9,0,0,1,8.789,11.506c4.251,7.264,10.259,8.9,17.871,6.966A3,3,0,0,1-864.775,320.187Z" transform="translate(1181.484 -36.989)" fill="#120931"/>
        <path id="Path_1960" data-name="Path 1960" d="M-936.163,150.525c-3.107,1.562-1.6,4.421-1.6,6.624-.1,40.524-.31,81.051.133,121.57.085,7.7-4.117,6.172-8.44,6.345-4.38.174-7.385.453-7.349-6.123.33-60.784.175-121.571.279-182.357,0-2.022-1.73-5.179,2.289-5.939,3.551-.672,4,1.588,4.534,4.208a2.866,2.866,0,0,0,3.281,2.291c5.464-.864,5.3,2.536,5.242,6.325-.134,9.1-.108,18.195.011,27.291.024,1.845-1.152,4.281,1.638,5.367A25.779,25.779,0,0,0-936.163,150.525Z" transform="translate(1236.628 -24.039)" fill="#016adb"/>
        <path id="Path_1961" data-name="Path 1961" d="M-923.847,268.2l-1.238,1.392a24.279,24.279,0,0,1-12.185-16.347q.6-.678,1.206-1.357A123.084,123.084,0,0,1-923.847,268.2Z" transform="translate(1240.557 14.994)" fill="#28284b"/>
        <path id="Path_1962" data-name="Path 1962" d="M-1027.964,552.255c-41.173,0-82.348-.081-123.521.109-4.794.022-6.173-1.125-6.163-6.069q.248-115.451.006-230.9c-.01-4.932,1.366-6.182,6.219-6.173q123.832.216,247.664-.016c5.242-.011,6.48,1.469,6.469,6.562q-.24,115.142.018,230.284c.014,5.328-1.541,6.351-6.551,6.326C-945.2,552.164-986.583,552.255-1027.964,552.255Z" transform="translate(1187.25 28.856)" fill="#fff"/>
        <path id="Path_1963" data-name="Path 1963" d="M-1029.325,90.64c38.464,0,76.929.1,115.391-.117,4.969-.027,6.111,1.434,6.1,6.217q-.234,91.2.023,182.392c.016,5.077-1.559,6.208-6.244,6-8.05-.358-16.126-.055-24.191-.138-1.525-.016-3.58.856-4.467-.982-.843-1.749-.114-3.354,1.175-5.028,4.042-5.248,3.937-10.319-.159-13.673-4.06-3.323-8.316-3.392-12.31.2-3.892,3.5-4.07,8.211-.269,13.255,1.233,1.638,2.093,3.152,1.407,5.03-.785,2.15-2.855,1.19-4.318,1.192q-71.965.088-143.93.007c-1.5,0-3.529.878-4.414-1.1-1.137-2.54.784-4.113,2.162-5.942,2.625-3.484,2.839-7.358.368-10.961a8.526,8.526,0,0,0-9.722-3.768,8.964,8.964,0,0,0-7.087,8.394,9.1,9.1,0,0,0,3.24,7.713,4.009,4.009,0,0,1,.962,4.535c-.6,1.9-2.441,1.115-3.733,1.126-8.892.074-17.787-.1-26.674.109-3.474.083-4.662-.931-4.59-4.506.21-10.542.073-21.091.073-31.638,0-50.664.08-101.329-.12-151.994-.02-5.223,1.467-6.473,6.558-6.444C-1105.84,90.738-1067.583,90.64-1029.325,90.64Z" transform="translate(1188.942 -24.04)" fill="#fff"/>
        <path id="Path_1964" data-name="Path 1964" d="M-1025.56,269.1c44.459,0,88.918.079,133.378-.114,4.918-.021,6.827.812,6.617,6.255-.455,11.769-.464,23.581,0,35.349.217,5.467-1.71,6.294-6.622,6.284q-110.734-.233-221.468-.108c-15.3,0-30.608-.156-45.905.1-4.4.073-6.139-.736-5.978-5.663q.594-18.282,0-36.592c-.165-4.961,1.631-5.618,5.98-5.6C-1114.892,269.156-1070.227,269.1-1025.56,269.1Z" transform="translate(1185.339 19.128)" fill="#dedede"/>
        <path id="Path_1965" data-name="Path 1965" d="M-1027.821,100.809c-41.166,0-82.332-.067-123.5.093-4.625.017-6.458-.827-6.348-6.016.356-16.954.262-33.923.04-50.884-.053-4.077,1.134-5.146,5.169-5.14q125.05.17,250.1-.01c4.209-.006,5.1,1.34,5.057,5.251-.195,16.754-.279,33.515.036,50.265.1,5.076-1.165,6.6-6.435,6.567C-945.075,100.707-986.449,100.809-1027.821,100.809Z" transform="translate(1187.244 -36.538)" fill="#dedede"/>
        <path id="Path_1966" data-name="Path 1966" d="M-1164.093,271.37a11.42,11.42,0,0,1,.591-1.192c5.493-6.92,8.95-17.7,16.524-20.153,9.744-3.159,21.27-.754,32.025-.905,2.815-.04,2.88,1.487,2.851,3.526-.061,4.137.135,8.283-.061,12.413-.178,3.754,2.135,4.725,5.044,4.7,2.727-.026,4.84-1.221,4.522-4.554a9.852,9.852,0,0,1,0-1.241c.141-4.718-1.515-11.053.894-13.736,2.88-3.207,9.351-1,14.249-1.013,43.865-.087,87.731.077,131.594-.207,5.673-.036,7.23,1.58,6.557,6.842-.39,3.054.078,6.207-.106,9.3-.227,3.8,2.182,4.661,5.081,4.619,2.671-.04,4.943-1.012,4.522-4.455a8.621,8.621,0,0,1,0-1.241c.113-4.729-1.613-11.189.8-13.758,3.173-3.377,9.823-.3,14.819-1.228,15.064-2.8,25.677,2.694,32.387,16.328.954,1.937,2.545,3.562,4.3,5.957Z" transform="translate(1185.691 14.143)" fill="#dedede"/>
        <path id="Path_1967" data-name="Path 1967" d="M-1156.419,431.314q0,57.416.009,114.833c0,3.271.808,6.91-4.676,6.157-4.533-.622-10.719,1.971-10.88-6.2-.02-1.035-.008-2.069-.008-3.1q0-108.624-.015-217.249c0-3.723-.923-7.672,5.284-7.077,2.507.24,2.851-2.563,2.845-4.686-.006-2.581-.277-4.831,3.667-4.785,4.349.05,3.775,2.745,3.775,5.422Q-1156.42,372.967-1156.419,431.314Z" transform="translate(1183.769 28.855)" fill="#016adb"/>
        <path id="Path_1968" data-name="Path 1968" d="M-930.547,434.657q0,53.942-.005,107.883c0,8.9-5.9,12.935-14.09,9.779a2.128,2.128,0,0,1-1.567-2.252c-.019-1.241-.017-2.48-.017-3.721q0-115.322.061-230.646c0-2.052-1.417-5.15,1.361-6.014,2.661-.827,6.632-1.747,6.119,3.672-.355,3.743.832,6.029,5.12,5.651,3.8-.335,2.989,2.565,3,4.666.042,15.294.024,30.588.024,45.882Z" transform="translate(1238.318 28.821)" fill="#016adb"/>
        <path id="Path_1969" data-name="Path 1969" d="M-1149.334,187.343c0,30.593-.13,61.187.128,91.777.043,5.069-1.615,6.9-6.219,5.838-3.511-.811-10.119,3.559-9.388-5.128.051-.616.006-1.241.006-1.86q0-86.817-.01-173.636c0-3.875-.964-8.246,5.556-7.269,1.841.276,3.189-1.438,3.254-3.132.127-3.307,1.975-3.654,4.532-3.267,3.291.5,2.088,3.12,2.091,4.9Q-1149.281,141.453-1149.334,187.343Z" transform="translate(1185.503 -24.036)" fill="#016adb"/>
        <path id="Path_1970" data-name="Path 1970" d="M-946.242,73.3c0-9.5-.105-19,.08-28.491.042-2.184-1.8-6.111,2.971-5.761,4.348.319,10-2.343,12.082,4.27a18.7,18.7,0,0,1,.53,5.5c.036,17.549-.1,35.1.107,52.647.051,4.291-.615,6.259-5.629,6.1-10.13-.329-10.14-.014-10.14-10.1Z" transform="translate(1238.33 -36.555)" fill="#016adb"/>
        <path id="Path_1971" data-name="Path 1971" d="M-1156.427,73.183c0,9.688-.23,19.385.1,29.061.153,4.431-1.309,5.516-5.556,5.433-10.1-.2-10.105.019-10.105-10.138,0-16.49-.037-32.981.016-49.471.025-7.78,6.984-12.03,14.084-8.81,2.174.987,1.407,2.768,1.418,4.241C-1156.39,53.394-1156.427,63.289-1156.427,73.183Z" transform="translate(1183.779 -36.702)" fill="#016adb"/>
        <path id="Path_1972" data-name="Path 1972" d="M-1164.319,297.943c0,7.636-.21,15.281.083,22.905.159,4.121-.743,5.89-5.341,5.708-12-.476-10.093,1.416-10.193-10.155-.12-13.827.135-27.658-.121-41.482-.083-4.455.934-6.7,5.765-5.832a9.233,9.233,0,0,0,3.087,0c5.275-.878,7.31.856,6.862,6.575C-1164.756,283.05-1164.319,290.514-1164.319,297.943Z" transform="translate(1181.868 19.102)" fill="#016adb"/>
        <path id="Path_1973" data-name="Path 1973" d="M-923.123,298.168c0,7.836-.2,15.679.085,23.505.138,3.826-1.047,4.879-4.856,4.873-10.439-.019-10.439.171-10.439-10.326,0-13.816.21-27.637-.118-41.446-.109-4.641,1.135-6.5,5.777-5.679a7.625,7.625,0,0,0,2.469,0c5.369-.841,7.687.837,7.22,6.811C-923.562,283.286-923.123,290.744-923.123,298.168Z" transform="translate(1240.269 19.106)" fill="#016adb"/>
        <path id="Path_1974" data-name="Path 1974" d="M-1147.476,249.009c-5.625,7.556-10.562,14.267-15.6,20.9-1.054,1.388-12.994,2.458-14.164,1.443-1.324-1.149.122-1.721.606-2.4,4.2-5.834,8.588-11.535,12.584-17.5,1.736-2.591,3.934-2.491,6.407-2.456C-1154.635,249.041-1151.623,249.009-1147.476,249.009Z" transform="translate(1182.378 14.291)" fill="#016adb"/>
        <path id="Path_1975" data-name="Path 1975" d="M-933.65,253.992a128.925,128.925,0,0,0,12.185,16.347c-8.167,3.094-13.672,1.76-18.369-4.488-3.939-5.24-7.85-10.5-12.406-16.6C-945.078,249.6-938.091,246.249-933.65,253.992Z" transform="translate(1236.936 14.251)" fill="#016adb"/>
        <path id="Path_1976" data-name="Path 1976" d="M-1109.931,238.363c-.637,4.181-3,6.916-7.353,6.763-3.976-.139-6.674-2.695-6.711-6.743-.04-4.291,2.613-7.111,6.917-7.171C-1112.706,231.15-1110.493,234.076-1109.931,238.363Z" transform="translate(1195.39 9.991)" fill="#fa5784"/>
        <path id="Path_1977" data-name="Path 1977" d="M-985.914,245.185c-4.144-.3-6.968-2.5-7.012-6.823-.042-4.225,2.589-7.022,6.84-7.169,4.344-.152,6.988,2.676,7.122,6.84C-978.825,242.272-981.445,244.747-985.914,245.185Z" transform="translate(1227.094 9.985)" fill="#f8dd80"/>
        <path id="Path_1978" data-name="Path 1978" d="M-1120.285,256.077c0-2.868-.022-5.736.009-8.605.019-1.737.262-3.388,2.6-3.3,1.9.073,2.3,1.412,2.3,2.969q.021,9.221,0,18.44c0,1.556-.393,2.907-2.286,2.994-2.325.107-2.6-1.536-2.612-3.282C-1120.3,262.224-1120.285,259.15-1120.285,256.077Z" transform="translate(1196.286 13.126)" fill="#1c1c5d"/>
        <path id="Path_1979" data-name="Path 1979" d="M-984.4,256c0,3.072.027,6.146,0,9.22-.019,1.723-.228,3.4-2.555,3.356-1.9-.034-2.34-1.349-2.343-2.92q-.024-9.221-.006-18.441c0-1.531.315-2.925,2.229-3.041,2.309-.14,2.658,1.441,2.671,3.22C-984.39,250.264-984.406,253.132-984.4,256Z" transform="translate(1227.966 13.125)" fill="#1d1e5e"/>
        <path id="Path_1980" data-name="Path 1980" d="M-1096.911,465.571c-8.529-2.18-14.1-8.413-14.169-17.143-.2-26.651-.253-53.307.009-79.958.1-10.36,8.168-18.088,19-18.155q52.685-.326,105.372.027c11.4.084,19.073,7.977,19.169,19.3.216,25.825.169,51.654.025,77.479-.053,9.636-5.364,16.162-14.222,18.441-1.683.149-3.888,1.768-4.349-1.541.266-.313.493-.765.842-.887,12-4.193,13.878-13.5,13.621-24.8-.489-21.475-.1-42.968-.159-64.454-.04-13.339-5.881-19.386-19.264-19.449q-48.962-.231-97.924,0c-11.758.051-17.8,6.283-17.866,18.19-.122,23.345.135,46.691-.119,70.034-.1,9.523,2.9,16.528,12.347,19.834a4.978,4.978,0,0,1,1.957,1.493C-1092.957,467.484-1095.272,465.621-1096.911,465.571Z" transform="translate(1198.473 38.761)" fill="#1b0d36"/>
        <path id="Path_1981" data-name="Path 1981" d="M-1099.7,443.786c1.439-.286,3.074.089,4.2-1.239,2.165-2.533,5.186-2.265,8.014-2.273q45.38-.125,90.762,0c2.829.007,5.85-.261,8.015,2.271,1.12,1.344,2.753.946,4.187,1.231-1.782,1.479-3.924,1.023-5.941,1.025q-51.656.039-103.31-.005C-1095.777,444.795-1097.927,445.281-1099.7,443.786Z" transform="translate(1201.266 60.546)" fill="#241444"/>
        <ellipse id="Ellipse_44" data-name="Ellipse 44" cx="54.825" cy="0.787" rx="54.825" ry="0.787" transform="translate(105.11 539.504)" fill="#1e1139"/>
        <ellipse id="Ellipse_45" data-name="Ellipse 45" cx="54.569" cy="0.657" rx="54.569" ry="0.657" transform="translate(105.248 551.536)" fill="#100830"/>
        <path id="Path_1982" data-name="Path 1982" d="M-984.25,468.853l14.516,18.791-1.921,1.484-14.534-18.884Z" transform="translate(1228.724 67.474)" fill="#311840"/>
        <path id="Path_1983" data-name="Path 1983" d="M-954.117,321.812c-.046,2.182-1.2,3.384-2.925,3.646-2.063.312-3.7-.606-3.794-2.93a3.122,3.122,0,0,1,2.735-3.522C-955.821,318.655-954.865,320.257-954.117,321.812Z" transform="translate(1234.855 31.216)" fill="#2c153e"/>
        <path id="Path_1984" data-name="Path 1984" d="M-1147.328,325.516c-2.244.042-3.726-1.084-3.714-3.141a3.222,3.222,0,0,1,3.444-3.414,3.2,3.2,0,0,1,3.251,2.979C-1143.976,324.193-1145.343,325.214-1147.328,325.516Z" transform="translate(1188.848 31.217)" fill="#381a45"/>
        <path id="Path_1985" data-name="Path 1985" d="M-987.505,475.96c3.724,2.828,6.735,5.992,7.91,10.534C-983.245,483.7-986.156,480.335-987.505,475.96Z" transform="translate(1228.406 69.193)" fill="#381a44"/>
        <path id="Path_1986" data-name="Path 1986" d="M-957.863,492.659a3.031,3.031,0,0,1,2.952,3.194,3.013,3.013,0,0,1-3.455,3.281,2.955,2.955,0,0,1-2.978-3.163C-961.419,493.674-959.913,492.852-957.863,492.659Z" transform="translate(1234.733 73.233)" fill="#2b153e"/>
        <path id="Path_1987" data-name="Path 1987" d="M-1147.952,499.159a3,3,0,0,1-3.39-2.743c-.312-2.153.693-3.579,2.889-3.7a2.9,2.9,0,0,1,3.392,2.663C-1144.794,497.573-1145.934,498.739-1147.952,499.159Z" transform="translate(1188.761 73.244)" fill="#221038"/>
        <path id="Path_1988" data-name="Path 1988" d="M-978,470.1c2.941.678,4.517,2.408,4.816,6.011C-976.323,474.709-977.286,472.515-978,470.1Z" transform="translate(1230.704 67.776)" fill="#341943"/>
        <path id="Path_1989" data-name="Path 1989" d="M-1036.525,104.976c26.461.206,52.9.733,79.1,5.077,8.333,1.381,14.288,5.815,16.272,14.084,8.7,36.232,10.875,72.561,1.768,109.176-2.794,11.235-9.448,16.6-20.469,18.286-30.206,4.625-60.594,4.124-90.978,3.584-19.429-.345-38.813-1.568-58.019-4.8-8.59-1.444-14.384-6.144-16.418-14.715-8.453-35.635-10.634-71.412-1.937-107.361,3.187-13.175,7.98-17.408,21.406-19.48C-1082.829,105.279-1059.7,104.8-1036.525,104.976Z" transform="translate(1193.271 -20.551)" fill="#120a35"/>
        <path id="Path_1990" data-name="Path 1990" d="M-981.486,230.473c8.436-2.956,13.031-9.01,14.653-17.625C-964.35,221.338-971.716,230.236-981.486,230.473Z" transform="translate(1229.861 5.549)" fill="#301641"/>
        <path id="Path_1991" data-name="Path 1991" d="M-1134.627,121.023a15.018,15.018,0,0,1,15.147-17.7C-1127.96,106.276-1132.774,112.376-1134.627,121.023Z" transform="translate(1192.764 -20.943)" fill="#2e173f"/>
        <path id="Path_1992" data-name="Path 1992" d="M-1133.912,212.915c2.349,8.123,6.4,14.757,15.118,17.329C-1127.632,231.289-1134.917,222.936-1133.912,212.915Z" transform="translate(1192.969 5.566)" fill="#27133b"/>
        <path id="Path_1993" data-name="Path 1993" d="M-982.419,103.23c10.277,1.234,15.346,7.2,15.349,17.44C-969.991,112.891-973.717,105.832-982.419,103.23Z" transform="translate(1229.636 -20.966)" fill="#27133b"/>
        <path id="Path_1994" data-name="Path 1994" d="M-1042.016,303.168c-6.085-4.8-7.422-4.473-9.217,1.8-4.013.754-3.777-11.854-11.069-2.307,2.94-4.919,2.3-8.73-.589-12.127,3.389-1.961,3.21,5.833,6.829,1.783,1.277-1.428,1.865-2.728.678-4.907-1.741-3.2-3.63-.862-6.469-.391,2.442-3,2.26-5.6.532-8.755,3.687,3.857,5.274-.071,7.339-1.331,1.3,1.6.353,2.653-.469,3.462-1.724,1.7-1.462,3.19.1,4.742.687.683,1.3,2.129,2.353,1.407,1.473-1,3.169-2.42,2.636-4.466-.514-1.976-.492-2.659,1.812-2.263,1.458.251,3.026-.907,2.676,2.255-.519,4.7,6.833,5.021,6.51,10.075a9.439,9.439,0,0,0,.143,1.571c-1.961,1.708-2.754-3.6-5.512-.2C-1047.361,297.98-1041.254,299.345-1042.016,303.168Z" transform="translate(1210.17 21.05)" fill="#1e1238"/>
        <path id="Path_1995" data-name="Path 1995" d="M-992.394,51.4l7.612.1c15.891-.881,31.8-.22,47.695-.406,4.624-.055,6.784,2.047,6.668,6.793-.153,6.2-.1,12.4-.016,18.6.053,3.888-1.572,5.8-5.531,5.611-1.237-.058-2.48.01-3.721.01q-92.706,0-185.414,0c-9.615,0-10.16-.565-10.181-10.19-.009-4.548.137-9.1-.03-13.641-.187-5.1,2.405-7.116,7.132-7.172q1.861-.022,3.721-.025,62.012,0,124.024-.012C-997.748,51.071-995.071,51.213-992.394,51.4Z" transform="translate(1192.65 -33.592)" fill="#7673fe"/>
        <path id="Path_1996" data-name="Path 1996" d="M-992.182,51.593c-1.956,2.351-4.632,1.267-6.958,1.27q-63.279.11-126.56.056c-8.005,0-8.005.014-8.01,8.262,0,4.342.353,8.721-.087,13.019-.571,5.571,1.573,6.956,6.978,6.935,49.838-.194,99.677-.114,149.515-.114,13.235,0,26.477-.261,39.7.127,5.389.159,6.81-1.749,6.45-6.735a112.847,112.847,0,0,1,0-15.5c.305-4.614-1.319-6.166-5.966-6.083-13.643.243-27.3.109-40.944.062-2.212-.009-4.6.61-6.5-1.2,1.983-1.56,4.33-1.131,6.57-1.135,13.856-.027,27.713.1,41.566-.073,5.43-.07,8.046,1.7,7.664,7.561a144.782,144.782,0,0,0-.006,17.981c.348,5.843-2.2,7.641-7.707,7.46-8.676-.284-17.368-.075-26.054-.075q-82.2,0-164.4,0c-8.368,0-9.2-.837-9.235-9.169-.019-5.17-.045-10.34.006-15.51.071-7.071,1.145-8.167,8.406-8.172,38.877-.03,77.756-.092,116.633.062C-1004.824,50.645-998.39,49.311-992.182,51.593Z" transform="translate(1192.438 -33.78)" fill="#1f133b"/>
        <path id="Path_1997" data-name="Path 1997" d="M-1147.77,42.35c2.13.332,3.359,1.617,3.276,3.688a3.1,3.1,0,0,1-3.045,3.209,3.27,3.27,0,0,1-3.626-3.29C-1151.274,43.81-1149.749,42.769-1147.77,42.35Z" transform="translate(1188.816 -35.692)" fill="#37244a"/>
        <path id="Path_1998" data-name="Path 1998" d="M-954.1,46.164c-.574,1.991-1.853,3.332-3.975,3.075a3.216,3.216,0,0,1-2.983-3.382c.089-2.065,1.438-3.606,3.564-3.429A3.554,3.554,0,0,1-954.1,46.164Z" transform="translate(1234.803 -35.677)" fill="#3e2a4e"/>
        <path id="Path_1999" data-name="Path 1999" d="M-1143.6,79.343l-7.228-9.692,1.78-1.376,7.342,9.606Z" transform="translate(1188.9 -29.421)" fill="#3b274c"/>
        <path id="Path_2000" data-name="Path 2000" d="M-1144.782,84.43c-3.244-2.047-5.677-4.55-6.469-8.316A13.806,13.806,0,0,1-1144.782,84.43Z" transform="translate(1188.797 -27.525)" fill="#3a264b"/>
        <path id="Path_2001" data-name="Path 2001" d="M-1019.147,253.068c3.1,0,6.294-.482,9.273.115a8.059,8.059,0,0,1,6.895,8.333c.076,4.67-3.87,4.272-6.693,4.671a70.2,70.2,0,0,1-19.172.041c-2.906-.389-6.771-.229-6.541-4.826.219-4.379,2.563-7.533,6.952-8.278,3.013-.512,6.185-.1,9.284-.1Z" transform="translate(1216.821 15.23)" fill="#251239"/>
        <path id="Path_2002" data-name="Path 2002" d="M-1085.828,266.707a26.489,26.489,0,0,1-3.69-.029c-3.154-.448-7.254-.1-7.441-4.619a8.215,8.215,0,0,1,6.426-8.706,21.833,21.833,0,0,1,10.993,0,8.036,8.036,0,0,1,6.274,8.768c-.266,4.215-4.127,3.939-7.032,4.435a33.373,33.373,0,0,1-5.53.056Z" transform="translate(1201.927 15.178)" fill="#271b3b"/>
        <path id="Path_2003" data-name="Path 2003" d="M-986.389,463.846H-1093.18c-11.247-1.935-16.081-7.59-16.092-18.97q-.036-36.9,0-73.789c.014-12.548,6.469-18.915,19.162-18.921q50.225-.026,100.452,0c12.956.007,19.278,6.4,19.285,19.439q.017,36.584,0,73.17C-970.383,456.155-975.155,461.8-986.389,463.846Z" transform="translate(1198.947 39.246)" fill="#7774fe"/>
        <path id="Path_2004" data-name="Path 2004" d="M-1029.072,252.334a491.822,491.822,0,0,1-52.56-1.367,280.105,280.105,0,0,1-29.281-3.809c-7.133-1.275-11.405-6.192-13.075-13.3-6.033-25.67-7.429-51.75-6.083-77.946.567-11.033,3.05-21.926,5.847-32.679,1.971-7.579,7.9-10.438,14.465-11.885a167.169,167.169,0,0,1,21.317-2.967c23.271-2.047,46.611-1.305,69.924-1.257a396.571,396.571,0,0,1,62.01,5.037c6.455,1.036,10.714,5.6,12.333,11.717a237.048,237.048,0,0,1,7.393,75.254,156.888,156.888,0,0,1-6.368,36.329c-2.009,6.587-6.3,10.713-13.345,12.193-20.693,4.347-41.638,4.892-62.655,4.683C-1022.457,252.305-1025.765,252.334-1029.072,252.334Z" transform="translate(1193.806 -20.065)" fill="#00061c"/>
        <path id="Path_2005" data-name="Path 2005" d="M-1049.292,283.792c1.359,1.216,3.244,2.466,2.931,4.268-.268,1.542-1.437,3.876-3.377,3.63a3.828,3.828,0,0,1-3.012-4.013A4.565,4.565,0,0,1-1049.292,283.792Z" transform="translate(1212.62 22.71)" fill="#efadc7"/>
        <path id="Path_2006" data-name="Path 2006" d="M-1050.433,293.371c-1.069,1.453-1.539,4.005-3.512,3.82-1.678-.158-3.205-2.3-3.117-4.014.082-1.608,1.531-3.8,3.265-3.759C-1052.005,289.465-1051.194,291.692-1050.433,293.371Z" transform="translate(1211.58 24.071)" fill="#feb7d1"/>
        <path id="Path_2007" data-name="Path 2007" d="M-964.7,68.012c-5.59,6.563-6.982,7.053-11.855,1.628-4.171-4.646-7.837-4.914-12.481-1.407-.975.736-2.289,1.032-3.239,1.791-7.805,6.233-15.406,6.707-22.679-.777-3.077-3.166-5.262-1.19-7.835.821-8.238,6.437-8.69,6.844-16.665.034-9.757-8.333-19.3-13.677-31.338-4.506a2.223,2.223,0,0,1-3.522-.541c5.627-3.446,11.829-5.442,17.769-7.964,2.271-.965,3.895.686,5.55,1.9,5.491,4.02,11.086,7.908,16.425,12.121,2.592,2.044,4.626,2.268,6.857-.221.405-.452,1.056-.683,1.464-1.134,5.029-5.55,10.144-5.94,15.577-.5,4.248,4.255,8.8,4.462,13.606.73,1.449-1.126,3.312-1.71,4.812-2.784,6.511-4.665,12.608-6.177,18.127,1.539C-971.107,72.968-968.459,67.985-964.7,68.012Z" transform="translate(1207.406 -32.197)" fill="#150f3d"/>
        <path id="Path_2008" data-name="Path 2008" d="M-1069.271,69.554c-4.088,3.03-9.146,4.147-13.681,6.281-2.444,1.15-3.291-.794-3.764-2.716-1.172-4.751-3.32-5.454-7.167-2.234-1.806,1.511-4.125,4.281-6.211,3.318-2.767-1.277-1.027-4.837-1.288-7.389-.227-2.239-.047-4.52-.047-8.168l-18.88,14.9c-1.369-2.547.328-3.144,1.292-3.926,5.452-4.42,10.964-8.765,16.429-13.169,2.383-1.921,3.645-1.646,3.626,1.653-.024,4.062-.006,8.123-.006,12.051,1.962.568,2.877-.474,3.78-1.188,4.491-3.552,8.616-6.2,10.294,2.417.431,2.209,1.962,2.042,3.767,1.233,3.676-1.645,7.448-3.081,11.178-4.6Z" transform="translate(1196.157 -32.57)" fill="#160f3e"/>
        <path id="Path_2009" data-name="Path 2009" d="M-1020.177,263.446c-2.874,0-5.762.175-8.616-.063-1.872-.155-4.555.149-4.516-2.892.035-2.719,1.573-5.114,4.257-5.277a162.785,162.785,0,0,1,18.438-.05,4.943,4.943,0,0,1,4.566,5.053c.15,3.5-2.957,2.947-4.9,3.174a80.443,80.443,0,0,1-9.227.093Z" transform="translate(1217.326 15.728)" fill="#fc5885"/>
        <path id="Path_2010" data-name="Path 2010" d="M-1086.173,263.687a30.374,30.374,0,0,1-3.685-.027c-2.094-.257-5.093.39-5.166-2.833a5.3,5.3,0,0,1,4.175-5.461,35.057,35.057,0,0,1,10.365-.119,5.1,5.1,0,0,1,4.262,5.323c-.025,3.28-2.952,2.781-5.04,3.04a39.964,39.964,0,0,1-4.911.04Z" transform="translate(1202.398 15.726)" fill="#fbe181"/>
        <path id="Path_2011" data-name="Path 2011" d="M-1089.4,395.73c0-8.878.133-17.759-.056-26.634-.086-4,1.387-5.381,5.4-5.5,13.291-.385,13.287-.519,13.287,12.63,0,15.072-.179,30.147.094,45.215.1,5.449-1.867,7.264-7.218,7.163-13.143-.248-11.439.571-11.5-11.2C-1089.43,410.183-1089.4,402.957-1089.4,395.73Z" transform="translate(1203.745 41.987)" fill="#1a153c"/>
        <path id="Path_2012" data-name="Path 2012" d="M-1013.6,395.7c0,9.079-.109,18.16.046,27.237.066,3.934-1.431,5.448-5.415,5.618-13.247.566-13.242.685-13.242-12.728,0-15.27.148-30.543-.086-45.81-.075-4.9,1.69-6.527,6.49-6.431,14.129.283,12.064-1.152,12.2,12.3C-1013.542,382.5-1013.6,389.1-1013.6,395.7Z" transform="translate(1217.57 42.011)" fill="#18123b"/>
        <path id="Path_2013" data-name="Path 2013" d="M-1042.35,396.428c-.005,8.881-.1,17.763.04,26.641.066,3.97-1.52,5.39-5.49,5.53-13.169.462-13.164.587-13.165-12.859,0-14.663.21-29.331-.1-43.988-.125-5.936,1.333-8.558,7.913-8.225,11.927.6,10.747-1.207,10.8,11.216C-1042.317,381.972-1042.345,389.2-1042.35,396.428Z" transform="translate(1210.61 41.99)" fill="#181242"/>
        <path id="Path_2014" data-name="Path 2014" d="M-1023.363,435.591c-2.459-.646-5.987,1.453-8.1-2.037-2.837-4.683-.081-9.607,5.457-9.792,1.651-.055,3.309.07,4.954-.024,4.313-.247,7.646.06,7.655,5.97.01,6.019-3.523,6.078-7.728,5.887C-1021.745,435.566-1022.366,435.591-1023.363,435.591Z" transform="translate(1217.499 56.548)" fill="#1f113d"/>
        <path id="Path_2015" data-name="Path 2015" d="M-1081,435.607c-2.783-.869-7.9,2.194-8.432-4.486-.41-5.1.966-8.052,6.729-7.4a31.23,31.23,0,0,0,5.569.012c4.416-.288,6.409,1.6,6.439,6.129.03,4.846-2.581,6.033-6.716,5.75C-1078.438,435.547-1079.474,435.607-1081,435.607Z" transform="translate(1203.735 56.536)" fill="#20173c"/>
        <path id="Path_2016" data-name="Path 2016" d="M-1050.973,423.75c2.546.678,6.472-1.648,8.272,2.618,2.259,5.35-.34,9.12-6.259,9.225-1.644.03-3.3-.1-4.933.025-4.365.335-7.148-.847-7.138-5.973.01-5.149,2.855-6.273,7.179-5.9C-1053.035,423.81-1052.208,423.75-1050.973,423.75Z" transform="translate(1210.62 56.546)" fill="#171840"/>
        <path id="Path_2017" data-name="Path 2017" d="M-1103.1,368.821c-1.145-7.66,2.012-10.947,9.968-10.549C-1098.2,360.161-1102.372,362.85-1103.1,368.821Z" transform="translate(1200.388 40.718)" fill="#1b164a"/>
        <path id="Path_2018" data-name="Path 2018" d="M-1012.118,438.21c5.638-1.241,8.819-4.707,9.976-10.639C-999.582,434.562-1004.2,439.41-1012.118,438.21Z" transform="translate(1222.452 57.488)" fill="#1b1548"/>
        <path id="Path_2019" data-name="Path 2019" d="M-1072.538,158.121c3.547-5.785,4.17-10.793,5.439-15.478,1.648-6.084,6.11-4.135,9.925-4.592,4.042-.484,5.445,1.876,6.306,5.208a76.131,76.131,0,0,0,5.5,15.717c0-5.4.132-10.806-.048-16.2-.114-3.434,1.1-4.918,4.645-4.735,5.332.273,11.876-1.934,11.624,7.687,3.891-2.494,2.484-7.818,7.989-7.83,10.561-.025,10.561-.469,10.561,10.057,0,3.1.01,6.2,0,9.307-.025,6.778-2.414,9.395-8.4,6.51-5.063-2.442-10.854,4.672-14.621-2.176-5.15,5.334-11.636,1.566-17.444,2.434-2.326.348-5.343,1.292-7.017-2.172-.877-1.812-1.781.047-2.735.632-3.867,2.37-8.128,3.163-11.648-.114-2.486-2.314-3.228.457-4.547.907-5.827,1.99-11.162,1.088-15.708-2.709-3.842-3.21-4.375-8.07-3.236-12.559,1.376-5.426,5.538-8.527,10.978-9.759,3.953-.9,7.277.811,10.515,2.737.936.556,1.962,1.864,1.326,2.471C-1078.194,148.289-1071.815,152.23-1072.538,158.121Z" transform="translate(1202.046 -12.582)" fill="#120a33"/>
        <path id="Path_2020" data-name="Path 2020" d="M-1045.075,176.283c-1.559,5.264-3.342,10.477-4.605,15.811-1.01,4.262-3.953,4.03-7.1,3.883-3.351-.156-7.243,1.078-8.466-3.911-1.174-4.785-2.709-9.483-3.871-14.271-.551-2.269-3.143-5.843,1.2-6.381,3.434-.425,8.663-2.807,10.093,3.618a9.1,9.1,0,0,0,1,1.678c-.351-4.564,1.565-5.839,5.416-5.69,7.214.278,14.451.238,21.667.015,3.875-.119,5.739.938,5.481,5.175a43.307,43.307,0,0,0,1.012,13.479c1,3.942-.08,6.393-5.262,6.411-15.686.053-15.685.277-15.725-15.334,0-1.437,0-2.874,0-4.311Z" transform="translate(1208.356 -4.662)" fill="#120a31"/>
        <path id="Path_2021" data-name="Path 2021" d="M-1015.951,164.142c-11.9-.164-10.406,1.524-10.316-10.6.134-17.911-2.953-15.118,15.722-15.568,4.576-.111,6.168,1.817,5.236,5.81a30.341,30.341,0,0,0,0,14.521c.939,3.829-.36,6.455-5.093,5.872A45.372,45.372,0,0,0-1015.951,164.142Z" transform="translate(1219.001 -12.563)" fill="#150e34"/>
        <path id="Path_2022" data-name="Path 2022" d="M-1031.337,183.26c.382-14.025-3.07-12.188,13.118-12.183,6.586,0,10.95,5.679,8.727,11.677-1.251,3.375-1.052,5.663,1.1,8.413,2.834,3.623,1.215,5.062-2.906,4.729-2.663-.215-5.329-.481-8-.537C-1031.331,195.112-1031.331,195.137-1031.337,183.26Z" transform="translate(1217.787 -4.574)" fill="#1e1536"/>
        <path id="Path_2023" data-name="Path 2023" d="M-1078.733,195.885c-8.1-.024-14.673-5.7-14.575-12.6.1-7.02,6.125-12.3,14-12.272,9.3.034,14.7,4.543,14.556,12.151C-1064.907,191.466-1069.791,195.911-1078.733,195.885Z" transform="translate(1202.813 -4.57)" fill="#191035"/>
        <path id="Path_2024" data-name="Path 2024" d="M-1073.7,395.965c0,8.449-.168,16.9.078,25.343.1,3.589-1.1,4.558-4.561,4.458-11.562-.332-9.184,1.13-9.287-8.912-.159-15.453.252-30.917-.185-46.36-.176-6.259,3.476-5.163,7.093-5.2,3.724-.036,7.4-.848,7,5.33C-1074.1,379.041-1073.7,387.516-1073.7,395.965Z" transform="translate(1204.179 42.412)" fill="#bdfb95"/>
        <path id="Path_2025" data-name="Path 2025" d="M-1030.287,395.314c0-8.454.288-16.92-.1-25.356-.281-6.167,3.878-4.56,7.02-4.578s7.085-1.629,6.967,4.547c-.329,17.106-.2,34.224-.045,51.335.031,3.428-.883,4.544-4.442,4.554-9.4.027-9.4.214-9.4-9.473Q-1030.289,405.829-1030.287,395.314Z" transform="translate(1218.03 42.396)" fill="#befc96"/>
        <path id="Path_2026" data-name="Path 2026" d="M-1044.866,395.31c0,8.46-.193,16.924.082,25.375.135,4.155-1.341,5.264-5.337,5.113-10.351-.39-8.77,1.159-8.833-8.93-.1-15.473.237-30.954-.151-46.418-.158-6.269,3.649-5.091,7.218-5.156,3.709-.067,7.485-.89,7.137,5.264C-1045.216,378.784-1044.865,387.057-1044.866,395.31Z" transform="translate(1211.085 42.407)" fill="#bbf894"/>
        <path id="Path_2027" data-name="Path 2027" d="M-1023.275,425.513c2.135,1.4,6.561-2.2,6.78,3.507.225,5.832-4.1,3.982-6.9,3.967s-7.184,1.886-6.927-3.944C-1030.076,423.484-1025.746,426.731-1023.275,425.513Z" transform="translate(1218.046 56.991)" fill="#f37ba9"/>
        <path id="Path_2028" data-name="Path 2028" d="M-1080.851,425.532c2.57,1.162,7.323-2.177,7.154,3.95-.149,5.361-4.241,3.5-6.84,3.465-2.73-.042-7.148,2.143-7.05-3.8C-1087.493,423.421-1083.111,426.733-1080.851,425.532Z" transform="translate(1204.196 56.995)" fill="#f3da7f"/>
        <path id="Path_2029" data-name="Path 2029" d="M-1051.865,433.231c-2.736-.72-7.261,1.75-7.141-4.044.113-5.449,4.384-3.332,6.9-3.285,2.681.05,7.327-2.33,7.194,3.614C-1045.023,434.751-1049.166,432.6-1051.865,433.231Z" transform="translate(1211.11 56.978)" fill="#4ee1c8"/>
        <path id="Path_2030" data-name="Path 2030" d="M-1029.626,148.825c-3.482,2.664-3.963,6.09-4.948,9.265-.622,2-1.39,3.184-3.767,3.214s-3.12-1.066-3.777-3.115c-1.017-3.171-1.426-6.657-4.915-9.287,0,3.131-.127,6.268.038,9.39.134,2.517-.95,3.118-3.274,3.128-2.445.01-3.252-.907-3.178-3.264.123-3.922-.242-7.876.134-11.764.209-2.16-2.129-5.945,2.532-6.16,3.88-.179,8.468-1.534,9.325,4.868.333,2.48.828,5.259,2.953,7.645,2.884-2.329,2.973-5.9,3.611-8.81,1.315-6.007,5.725-3.379,8.916-3.676,3.972-.368,2.456,2.993,2.545,4.874.2,4.329-.027,8.677.1,13.013.066,2.334-.658,3.286-3.14,3.28-2.413-.007-3.308-.8-3.19-3.213C-1029.512,155.092-1029.626,151.956-1029.626,148.825Z" transform="translate(1212.39 -12.087)" fill="#fce282"/>
        <path id="Path_2031" data-name="Path 2031" d="M-1053.52,160.868c-3.219.2-5.883,1.458-8.033-1.9-1.176-1.837-4.563-1.731-5.455-.142-2.172,3.871-5.032,2.25-8.241,2.219,1.731-6.044,3.541-11.682,4.92-17.424.858-3.574,3.164-3.568,5.995-3.553,2.8.014,5.105-.086,5.95,3.539C-1057.048,149.337-1055.215,154.95-1053.52,160.868Z" transform="translate(1207.181 -12.056)" fill="#fae081"/>
        <path id="Path_2032" data-name="Path 2032" d="M-1083.18,161.251c-5.237.306-8.89-2.127-10.8-6.695a9.518,9.518,0,0,1,2.053-10.876A11.515,11.515,0,0,1-1078.859,141c1.3.5,3.189.8,2.643,2.582-.487,1.587-1.3,3.546-3.933,2.9a9.117,9.117,0,0,0-4.261,0c-2,.51-2.93,2.253-3.064,4.2a3.92,3.92,0,0,0,2.422,3.963c1.407.594,3.241,1.408,4.229-.76,1.364-3,3.991-2.732,5.273-.9a4.625,4.625,0,0,1-1.276,6.55A10.4,10.4,0,0,1-1083.18,161.251Z" transform="translate(1202.441 -12.062)" fill="#fbe181"/>
        <path id="Path_2033" data-name="Path 2033" d="M-1058.62,186.6c3.322-3.727,2.72-7.471,3.387-10.745.725-3.567,2.826-3.5,5.349-3.224,4.054.445,1.478,3.2,1.225,4.611-.651,3.621-2.065,7.1-2.851,10.7-.8,3.688-1.715,6.11-6.593,6.15-5.036.041-5.56-2.882-6.45-6.263-.992-3.772-2.042-7.53-3.06-11.295-.464-1.716-1.694-3.841,1.612-3.9,2.144-.041,4.657-.725,5.163,2.745C-1060.326,178.9-1059.472,182.379-1058.62,186.6Z" transform="translate(1208.88 -4.206)" fill="#fae081"/>
        <path id="Path_2034" data-name="Path 2034" d="M-1047.332,182.957c0-10.412,2.839-12.552,13.455-10.216,1.284.283,2.381.532,2.454,2.142.076,1.665-.922,2.1-2.309,2.13a21.808,21.808,0,0,0-2.47.038c-1.66.233-4.275-.929-4.476,1.824-.222,3.066,2.553,1.72,4.118,2.068,1.6.356,4.095-.95,4.25,2.071.181,3.543-2.645,2.178-4.42,2.516-1.453.278-3.806-.777-3.972,1.618-.2,2.874,2.336,2.178,4.065,2.283,1.233.074,2.473.031,3.708.046,1.183.015,1.936.479,1.917,1.8s-.2,2.62-1.816,2.66c-4.119.1-8.241.07-12.362.057-2.049-.006-2.142-1.484-2.141-3Q-1047.328,186.975-1047.332,182.957Z" transform="translate(1213.934 -4.359)" fill="#f7dd80"/>
        <path id="Path_2035" data-name="Path 2035" d="M-1024.261,151.013c0-11.984,0-11.984,12.89-10.793,1.334.123,3-.42,3.135,1.859.143,2.391-1.3,2.678-3.133,2.61a21.525,21.525,0,0,0-2.468.014c-1.541.123-3.742-.428-3.719,2.007.021,2.372,2.193,1.765,3.734,2.064,1.687.328,4.791-1.412,4.544,2.178-.225,3.281-3.164,1.591-4.91,1.87-1.454.233-3.21.116-3.38,1.87-.219,2.257,1.674,2.432,3.394,2.455,1.028.014,2.058-.006,3.086.02,1.653.04,3.51-.135,3.316,2.411-.164,2.162-1.878,1.735-3.231,1.816-1.026.061-2.056.016-3.085.019C-1024.261,161.443-1024.261,161.443-1024.261,151.013Z" transform="translate(1219.515 -12.14)" fill="#fadf81"/>
        <path id="Path_2036" data-name="Path 2036" d="M-1010.359,192.761c-8,4.319-8.081-4.158-11.64-6.537-.549.587-.921.821-1.049,1.15-.921,2.368,1.836,7.066-3.789,6.435-5.176-.581-2.031-4.823-2.774-7.337a10.337,10.337,0,0,1-.034-4.292c.457-3.086-1.813-7.646,1.474-8.961,3.788-1.515,8.542-1.144,12.684.478,3.455,1.354,5.077,4.9,3.374,7.485C-1015.186,185.852-1013.133,189.024-1010.359,192.761Z" transform="translate(1218.129 -4.268)" fill="#fbe081"/>
        <path id="Path_2037" data-name="Path 2037" d="M-1067.633,182.9c.093,6.255-4.868,10.83-11.763,10.845s-11.931-4.523-11.9-10.726c.032-5.911,4.823-10.314,11.482-10.551C-1073,172.229-1067.726,176.749-1067.633,182.9Z" transform="translate(1203.301 -4.219)" fill="#fce282"/>
        <path id="Path_2038" data-name="Path 2038" d="M-1080.714,408.166c-3.652-.467-5.736-2.111-5.591-5.572.146-3.484,2.359-4.98,5.68-4.951s4.825,2.286,4.891,5.107C-1075.658,406.034-1077.744,407.862-1080.714,408.166Z" transform="translate(1204.505 50.249)" fill="#272239"/>
        <path id="Path_2039" data-name="Path 2039" d="M-1082.583,394.215V372.438l1.132-.019v21.9Z" transform="translate(1205.407 44.148)" fill="#140e32"/>
        <path id="Path_2040" data-name="Path 2040" d="M-1022.8,408.075c-4.18,0-6.022-2.017-6.144-4.938-.136-3.265,1.722-5.539,5.318-5.464,3.089.063,5.2,1.7,5.3,4.889C-1018.219,406.019-1020.3,407.779-1022.8,408.075Z" transform="translate(1218.38 50.256)" fill="#291e3b"/>
        <path id="Path_2041" data-name="Path 2041" d="M-1024,372.428v21.786l-1.053.034V372.38Z" transform="translate(1219.324 44.138)" fill="#130d31"/>
        <path id="Path_2042" data-name="Path 2042" d="M-1052.343,397.661c2.982.232,5.012,1.629,5.136,4.852.133,3.436-1.674,5.467-5.105,5.5s-5.324-2-5.23-5.4C-1057.453,399.469-1055.475,397.909-1052.343,397.661Z" transform="translate(1211.464 50.254)" fill="#1b1e3c"/>
        <path id="Path_2043" data-name="Path 2043" d="M-1053.887,394.191V372.375l1.21-.041v21.837Z" transform="translate(1212.348 44.127)" fill="#1a1735"/>
        <path id="Path_2044" data-name="Path 2044" d="M-1066.25,145.72c1.428,2.5,3.525,4.806,1.57,7.571-.307.433-2.386.365-2.781-.143C-1069.527,150.493-1066.589,148.306-1066.25,145.72Z" transform="translate(1208.888 -10.688)" fill="#2a1f39"/>
        <path id="Path_2045" data-name="Path 2045" d="M-1019.4,178.058a2.915,2.915,0,0,1-2.747,3.123c-2.122.378-2.295-.991-2.326-2.541s.119-2.851,2.215-2.707A2.79,2.79,0,0,1-1019.4,178.058Z" transform="translate(1219.462 -3.383)" fill="#120932"/>
        <path id="Path_2046" data-name="Path 2046" d="M-1076.129,182.024c-.283,3.082-2.135,4.734-4.9,4.554a4.463,4.463,0,0,1-4.436-4.958c.081-3.095,1.993-4.453,4.83-4.4C-1077.6,177.289-1076.415,179.359-1076.129,182.024Z" transform="translate(1204.71 -3.068)" fill="#201940"/>
        <path id="Path_2047" data-name="Path 2047" d="M-1081.766,399.534a2.735,2.735,0,0,1,3.127,2.877,2.532,2.532,0,0,1-2.589,2.74,2.691,2.691,0,0,1-3.095-2.877C-1084.405,400.51-1083.323,399.794-1081.766,399.534Z" transform="translate(1204.985 50.706)" fill="#f4da7e"/>
        <path id="Path_2048" data-name="Path 2048" d="M-1021.364,403.174c-.176,1.136-1.218,1.934-2.875,1.88s-2.824-1.038-2.758-2.645a2.7,2.7,0,0,1,3.295-2.747C-1022.122,399.869-1021.107,400.819-1021.364,403.174Z" transform="translate(1218.852 50.729)" fill="#f55583"/>
        <path id="Path_2049" data-name="Path 2049" d="M-1052.947,405.15a2.441,2.441,0,0,1-2.632-2.721c.047-1.953,1.193-3.117,3.14-2.874,1.6.2,2.391,1.433,2.311,3.094C-1050.215,404.436-1051.283,405.134-1052.947,405.15Z" transform="translate(1211.939 50.704)" fill="#4ee1c8"/>
      </g>
    </g>
    <rect id="Rectangle_526" data-name="Rectangle 526" width="148" height="96" transform="translate(1517 617)" fill="#00061c"/>
    <g id="Group_269" data-name="Group 269" transform="translate(1565.173 655.333)">
      <g transform="matrix(1, 0, 0, 1, -486.17, -408.47)" filter="url(#Path_444)">
        <path id="Path_444-2" data-name="Path 444" d="M1416.564,1582.16h0q0-3.743,0-7.487a.865.865,0,0,1,.31-.667,10.485,10.485,0,1,1,.1,16.294,1.049,1.049,0,0,1-.393-.815C1416.585,1587.044,1416.564,1584.6,1416.564,1582.16Zm-4.557,2.144a5.957,5.957,0,0,1-.647-.488,15.123,15.123,0,0,0-6.97-3.555c-1.034-.214-1.029-.188-.739-1.193a11.192,11.192,0,0,1,5.908-7.125,15.55,15.55,0,0,1,1.954-.747c.57-.2.67-.123.671.478q.007,3.05,0,6.1h0c0,1.771,0,5.568,0,6.458a.1.1,0,0,1-.157.086Zm-13.63.031a19.031,19.031,0,0,1-.555,2.324s-.006.008-.008.013a11.126,11.126,0,0,1-1.6,2.555,11.254,11.254,0,0,1-7.913,4.12c-.586.054-.732-.16-.727-.731.032-3.53.035-7.06.033-10.59,0-3.514-.01-7.029-.046-10.544-.006-.582.21-.705.729-.674a10.538,10.538,0,0,1,3.4.8c.1.044.229.1.375.169A11.489,11.489,0,0,1,1398.377,1584.334Zm25.112-17.231a14.826,14.826,0,0,0-6.919,1.709q0-.736,0-1.472c0-.59-.175-.855-.78-.906a15.828,15.828,0,0,0-7.082,1.043,15.081,15.081,0,0,0-5.039,3.216,17.1,17.1,0,0,0-1.219,1.3,14.209,14.209,0,0,0-1.21,1.669h0a18.308,18.308,0,0,0-6.125-5.28c-.1-.069-.251-.144-.446-.244q-.76-.389-1.528-.691l-.026-.011h0a15.024,15.024,0,0,0-9.331-.562.687.687,0,0,0-.622.81c.009,5.757-.005,11.514-.009,17.271,0,3.854.006,7.708-.006,11.563,0,.435.078.662.561.794a14.587,14.587,0,0,0,7.494.073,15.468,15.468,0,0,0,7.792-4.572,14.966,14.966,0,0,0,3.829-7.474c.155-.811.177-.851.939-.628a11.031,11.031,0,0,1,8.211,8.92,17.648,17.648,0,0,1,.145,3.289c.014.917.017.854,1.119.863.788.007,1.577.005,2.365,0,.955-.006.975,0,.976-.92q0-.617,0-1.233a.131.131,0,0,1,.19-.117,15.18,15.18,0,0,0,12.12.639,14.279,14.279,0,0,0,8.7-9A15.05,15.05,0,0,0,1423.489,1567.1Z" transform="translate(-896.98 -1131.47)" fill="#fff"/>
      </g>
      <g transform="matrix(1, 0, 0, 1, -486.17, -408.47)" filter="url(#Path_445)">
        <path id="Path_445-2" data-name="Path 445" d="M1123.184,1566.611c1.571,1.3,10.351,10.93,11.815,16.967v-2.807c-.064-11.3,8.929-14.637,14.313-14.866h5.775l7.607.008.03.007c.115.011.245.023.4.036l.131.013.034,0c.03,0,.059.008.091.01l.005.007a18.481,18.481,0,0,1,8.022,2.766q.125.078.255.15c.42.233.84.467,1.239.728l.085.056a.433.433,0,0,1,.149.6l-1.861,3.034a.9.9,0,0,1-1.337.182,13.334,13.334,0,0,0-6.438-2.928h-.385v25.405a1.273,1.273,0,0,1-1.339,1.2l-3.144.015a1.223,1.223,0,0,1-1.287-1.148v-25.452l-2.26-.031-4.4.017a13.422,13.422,0,0,0-2.849.3c-6.237,1.384-7.747,6.476-7.754,7.969v1h9.742a.949.949,0,0,1,1,.891v2.8a.95.95,0,0,1-1,.891l-9.736-.029v11.7a1.175,1.175,0,0,1-1.236,1.1h-.418l-2.187-.03h-.006c-.669,0-.927-.138-1.184-.552-3.672-13.773-9.891-20.847-11.654-22.641a.276.276,0,0,0-.474.162l.131,21.882c0,.781-.309,1.149-1.235,1.149l-2.641.031c-.927,0-1.236-.368-1.236-1.149v-28.95c0-.781.309-1.149,1.236-1.149l2.641-.031S1122.292,1565.872,1123.184,1566.611Z" transform="translate(-631.77 -1157.43)" fill="#fff"/>
      </g>
    </g>
    <g transform="matrix(1, 0, 0, 1, 1079, 246.86)" filter="url(#WELCOME_TO)">
      <path id="WELCOME_TO-2" data-name="WELCOME TO" d="M48.86,33.072l.318,5.006a2.133,2.133,0,0,1-.116.911,1.428,1.428,0,0,1-.468.626,2.127,2.127,0,0,1-.8.362,4.635,4.635,0,0,1-1.1.117,5.086,5.086,0,0,1-1.148-.117,2.584,2.584,0,0,1-.87-.362,1.753,1.753,0,0,1-.57-.626,2.236,2.236,0,0,1-.246-.911L43.5,33.072H40.4l.381,5.006a2.061,2.061,0,0,1-.111.911,1.419,1.419,0,0,1-.476.626,2.186,2.186,0,0,1-.811.362,4.774,4.774,0,0,1-1.119.117,4.991,4.991,0,0,1-1.14-.117,2.5,2.5,0,0,1-.855-.362,1.748,1.748,0,0,1-.558-.626,2.345,2.345,0,0,1-.249-.911l-.421-5.006h-3.1l.449,5.067a3.383,3.383,0,0,0,.525,1.572,3.606,3.606,0,0,0,1.219,1.132,6.2,6.2,0,0,0,1.858.686,12.861,12.861,0,0,0,3.743.163,8.663,8.663,0,0,0,1.115-.193,6.123,6.123,0,0,0,.93-.3,4.244,4.244,0,0,0,.743-.4,4.8,4.8,0,0,0,.8.4,6.962,6.962,0,0,0,.982.3,9.524,9.524,0,0,0,1.154.193,12.325,12.325,0,0,0,1.314.068,11.317,11.317,0,0,0,2.41-.231,5.358,5.358,0,0,0,1.757-.686,2.9,2.9,0,0,0,1.052-1.132,3.043,3.043,0,0,0,.293-1.572l-.3-5.067Zm16.427,6.343a6.687,6.687,0,0,1-.911.324,10.643,10.643,0,0,1-1.066.24c-.374.065-.762.115-1.155.149s-.788.051-1.176.051A12.389,12.389,0,0,1,59.5,40.1a5.015,5.015,0,0,1-1.03-.22,1.635,1.635,0,0,1-.607-.341.649.649,0,0,1-.212-.44.615.615,0,0,1,.141-.432,1.137,1.137,0,0,1,.457-.312A3.151,3.151,0,0,1,59,38.166,7.252,7.252,0,0,1,60.01,38.1h3.819l-.065-1.562H60.127a5.81,5.81,0,0,1-.908-.063,2.472,2.472,0,0,1-.644-.182A1.018,1.018,0,0,1,58.185,36a.689.689,0,0,1-.143-.394.592.592,0,0,1,.157-.431,1.346,1.346,0,0,1,.53-.338,4.078,4.078,0,0,1,.923-.221,9.967,9.967,0,0,1,1.335-.079q.473,0,.943.031t.939.1q.468.065.934.165t.93.238l.8-1.527c-.31-.1-.65-.182-1.015-.258s-.752-.141-1.156-.194-.825-.095-1.254-.123-.868-.043-1.309-.043a15.365,15.365,0,0,0-2.669.209,7.133,7.133,0,0,0-1.85.56,2.86,2.86,0,0,0-1.063.813,1.453,1.453,0,0,0-.31.968,1.5,1.5,0,0,0,.139.554,1.783,1.783,0,0,0,.344.491,2.531,2.531,0,0,0,.536.412,3.751,3.751,0,0,0,.714.318,4.634,4.634,0,0,0-.889.325,2.857,2.857,0,0,0-.671.45,1.74,1.74,0,0,0-.415.559,1.378,1.378,0,0,0-.121.651A1.611,1.611,0,0,0,55,40.247a3.47,3.47,0,0,0,1.228.8,8.619,8.619,0,0,0,1.98.524,17.741,17.741,0,0,0,2.714.188c.534,0,1.058-.02,1.565-.059s.994-.1,1.454-.171a12.816,12.816,0,0,0,1.288-.273,7.749,7.749,0,0,0,1.065-.365Zm2.828,2.2h9.7l-.033-1.594h-6.65l-.215-6.949h-3.1Zm17.522.145a13.387,13.387,0,0,0,1.65-.1,10.31,10.31,0,0,0,1.476-.289,7.7,7.7,0,0,0,1.278-.473,5.7,5.7,0,0,0,1.056-.649l-1.974-1.164a4.653,4.653,0,0,1-.709.439,4.973,4.973,0,0,1-.792.315,5.726,5.726,0,0,1-.874.189,6.964,6.964,0,0,1-.955.063,7.057,7.057,0,0,1-1.712-.2,4.639,4.639,0,0,1-1.35-.558,2.819,2.819,0,0,1-.891-.86,2.1,2.1,0,0,1-.332-1.1,2.062,2.062,0,0,1,.3-1.109,2.721,2.721,0,0,1,.87-.868,4.531,4.531,0,0,1,1.345-.566,7.369,7.369,0,0,1,2.685-.138,5.849,5.849,0,0,1,.884.191,5.125,5.125,0,0,1,.8.315,4.8,4.8,0,0,1,.717.437l1.982-1.18a5.834,5.834,0,0,0-1.068-.655,7.868,7.868,0,0,0-1.294-.48,10.432,10.432,0,0,0-1.492-.3,13.309,13.309,0,0,0-1.662-.1,12.133,12.133,0,0,0-2.893.332,8.03,8.03,0,0,0-2.289.925A4.62,4.62,0,0,0,78.9,35.589a3.144,3.144,0,0,0-.512,1.781,3.225,3.225,0,0,0,.58,1.772,4.824,4.824,0,0,0,1.53,1.388,8.229,8.229,0,0,0,2.286.905A12.141,12.141,0,0,0,85.637,41.76Zm13.643,0a12.329,12.329,0,0,0,2.89-.327,8.378,8.378,0,0,0,2.311-.911,4.89,4.89,0,0,0,1.546-1.389,3.194,3.194,0,0,0,.588-1.762A3.1,3.1,0,0,0,106.1,35.6a4.653,4.653,0,0,0-1.5-1.41,8.118,8.118,0,0,0-2.3-.931,12.876,12.876,0,0,0-5.851,0,8.287,8.287,0,0,0-2.325.934,4.806,4.806,0,0,0-1.528,1.41,3.108,3.108,0,0,0,0,3.523,4.726,4.726,0,0,0,1.51,1.39,8.162,8.162,0,0,0,2.29.914A12.227,12.227,0,0,0,99.28,41.76Zm.019-1.666a6.62,6.62,0,0,1-1.645-.2,4.467,4.467,0,0,1-1.312-.556,2.747,2.747,0,0,1-.867-.86,2.08,2.08,0,0,1-.31-1.11,2.107,2.107,0,0,1,.323-1.114,2.817,2.817,0,0,1,.882-.868,4.557,4.557,0,0,1,1.329-.563,6.975,6.975,0,0,1,3.32,0,4.447,4.447,0,0,1,1.317.563,2.725,2.725,0,0,1,.862.868,2.071,2.071,0,0,1,.3,1.114,2.118,2.118,0,0,1-.335,1.11,2.841,2.841,0,0,1-.887.86,4.576,4.576,0,0,1-1.324.556A6.674,6.674,0,0,1,99.3,40.094Zm25.049-7.17a10.356,10.356,0,0,0-1.326.083,8.1,8.1,0,0,0-1.2.244,5.871,5.871,0,0,0-1.03.4,4.059,4.059,0,0,0-.827.547,2.8,2.8,0,0,0-.656-.542,4.2,4.2,0,0,0-.889-.4,6.444,6.444,0,0,0-1.1-.246,9.506,9.506,0,0,0-1.3-.084,9.346,9.346,0,0,0-1.26.082,6.939,6.939,0,0,0-1.1.237,4.985,4.985,0,0,0-.919.38,3.572,3.572,0,0,0-.723.511l.032-1.061h-3.005l-.219,8.544h3.062l.152-5.039a1.714,1.714,0,0,1,.861-1.485,3,3,0,0,1,.919-.352,5.351,5.351,0,0,1,1.144-.114,4.506,4.506,0,0,1,1.04.11,2.364,2.364,0,0,1,.8.336,1.466,1.466,0,0,1,.5.57,1.689,1.689,0,0,1,.154.813l-.2,5.161h3.062l.216-5.039a1.736,1.736,0,0,1,.875-1.485,3.029,3.029,0,0,1,.928-.352,5.516,5.516,0,0,1,1.165-.114,4.715,4.715,0,0,1,1.057.11,2.588,2.588,0,0,1,.831.336,1.516,1.516,0,0,1,.532.57,1.562,1.562,0,0,1,.161.813l-.264,5.161h3.062l.291-5.222a3.085,3.085,0,0,0-.26-1.5,2.745,2.745,0,0,0-.932-1.087,4.527,4.527,0,0,0-1.542-.662A8.894,8.894,0,0,0,124.348,32.923Zm17.587,6.492a7.444,7.444,0,0,1-.948.324c-.344.094-.712.175-1.094.24s-.776.115-1.172.149-.794.051-1.182.051a12.161,12.161,0,0,1-1.474-.078,4.667,4.667,0,0,1-1-.22,1.41,1.41,0,0,1-.568-.341.578.578,0,0,1-.162-.44.686.686,0,0,1,.191-.432,1.328,1.328,0,0,1,.493-.312,3.417,3.417,0,0,1,.77-.189,7.412,7.412,0,0,1,1.023-.064h3.819l.114-1.562H137.1a5.67,5.67,0,0,1-.9-.063,2.255,2.255,0,0,1-.624-.182.864.864,0,0,1-.356-.292.628.628,0,0,1-.1-.394.665.665,0,0,1,.206-.431,1.567,1.567,0,0,1,.569-.338,4.407,4.407,0,0,1,.949-.221,10.176,10.176,0,0,1,1.344-.079q.473,0,.94.031t.928.1q.461.065.915.165t.9.238l.975-1.527c-.3-.1-.63-.182-.985-.258s-.736-.141-1.134-.194-.814-.095-1.24-.123-.863-.043-1.3-.043a15.789,15.789,0,0,0-2.693.209,7.841,7.841,0,0,0-1.915.56,3.363,3.363,0,0,0-1.156.813,1.619,1.619,0,0,0-.421.968,1.409,1.409,0,0,0,.076.554,1.527,1.527,0,0,0,.288.491,2.141,2.141,0,0,0,.489.412,3.294,3.294,0,0,0,.678.318,5.169,5.169,0,0,0-.926.325,3.34,3.34,0,0,0-.723.45,2.054,2.054,0,0,0-.479.559,1.489,1.489,0,0,0-.2.651,1.442,1.442,0,0,0,.339,1.014,2.964,2.964,0,0,0,1.136.8,7.9,7.9,0,0,0,1.92.524,17.313,17.313,0,0,0,2.692.188c.534,0,1.061-.02,1.571-.059s1.005-.1,1.474-.171.911-.166,1.319-.273a8.6,8.6,0,0,0,1.107-.365ZM161.325,34a12.6,12.6,0,0,0-1.4-.47c-.488-.134-1-.246-1.522-.336s-1.065-.157-1.615-.2-1.111-.067-1.675-.067-1.12.022-1.674.067-1.1.112-1.643.2-1.068.2-1.582.336a15.383,15.383,0,0,0-1.491.47l.923,1.488q.45-.161.91-.293t.93-.234q.471-.1.954-.177t.982-.12l-.637,6.953h3.062l.669-6.953q.5.046.967.12t.918.177q.448.1.876.234t.841.293Zm6.794,7.762a12.765,12.765,0,0,0,2.924-.327,9.3,9.3,0,0,0,2.406-.911,5.689,5.689,0,0,0,1.69-1.389,3.532,3.532,0,0,0,.77-1.762,2.9,2.9,0,0,0-.329-1.771,4,4,0,0,0-1.355-1.41,7.28,7.28,0,0,0-2.208-.931,11.79,11.79,0,0,0-2.883-.336,12.749,12.749,0,0,0-2.968.338,9.208,9.208,0,0,0-2.421.934,5.594,5.594,0,0,0-1.674,1.41,3.477,3.477,0,0,0-.732,1.766,2.911,2.911,0,0,0,.363,1.757,4.058,4.058,0,0,0,1.366,1.39,7.326,7.326,0,0,0,2.2.914A11.8,11.8,0,0,0,168.12,41.76Zm.191-1.666a6.379,6.379,0,0,1-1.625-.2,3.991,3.991,0,0,1-1.254-.556,2.36,2.36,0,0,1-.778-.86,1.948,1.948,0,0,1-.2-1.11,2.311,2.311,0,0,1,.438-1.114,3.281,3.281,0,0,1,.972-.868,5.083,5.083,0,0,1,1.388-.563,6.92,6.92,0,0,1,1.683-.2,6.372,6.372,0,0,1,1.637.2,3.97,3.97,0,0,1,1.258.563,2.341,2.341,0,0,1,.773.868,1.946,1.946,0,0,1,.182,1.114,2.329,2.329,0,0,1-.45,1.11,3.308,3.308,0,0,1-.976.86,5.1,5.1,0,0,1-1.382.556A6.922,6.922,0,0,1,168.311,40.094Z" transform="translate(402.81 339.45)" fill="#fff"/>
    </g>
  </g>
</svg>
