<svg xmlns="http://www.w3.org/2000/svg" width="194.194" height="38.241" viewBox="0 0 194.194 38.241">
  <g id="Group_322" data-name="Group 322" transform="translate(-115.596 756.33)">
    <g id="Group_321" data-name="Group 321" transform="translate(115.596 -756.33)">
      <path id="Path_2077" data-name="Path 2077" d="M121.66-698.872c-.848.394-1.272,1.3-1.272,2.739v1.272c2.808,1.085,5.626,2.1,8.519,2.939v3.846c-2.893-.839-5.711-1.854-8.519-2.939v7.543c-1.917-.77-2.875-1.187-4.792-2.087v-12.631c0-2.662.85-4.371,2.5-5.083,2.164-.933,4.848-.27,7,.48a24.015,24.015,0,0,1,3.343,1.43,14.239,14.239,0,0,1,2.721,1.838c-.592,1.36-.887,2.037-1.479,3.385a11.5,11.5,0,0,0-4.26-2.462C123.76-699.156,122.508-699.266,121.66-698.872Z" transform="translate(-115.596 715.038)" fill="#fff"/>
      <path id="Path_2078" data-name="Path 2078" d="M198.86-661.13a14.961,14.961,0,0,1-4.053-4.67,13.313,13.313,0,0,1-1.464-5.838,9.008,9.008,0,0,1,1.464-5.137,8.011,8.011,0,0,1,4.053-2.991,13.215,13.215,0,0,1,5.813-.5,14.834,14.834,0,0,1,5.8,1.926,11.876,11.876,0,0,1,4.053,4.015A10.554,10.554,0,0,1,216-668.811a10.205,10.205,0,0,1-1.479,5.457,9.457,9.457,0,0,1-4.053,3.646,10.69,10.69,0,0,1-5.8.854A13.31,13.31,0,0,1,198.86-661.13Zm9.126-2.3a5.308,5.308,0,0,0,2.322-2.173,6.619,6.619,0,0,0,.843-3.379,7.218,7.218,0,0,0-.843-3.484,6.9,6.9,0,0,0-2.322-2.53,7.6,7.6,0,0,0-3.313-1.19,6.493,6.493,0,0,0-3.313.383,4.837,4.837,0,0,0-2.322,1.959,6.071,6.071,0,0,0-.843,3.274,7.83,7.83,0,0,0,.843,3.589,7.578,7.578,0,0,0,2.322,2.745,6.986,6.986,0,0,0,3.313,1.3A5.857,5.857,0,0,0,207.986-663.432Z" transform="translate(-176.63 696.703)" fill="#fff"/>
      <path id="Path_2079" data-name="Path 2079" d="M315.545-675.365c1.917-.031,2.875-.065,4.792-.167v16.8q5.2-.288,10.383-.92v3.9c-5.056.578-10.087.957-15.175,1.087Z" transform="translate(-272.565 692.899)" fill="#fff"/>
      <path id="Path_2080" data-name="Path 2080" d="M398.661-684.04c1.917-.262,2.875-.406,4.792-.714v16.8q5.209-.846,10.383-1.9v3.9c-5.041,1-10.088,1.883-15.175,2.611Z" transform="translate(-337.814 700.14)" fill="#fff"/>
      <path id="Path_2081" data-name="Path 2081" d="M479.585-687.668a7.53,7.53,0,0,1-4.053-2.962,9.225,9.225,0,0,1-1.464-5.184,13.035,13.035,0,0,1,1.464-5.79,15.811,15.811,0,0,1,4.053-4.7A16.155,16.155,0,0,1,485.4-709a11.5,11.5,0,0,1,5.8.044,7.489,7.489,0,0,1,4.053,2.879,8.941,8.941,0,0,1,1.479,5.14,13.189,13.189,0,0,1-1.479,5.834,16.354,16.354,0,0,1-4.053,4.782,15.725,15.725,0,0,1-5.8,2.736A11.275,11.275,0,0,1,479.585-687.668Zm9.126-5.606a8.491,8.491,0,0,0,2.322-2.894,8.083,8.083,0,0,0,.843-3.629,5.86,5.86,0,0,0-.843-3.234,4.329,4.329,0,0,0-2.322-1.81,6.026,6.026,0,0,0-3.313-.077,8.21,8.21,0,0,0-3.313,1.595,8.39,8.39,0,0,0-2.322,2.867,8,8,0,0,0-.843,3.616,5.926,5.926,0,0,0,.843,3.247,4.379,4.379,0,0,0,2.322,1.837,5.937,5.937,0,0,0,3.313.091A8.131,8.131,0,0,0,488.711-693.274Z" transform="translate(-397.012 719.446)" fill="#fff"/>
      <path id="Path_2082" data-name="Path 2082" d="M626.4-750.1v12.217a10.058,10.058,0,0,1-2.337,6.906,11.39,11.39,0,0,1-6.626,3.33,11.1,11.1,0,0,1-3.8.077,5.665,5.665,0,0,1-2.736-1.21,10,10,0,0,1-2.751,2.308,13.341,13.341,0,0,1-3.757,1.423c-2.165.5-4.775.587-6.626-.776-1.827-1.344-2.389-3.844-2.337-6.042v-12.217c1.917-.445,2.875-.666,4.792-1.1v12.069q0,2.515,1.035,3.479a3.267,3.267,0,0,0,3.076.517,5.375,5.375,0,0,0,4.171-5.8v-12.069c1.917-.4,2.875-.591,4.792-.959v12.069c-.033,2.639,1.368,4.689,4.2,4.137a5.1,5.1,0,0,0,4.082-5.591V-749.4C623.51-749.7,624.475-749.843,626.4-750.1Z" transform="translate(-492.286 751.438)" fill="#fff"/>
      <path id="Path_2083" data-name="Path 2083" d="M818.347-755.625v20.706c-1.858-.218-2.786-.3-4.644-.437v-2.514a7.9,7.9,0,0,1-6.271,2.6,8.256,8.256,0,0,1-5.724-2.267,9.7,9.7,0,0,1-2.056-6.528v-12.128c1.917-.093,2.875-.123,4.792-.144v11.98a5.3,5.3,0,0,0,1.168,3.735,4.287,4.287,0,0,0,3.18,1.3,4.553,4.553,0,0,0,3.461-1.2,5.219,5.219,0,0,0,1.3-3.9q0-5.828,0-11.655C815.472-755.938,816.43-755.849,818.347-755.625Z" transform="translate(-652.608 756.33)" fill="#fff"/>
      <path id="Path_2084" data-name="Path 2084" d="M905.585-726.045a15.19,15.19,0,0,1-3.683-2.363c.651-1.345.976-2.014,1.627-3.348a15.435,15.435,0,0,0,3.165,2.16,16.221,16.221,0,0,0,3.668,1.422,5.884,5.884,0,0,0,3.017.2,1.292,1.292,0,0,0,.976-1.328,2.087,2.087,0,0,0-.577-1.4,6.188,6.188,0,0,0-1.479-1.2c-.6-.361-1.419-.791-2.44-1.278-1.576-.75-2.869-1.4-3.875-1.974a8.482,8.482,0,0,1-2.588-2.277,5.594,5.594,0,0,1-1.08-3.488,5.044,5.044,0,0,1,.976-3.111,4.953,4.953,0,0,1,2.943-1.783,10.14,10.14,0,0,1,4.807.237,16.353,16.353,0,0,1,3.875,1.559,15.529,15.529,0,0,1,3.313,2.44c-.592,1.25-.888,1.878-1.479,3.139a15.544,15.544,0,0,0-5.738-3.3,4.8,4.8,0,0,0-2.973-.057,1.538,1.538,0,0,0-.961,1.509,2.189,2.189,0,0,0,1.109,1.822,29.741,29.741,0,0,0,3.387,1.842,31.732,31.732,0,0,1,3.875,2.235,9.868,9.868,0,0,1,2.588,2.624,6.363,6.363,0,0,1,1.08,3.663,4.2,4.2,0,0,1-.991,2.89,4.55,4.55,0,0,1-2.973,1.351,13.593,13.593,0,0,1-4.822-.479A24.346,24.346,0,0,1,905.585-726.045Z" transform="translate(-732.88 748.221)" fill="#fff"/>
      <path id="Path_2085" data-name="Path 2085" d="M993.4-706.262a3.746,3.746,0,0,1-.813-2.23,1.624,1.624,0,0,1,.8-1.563,2.3,2.3,0,0,1,2.041.092,4.8,4.8,0,0,1,2.041,1.66,3.86,3.86,0,0,1,.8,2.249,1.552,1.552,0,0,1-.814,1.53,2.357,2.357,0,0,1-2.026-.115A4.839,4.839,0,0,1,993.4-706.262Zm-.725-20.446c2.2.861,3.3,1.331,5.5,2.363q-.459,6.547-.917,13.095c-1.467-.668-2.2-.982-3.668-1.575Q993.134-719.767,992.675-726.708Z" transform="translate(-804.071 733.076)" fill="#fff"/>
    </g>
  </g>
</svg>
