<svg xmlns="http://www.w3.org/2000/svg" xmlns:xlink="http://www.w3.org/1999/xlink" width="331" height="143" viewBox="0 0 331 143">
  <defs>
    <filter id="Seeded_by_Catalys_Built_on_Cardano" x="247" y="0" width="84" height="143" filterUnits="userSpaceOnUse">
      <feOffset input="SourceAlpha"/>
      <feGaussianBlur stdDeviation="10" result="blur"/>
      <feFlood flood-color="#fff"/>
      <feComposite operator="in" in2="blur"/>
      <feComposite in="SourceGraphic"/>
    </filter>
  </defs>
  <g id="Group_383" data-name="Group 383" transform="translate(-37 -7677.833)">
    <g transform="matrix(1, 0, 0, 1, 37, 7677.83)" filter="url(#Seeded_by_Catalys_Built_on_Cardano)">
      <text id="Seeded_by_Catalys_Built_on_Cardano-2" data-name="Seeded by Catalys,
Built on Cardano" transform="translate(285 113) rotate(-90)" fill="#fff" font-size="8" font-family="MontserratAlternates-Bold, Montserrat Alternates" font-weight="700" letter-spacing="0.01em"><tspan x="0" y="0">Seeded by Catalys,</tspan><tspan x="0" y="14">Built on Cardano</tspan></text>
    </g>
    <g id="Project_Catalyst_Logo" data-name="Project Catalyst Logo" transform="translate(139.051 7720.22)">
      <path id="Path_1801" data-name="Path 1801" d="M-355.259-349.425q-8.391.011-16.783.005h-.41a5.6,5.6,0,0,0,.435,1.428,9.021,9.021,0,0,0,9.423,5.42,8.985,8.985,0,0,0,7.646-6.477C-354.851-349.4-354.957-349.425-355.259-349.425Z" transform="translate(372.773 360.623)" fill="#fff"/>
      <path id="Path_1802" data-name="Path 1802" d="M-358.395-481.734a9.124,9.124,0,0,0-8.916-8.3,9.212,9.212,0,0,0-9.161,9.543c.011.239.1.29.305.28a6.786,6.786,0,0,1,.795,0c.267.019.331-.082.322-.343a7.739,7.739,0,0,1,.517-3.149,7.618,7.618,0,0,1,8.51-4.731,7.622,7.622,0,0,1,6.1,5.945c.156.865.154.838-.7.885-.427.023-.568-.135-.643-.527a6.261,6.261,0,0,0-6.763-5.029,6.325,6.325,0,0,0-5.649,6.667c.012.195.053.285.268.284q1.829-.01,3.659,0c.2,0,.278-.065.275-.275a3.076,3.076,0,0,1,.066-.945,2.082,2.082,0,0,1,2.33-1.539,2.114,2.114,0,0,1,1.755,2.094c.012.643.012.643.657.644.786,0,.786,0,.755-.775a3.521,3.521,0,0,0-2.716-3.309,3.331,3.331,0,0,0-3.874,1.9,1.142,1.142,0,0,1-1.388.81c-.31-.025-.32-.143-.262-.364a4.737,4.737,0,0,1,3.47-3.624,4.654,4.654,0,0,1,4.8,1.329,4.734,4.734,0,0,1,1.341,3.655c-.01.293.063.4.369.383.569-.024,1.14-.007,1.71-.007v0c.583,0,1.168-.019,1.75.008.327.015.414-.1.383-.4C-358.366-480.993-358.367-481.364-358.395-481.734Z" transform="translate(376.481 490.035)" fill="#fff"/>
      <path id="Path_1803" data-name="Path 1803" d="M-83.509-369.4a2.15,2.15,0,0,0-2.1.484,1.784,1.784,0,0,1-2.9-.377,2.933,2.933,0,0,1-.044-2.356,1.753,1.753,0,0,1,2.916-.5,1.321,1.321,0,0,0,1.308.584c.193,0,.312,0,.431,0,.588-.012.662-.114.444-.663a3.3,3.3,0,0,0-2.749-2.115,3.72,3.72,0,0,0-3.939,1.762,4.426,4.426,0,0,0,.389,4.745,3.733,3.733,0,0,0,3.875,1.1,3.394,3.394,0,0,0,2.471-2.2C-83.343-369.109-83.253-369.287-83.509-369.4Z" transform="translate(113.416 383.607)" fill="#fff"/>
      <path id="Path_1804" data-name="Path 1804" d="M17.556-354.284a2.488,2.488,0,0,0-1.37-.034c-.32.068-.306.391-.381.637-.009.03-.041.054-.071.09-.051-.042-.094-.071-.13-.108a2.344,2.344,0,0,0-3.314-.169,3.226,3.226,0,0,0-.984,2.925,2.9,2.9,0,0,0,1,2.125,2.478,2.478,0,0,0,3.453-.337c.236.81.236.81,1.057.81.119,0,.239-.005.357,0a.457.457,0,0,0,.543-.521q0-2.521,0-5.042C17.716-354.052,17.706-354.23,17.556-354.284Zm-3.069,4.372a1.3,1.3,0,0,1-1.295-1.438,1.293,1.293,0,0,1,1.356-1.455c.813.012,1.293.565,1.285,1.477A1.277,1.277,0,0,1,14.487-349.912Z" transform="translate(19.601 365.27)" fill="#fff"/>
      <path id="Path_1805" data-name="Path 1805" d="M166.016-354.243c-.37-.014-.741-.008-1.111.007-.2.008-.36.089-.363.333,0,.128.029.292-.124.345s-.224-.116-.321-.193a2.357,2.357,0,0,0-3.5.417,3.67,3.67,0,0,0-.16,3.983,2.423,2.423,0,0,0,3.724.59c.226-.2.3-.173.374.1a.572.572,0,0,0,.657.446c.2-.01.4,0,.6,0,.5,0,.6-.092.6-.609.005-.807,0-1.615,0-2.422,0-.834-.005-1.668,0-2.5C166.4-354.03,166.318-354.232,166.016-354.243Zm-2.9,4.448c-.791-.016-1.266-.589-1.249-1.507a1.285,1.285,0,0,1,1.344-1.387,1.3,1.3,0,0,1,1.289,1.478A1.278,1.278,0,0,1,163.112-349.795Z" transform="translate(-117.214 365.145)" fill="#fff"/>
      <path id="Path_1806" data-name="Path 1806" d="M294.858-354.29c-.774-.027-.994.126-1.258.866-.284.8-.567,1.6-.859,2.389-.031.084-.025.236-.179.221-.119-.011-.115-.132-.147-.213-.3-.748-.6-1.5-.9-2.245-.379-.92-.514-1-1.514-1h-.2c-.667.007-.721.091-.453.713.577,1.335,1.143,2.675,1.768,3.989a2.3,2.3,0,0,1-.09,2.378,6.56,6.56,0,0,0-.624,1.37c-.061.17-.085.336.133.433a1.5,1.5,0,0,0,2.05-.808q1.468-3.512,2.94-7.022C295.936-354.207,295.909-354.254,294.858-354.29Z" transform="translate(-236.182 365.103)" fill="#fff"/>
      <path id="Path_1807" data-name="Path 1807" d="M384.662-351.726c-.521-.151-1.047-.281-1.566-.438a.472.472,0,0,1-.374-.418.485.485,0,0,1,.194-.454c.254-.182.953-.123,1.1.15a.927.927,0,0,0,1.052.517c.137,0,.191,0,.243,0,.211-.019.476.14.615-.125s-.035-.509-.185-.727a3.036,3.036,0,0,0-3.792-.905,1.665,1.665,0,0,0-.834,2.021,1.689,1.689,0,0,0,1.277,1.077c.56.158,1.123.308,1.682.472a.458.458,0,0,1,.365.46.444.444,0,0,1-.3.469c-.362.1-.8.162-1.044-.157a1.824,1.824,0,0,0-1.727-.548c-.34.008-.4.154-.285.46a2.187,2.187,0,0,0,1.055,1.237,3.457,3.457,0,0,0,3.1.072,1.609,1.609,0,0,0,.811-2.14A1.963,1.963,0,0,0,384.662-351.726Z" transform="translate(-320.7 365.249)" fill="#fff"/>
      <path id="Path_1808" data-name="Path 1808" d="M105.373-370.744a.47.47,0,0,1-.529-.539c0-.185,0-.371,0-.556-.009-.265-.132-.418-.418-.414-.318,0-.636,0-.954-.005a.427.427,0,0,0-.49.485c0,.2,0,.4,0,.6.008.254-.1.423-.361.423-.369,0-.445.21-.433.516a4.832,4.832,0,0,1,0,.516c-.022.32.107.514.438.531.277.013.361.167.357.417-.005.318,0,.636,0,.954H103c0,.344-.02.69,0,1.033a1.974,1.974,0,0,0,2.047,2.073c.967.044,1.044-.029,1.035-.991,0-.5-.086-.589-.6-.627-.455-.034-.61-.186-.62-.645s.006-.927-.008-1.39c-.023-.75.035-.829.769-.845.318-.007.46-.154.456-.463,0-.106,0-.212,0-.318C106.084-370.719,106.084-370.727,105.373-370.744Z" transform="translate(-64.066 381.637)" fill="#fff"/>
      <path id="Path_1809" data-name="Path 1809" d="M456.718-366.271c-.008-.351-.134-.535-.512-.546-.557-.017-.733-.2-.745-.754-.011-.49,0-.98,0-1.47.005-.526.065-.589.578-.634.633-.056.666-.092.662-.715,0-.066,0-.132,0-.2.014-.584-.059-.658-.653-.656-.443,0-.586-.139-.6-.59-.006-.185,0-.371-.017-.556-.009-.117-.029-.252-.168-.288a2.394,2.394,0,0,0-1.447,0c-.358.137-.159.59-.2.9-.009.065,0,.134-.009.2-.034.185-.122.333-.335.325-.384-.015-.474.205-.46.531.008.185,0,.371,0,.556,0,.28.109.456.417.463.288.007.386.178.382.445-.006.318,0,.636,0,.954h.008c0,.291-.011.583,0,.874.049,1.1.352,2.017,1.94,2.192C456.619-365.119,456.742-365.2,456.718-366.271Z" transform="translate(-386.772 382.127)" fill="#fff"/>
      <path id="Path_1810" data-name="Path 1810" d="M256.81-378.27c-.633-.01-.781.148-.781.8,0,2,0,4,.007,5.993,0,1.271-.205,1.242,1.243,1.233.562,0,.657-.092.659-.642,0-1.125,0-2.249,0-3.374h0q0-1.449,0-2.9C257.934-378.327,258.07-378.25,256.81-378.27Z" transform="translate(-205.656 387.171)" fill="#fff"/>
      <path id="Path_1811" data-name="Path 1811" d="M55.335-451.152a1.668,1.668,0,0,0-1.794.413,1.714,1.714,0,0,0-.272,1.928,1.432,1.432,0,0,0,1.3.9,1.655,1.655,0,0,0,1.558-.684c.085-.117.176-.265.021-.385a.308.308,0,0,0-.431.04c-.056.055-.092.129-.143.189a1.244,1.244,0,0,1-1.339.335,1.045,1.045,0,0,1-.557-.769c-.042-.163.067-.2.2-.211.343-.016.686-.035,1.03-.052a4.737,4.737,0,0,0,1.148-.021.337.337,0,0,0,.307-.388A1.571,1.571,0,0,0,55.335-451.152Zm.089,1.363a7.464,7.464,0,0,1-.791.053c-.219-.015-.481-.044-.744-.047-.239,0-.251-.108-.187-.3a1.024,1.024,0,0,1,.879-.683.987.987,0,0,1,1.073.489C55.8-450.015,55.7-449.837,55.424-449.789Z" transform="translate(-18.882 454.333)" fill="#fff"/>
      <path id="Path_1812" data-name="Path 1812" d="M-83.661-460.07c0,.555,0,1.11,0,1.666,0,.177.016.361.261.361.228,0,.282-.161.286-.349.006-.291.019-.582.006-.872-.014-.311.137-.428.426-.431a3.8,3.8,0,0,0,.984-.1,1.118,1.118,0,0,0,.819-1.242,1.046,1.046,0,0,0-.913-1.074,8.981,8.981,0,0,0-1.345-.065c-.366-.018-.536.144-.528.516C-83.653-461.128-83.661-460.6-83.661-460.07Zm.787-1.63a1.258,1.258,0,0,1,1.2.2.751.751,0,0,1-.182,1.243,1.666,1.666,0,0,1-.624.085c-.564,0-.626-.061-.63-.638a.526.526,0,0,1,0-.079C-83.063-461.176-83.256-461.563-82.874-461.7Z" transform="translate(106.983 464.393)" fill="#fff"/>
      <path id="Path_1813" data-name="Path 1813" d="M-9.406-448.406a1.557,1.557,0,0,0-1.617-1.671,1.54,1.54,0,0,0-1.64,1.644,1.567,1.567,0,0,0,1.572,1.681A1.578,1.578,0,0,0-9.406-448.406Zm-1.651,1.154a1.1,1.1,0,0,1-1.055-1.192,1.07,1.07,0,0,1,1.1-1.177,1.071,1.071,0,0,1,1.051,1.182A1.083,1.083,0,0,1-11.057-447.252Z" transform="translate(41.636 453.26)" fill="#fff"/>
      <path id="Path_1814" data-name="Path 1814" d="M102.046-447.018a1.647,1.647,0,0,0,1.9-.31c.149-.18.49-.4.208-.655s-.429.108-.593.269a1.02,1.02,0,0,1-1.26.241,1.293,1.293,0,0,1-.5-1.5,1,1,0,0,1,1.034-.754,1.013,1.013,0,0,1,.847.508c.111.169.248.3.454.165.234-.154.077-.324-.017-.476a1.365,1.365,0,0,0-1.312-.653,1.514,1.514,0,0,0-1.633,1.443A1.688,1.688,0,0,0,102.046-447.018Z" transform="translate(-63.124 453.362)" fill="#fff"/>
      <path id="Path_1815" data-name="Path 1815" d="M147.066-456.194c.03-.217-.153-.248-.315-.265-.387-.04-.5-.306-.511-.636-.012-.382,0-.766,0-1.148,0-.343.118-.556.5-.556.145,0,.3-.042.281-.249-.015-.183-.159-.2-.29-.2a.44.44,0,0,1-.5-.478c-.008-.178-.063-.309-.274-.308s-.264.157-.275.318a.525.525,0,0,1-.319.5c-.227.107-.267.265,0,.383a.5.5,0,0,1,.308.537c0,.475-.007.952.034,1.424.054.611.354.866,1.066.884A.238.238,0,0,0,147.066-456.194Z" transform="translate(-103.635 462.422)" fill="#fff"/>
      <path id="Path_1816" data-name="Path 1816" d="M29.62-445.3a.757.757,0,0,0,.917-.78c.017-.594,0-1.189,0-1.784h.007c0-.568.005-1.137,0-1.7,0-.211.064-.495-.293-.487-.332.007-.259.271-.259.471q-.006,1.566,0,3.132c0,.337-.035.638-.449.722a.2.2,0,0,0-.176.23C29.387-445.359,29.488-445.315,29.62-445.3Z" transform="translate(2.957 453.236)" fill="#fff"/>
      <path id="Path_1817" data-name="Path 1817" d="M-40.432-447.83c.33.01.284-.283.29-.5.007-.278,0-.556.008-.834.014-.965.054-1.019.976-1.346a.3.3,0,0,0,.2-.379c-.03-.18-.176-.18-.307-.169a1.2,1.2,0,0,0-.537.239c-.136.088-.257.135-.363-.049a.278.278,0,0,0-.377-.119c-.155.061-.155.2-.155.333q0,.616,0,1.232h0c0,.358-.006.715,0,1.073C-40.69-448.139-40.764-447.84-40.432-447.83Z" transform="translate(67.44 454.168)" fill="#fff"/>
      <path id="Path_1818" data-name="Path 1818" d="M36.708-465.387a.306.306,0,0,0,.332-.315.331.331,0,0,0-.383-.306c-.189.012-.337.109-.331.316C36.334-465.461,36.5-465.387,36.708-465.387Z" transform="translate(-3.452 467.922)" fill="#fff"/>
    </g>
    <g id="Cardano_Logo" data-name="Cardano Logo" transform="translate(139.051 7766.794)">
      <g id="Group_150" data-name="Group 150" transform="translate(0 0)">
        <path id="Path_1819" data-name="Path 1819" d="M620.125-65.732a.566.566,0,0,0-.6.533.567.567,0,0,0,.533.6.568.568,0,0,0,.6-.533A.566.566,0,0,0,620.125-65.732Z" transform="translate(-619.527 77.214)" fill="#fff"/>
        <path id="Path_1820" data-name="Path 1820" d="M629.309-65.733a1.755,1.755,0,0,0,1.649,1.849l.1,0a1.752,1.752,0,0,0,1.748-1.653,1.753,1.753,0,0,0-1.649-1.849A1.752,1.752,0,0,0,629.309-65.733Z" transform="translate(-622.18 77.662)" fill="#fff"/>
        <path id="Path_1821" data-name="Path 1821" d="M620.125-65.732a.566.566,0,0,0-.6.533.567.567,0,0,0,.533.6.568.568,0,0,0,.6-.533A.566.566,0,0,0,620.125-65.732Z" transform="translate(-619.527 77.214)" fill="#fff"/>
        <path id="Path_1822" data-name="Path 1822" d="M628.851-79.466a.566.566,0,0,0,.251-.761.567.567,0,0,0-.761-.251.567.567,0,0,0-.251.761A.567.567,0,0,0,628.851-79.466Z" transform="translate(-621.833 81.23)" fill="#fff"/>
        <path id="Path_1823" data-name="Path 1823" d="M631.124-75.431a.873.873,0,0,0,.388-1.175.875.875,0,0,0-1.175-.388.875.875,0,0,0-.388,1.175A.875.875,0,0,0,631.124-75.431Z" transform="translate(-622.328 80.294)" fill="#fff"/>
        <path id="Path_1824" data-name="Path 1824" d="M623.269-72.383a.721.721,0,0,0,1-.207.721.721,0,0,0-.208-1,.72.72,0,0,0-1,.207A.72.72,0,0,0,623.269-72.383Z" transform="translate(-620.453 79.376)" fill="#fff"/>
        <path id="Path_1825" data-name="Path 1825" d="M624.507-66.166a.875.875,0,0,0-.923.823.875.875,0,0,0,.823.924.875.875,0,0,0,.924-.824A.874.874,0,0,0,624.507-66.166Z" transform="translate(-620.627 77.331)" fill="#fff"/>
        <path id="Path_1826" data-name="Path 1826" d="M623.374-58.125a.721.721,0,0,0-.319.968.72.72,0,0,0,.968.319.721.721,0,0,0,.319-.968A.721.721,0,0,0,623.374-58.125Z" transform="translate(-620.463 75.171)" fill="#fff"/>
        <path id="Path_1827" data-name="Path 1827" d="M628.013-69.35a1.03,1.03,0,0,0,1.426-.3,1.029,1.029,0,0,0-.3-1.425,1.03,1.03,0,0,0-1.425.3A1.03,1.03,0,0,0,628.013-69.35Z" transform="translate(-621.703 78.708)" fill="#fff"/>
        <path id="Path_1828" data-name="Path 1828" d="M642.843-75.508a.876.876,0,0,0,1.212-.253.874.874,0,0,0-.252-1.211.875.875,0,0,0-1.212.252A.876.876,0,0,0,642.843-75.508Z" transform="translate(-625.745 80.301)" fill="#fff"/>
        <path id="Path_1829" data-name="Path 1829" d="M645.359-79.535a.567.567,0,0,0,.784-.163.566.566,0,0,0-.163-.784.566.566,0,0,0-.784.163A.567.567,0,0,0,645.359-79.535Z" transform="translate(-626.465 81.24)" fill="#fff"/>
        <path id="Path_1830" data-name="Path 1830" d="M642.49-67.408a1.753,1.753,0,0,0-1.849,1.65,1.755,1.755,0,0,0,1.65,1.849l.1,0a1.752,1.752,0,0,0,1.748-1.652,1.74,1.74,0,0,0-.442-1.266A1.742,1.742,0,0,0,642.49-67.408Z" transform="translate(-625.254 77.669)" fill="#fff"/>
        <path id="Path_1831" data-name="Path 1831" d="M632.316-69.759a1.744,1.744,0,0,0,1.565.964,1.752,1.752,0,0,0,.787-.188,1.754,1.754,0,0,0,.776-2.353,1.743,1.743,0,0,0-1.565-.963,1.761,1.761,0,0,0-.787.187A1.754,1.754,0,0,0,632.316-69.759Z" transform="translate(-622.945 78.995)" fill="#fff"/>
        <path id="Path_1832" data-name="Path 1832" d="M650.842-72.4a.721.721,0,0,0,.319-.968.72.72,0,0,0-.968-.319.72.72,0,0,0-.319.968A.721.721,0,0,0,650.842-72.4Z" transform="translate(-627.739 79.393)" fill="#fff"/>
        <path id="Path_1833" data-name="Path 1833" d="M644.923-71.167a1.029,1.029,0,0,0-.456,1.382,1.03,1.03,0,0,0,1.383.456,1.031,1.031,0,0,0,.456-1.383A1.03,1.03,0,0,0,644.923-71.167Z" transform="translate(-626.263 78.718)" fill="#fff"/>
        <path id="Path_1834" data-name="Path 1834" d="M637.033-80.047a.721.721,0,0,0,.761-.678.721.721,0,0,0-.679-.761.721.721,0,0,0-.761.679A.721.721,0,0,0,637.033-80.047Z" transform="translate(-624.091 81.488)" fill="#fff"/>
        <path id="Path_1835" data-name="Path 1835" d="M636.913-74.054A1.03,1.03,0,0,0,638-75.023a1.03,1.03,0,0,0-.97-1.087,1.029,1.029,0,0,0-1.087.969A1.03,1.03,0,0,0,636.913-74.054Z" transform="translate(-623.98 80.029)" fill="#fff"/>
        <path id="Path_1836" data-name="Path 1836" d="M629.062-59.587a1.03,1.03,0,0,0,.457-1.383,1.03,1.03,0,0,0-1.383-.456,1.03,1.03,0,0,0-.456,1.383A1.03,1.03,0,0,0,629.062-59.587Z" transform="translate(-621.709 76.075)" fill="#fff"/>
        <path id="Path_1837" data-name="Path 1837" d="M638.082-71.521a1.754,1.754,0,0,0,.5,2.426,1.743,1.743,0,0,0,.959.287,1.749,1.749,0,0,0,1.467-.791,1.753,1.753,0,0,0-.5-2.425,1.743,1.743,0,0,0-.96-.288A1.748,1.748,0,0,0,638.082-71.521Z" transform="translate(-624.483 78.998)" fill="#fff"/>
        <path id="Path_1838" data-name="Path 1838" d="M641.132-61.534a1.744,1.744,0,0,0-1.565-.964,1.765,1.765,0,0,0-.788.187,1.739,1.739,0,0,0-.875,1.017,1.733,1.733,0,0,0,.1,1.336,1.743,1.743,0,0,0,1.565.964,1.756,1.756,0,0,0,.788-.188A1.753,1.753,0,0,0,641.132-61.534Z" transform="translate(-624.488 76.336)" fill="#fff"/>
        <path id="Path_1839" data-name="Path 1839" d="M645.972-61.4a1.03,1.03,0,0,0-1.426.3,1.03,1.03,0,0,0,.3,1.425,1.03,1.03,0,0,0,1.426-.3A1.029,1.029,0,0,0,645.972-61.4Z" transform="translate(-626.268 76.085)" fill="#fff"/>
        <path id="Path_1840" data-name="Path 1840" d="M650.518-65.3a.876.876,0,0,0-.825-.924.875.875,0,0,0-.923.824.876.876,0,0,0,.824.924A.877.877,0,0,0,650.518-65.3Z" transform="translate(-627.459 77.347)" fill="#fff"/>
        <path id="Path_1841" data-name="Path 1841" d="M654.27-65.808a.567.567,0,0,0-.6.533.566.566,0,0,0,.534.6.566.566,0,0,0,.6-.533A.566.566,0,0,0,654.27-65.808Z" transform="translate(-628.79 77.234)" fill="#fff"/>
        <path id="Path_1842" data-name="Path 1842" d="M650.947-58.143a.721.721,0,0,0-1,.208.721.721,0,0,0,.208,1,.722.722,0,0,0,1-.208A.721.721,0,0,0,650.947-58.143Z" transform="translate(-627.748 75.187)" fill="#fff"/>
        <path id="Path_1843" data-name="Path 1843" d="M628.972-50.874a.566.566,0,0,0-.784.163.566.566,0,0,0,.162.784.566.566,0,0,0,.784-.163A.566.566,0,0,0,628.972-50.874Z" transform="translate(-621.851 73.208)" fill="#fff"/>
        <path id="Path_1844" data-name="Path 1844" d="M645.479-50.944a.566.566,0,0,0-.251.76.567.567,0,0,0,.761.251.565.565,0,0,0,.251-.76A.567.567,0,0,0,645.479-50.944Z" transform="translate(-626.483 73.218)" fill="#fff"/>
        <path id="Path_1845" data-name="Path 1845" d="M635.367-59.773a1.743,1.743,0,0,0,.25-1.317,1.742,1.742,0,0,0-.755-1.108,1.743,1.743,0,0,0-.96-.287,1.747,1.747,0,0,0-1.466.791,1.738,1.738,0,0,0-.25,1.317,1.74,1.74,0,0,0,.755,1.108,1.742,1.742,0,0,0,.959.287A1.75,1.75,0,0,0,635.367-59.773Z" transform="translate(-622.951 76.332)" fill="#fff"/>
        <path id="Path_1846" data-name="Path 1846" d="M631.258-55.132a.876.876,0,0,0-1.212.252.876.876,0,0,0,.252,1.212.875.875,0,0,0,1.212-.252A.875.875,0,0,0,631.258-55.132Z" transform="translate(-622.342 74.377)" fill="#fff"/>
        <path id="Path_1847" data-name="Path 1847" d="M637.081-50.478a.721.721,0,0,0-.761.679.721.721,0,0,0,.678.761.72.72,0,0,0,.761-.679A.721.721,0,0,0,637.081-50.478Z" transform="translate(-624.082 73.076)" fill="#fff"/>
        <path id="Path_1848" data-name="Path 1848" d="M636.971-56.7a1.03,1.03,0,0,0-1.086.97,1.029,1.029,0,0,0,.969,1.087,1.029,1.029,0,0,0,1.087-.969A1.031,1.031,0,0,0,636.971-56.7Z" transform="translate(-623.964 74.764)" fill="#fff"/>
        <path id="Path_1849" data-name="Path 1849" d="M642.977-55.21a.876.876,0,0,0-.387,1.176.874.874,0,0,0,1.175.387.874.874,0,0,0,.388-1.175A.875.875,0,0,0,642.977-55.21Z" transform="translate(-625.758 74.384)" fill="#fff"/>
      </g>
      <text id="CARDANO_FOUNDATION" data-name="CARDANO
FOUNDATION" transform="translate(33.05 10.519)" fill="#fff" font-size="7" font-family="Impact"><tspan x="0" y="0">CARDANO</tspan><tspan x="0" y="9">FOUNDATION</tspan></text>
    </g>
    <g id="Group_370" data-name="Group 370" transform="translate(37 7720.22)">
      <path id="Path_444" data-name="Path 444" d="M1423.907,1585.628h0q0-4.566,0-9.132a1.055,1.055,0,0,1,.378-.813,12.789,12.789,0,1,1,.128,19.875,1.278,1.278,0,0,1-.479-.994C1423.933,1591.584,1423.907,1588.606,1423.907,1585.628Zm-5.558,2.615a7.275,7.275,0,0,1-.789-.595,18.444,18.444,0,0,0-8.5-4.336c-1.261-.262-1.255-.229-.9-1.455a13.652,13.652,0,0,1,7.206-8.691,18.945,18.945,0,0,1,2.384-.91c.695-.243.817-.15.819.584.006,2.48,0,4.961,0,7.441h0c0,2.161,0,6.792,0,7.877a.124.124,0,0,1-.192.1Zm-16.625.038a23.264,23.264,0,0,1-.677,2.835.082.082,0,0,1-.01.016,13.556,13.556,0,0,1-1.951,3.117,13.728,13.728,0,0,1-9.652,5.026c-.715.066-.893-.2-.887-.892.039-4.305.043-8.612.041-12.917,0-4.287-.012-8.574-.056-12.861-.007-.71.256-.861.89-.822a12.852,12.852,0,0,1,4.149.978c.125.053.279.121.457.206A14.014,14.014,0,0,1,1401.723,1588.28Zm30.631-21.018a18.083,18.083,0,0,0-8.439,2.085q0-.9,0-1.8c0-.72-.214-1.042-.952-1.1a19.305,19.305,0,0,0-8.638,1.272,18.391,18.391,0,0,0-6.146,3.922,20.894,20.894,0,0,0-1.487,1.586,17.281,17.281,0,0,0-1.476,2.036h0a22.335,22.335,0,0,0-7.47-6.44c-.127-.084-.306-.176-.544-.3q-.926-.475-1.864-.843l-.032-.013h0a18.326,18.326,0,0,0-11.381-.685.837.837,0,0,0-.759.989c.011,7.022-.006,14.044-.011,21.067,0,4.7.007,9.4-.008,14.1,0,.53.1.807.684.968a17.8,17.8,0,0,0,9.141.089,18.865,18.865,0,0,0,9.5-5.577,18.254,18.254,0,0,0,4.671-9.116c.189-.99.216-1.038,1.145-.766a13.454,13.454,0,0,1,10.015,10.881,21.5,21.5,0,0,1,.177,4.012c.017,1.119.021,1.041,1.365,1.052.961.008,1.924.007,2.885,0,1.165-.008,1.189,0,1.19-1.122q0-.753,0-1.5a.16.16,0,0,1,.233-.142,18.515,18.515,0,0,0,14.783.779,17.417,17.417,0,0,0,10.606-10.98A18.358,18.358,0,0,0,1432.354,1567.262Z" transform="translate(-1383.15 -1534.14)" fill="#fff"/>
      <path id="Path_445" data-name="Path 445" d="M1124.336,1566.766c1.917,1.587,12.625,13.332,14.412,20.7v-3.423c-.078-13.786,10.891-17.854,17.458-18.133h7.044l9.279.009.037.008c.141.014.3.028.487.044l.159.016.042,0c.037,0,.072.01.111.011l.007.008a22.544,22.544,0,0,1,9.785,3.374q.153.1.312.183c.512.285,1.024.57,1.512.888l.1.068a.529.529,0,0,1,.182.729l-2.27,3.7a1.1,1.1,0,0,1-1.631.222,16.263,16.263,0,0,0-7.853-3.571h-.469v30.988a1.553,1.553,0,0,1-1.633,1.458l-3.835.019a1.492,1.492,0,0,1-1.57-1.4v-31.045l-2.756-.037-5.369.021a16.374,16.374,0,0,0-3.475.362c-7.608,1.688-9.45,7.9-9.459,9.721v1.217h11.883a1.158,1.158,0,0,1,1.217,1.086v3.41a1.159,1.159,0,0,1-1.225,1.087l-11.875-.035v14.27a1.433,1.433,0,0,1-1.507,1.345h-.51l-2.667-.037h-.008c-.817,0-1.131-.168-1.445-.673-4.479-16.8-12.065-25.428-14.215-27.616a.337.337,0,0,0-.578.2l.16,26.69c0,.953-.377,1.4-1.507,1.4l-3.221.038c-1.13,0-1.507-.448-1.507-1.4v-35.312c0-.953.377-1.4,1.507-1.4l3.221-.038S1123.249,1565.865,1124.336,1566.766Z" transform="translate(-1117.941 -1565.905)" fill="#fff"/>
    </g>
  </g>
</svg>
