<svg xmlns="http://www.w3.org/2000/svg" width="170" height="135.172" viewBox="0 0 170 135.172">
  <g id="Group_385" data-name="Group 385" transform="translate(-39 -7522.757)">
    <g id="Icon_awesome-github" data-name="Icon awesome-github" transform="translate(105.712 7568.972)">
      <path id="Icon_awesome-github-2" data-name="Icon awesome-github" d="M15.843,37.75c0,.191-.22.344-.5.344-.315.029-.535-.124-.535-.344,0-.191.22-.344.5-.344C15.6,37.378,15.843,37.53,15.843,37.75Zm-2.97-.43c-.067.191.124.411.411.468a.448.448,0,0,0,.592-.191c.057-.191-.124-.411-.411-.5A.49.49,0,0,0,12.873,37.32Zm4.221-.162c-.277.067-.468.248-.439.468.029.191.277.315.563.248s.468-.248.439-.439S17.371,37.129,17.095,37.158ZM23.378.563A22.9,22.9,0,0,0,0,23.864,23.943,23.943,0,0,0,16.187,46.708c1.222.22,1.652-.535,1.652-1.156,0-.592-.029-3.858-.029-5.864,0,0-6.685,1.432-8.089-2.846,0,0-1.089-2.779-2.655-3.5,0,0-2.187-1.5.153-1.471a5.041,5.041,0,0,1,3.686,2.464c2.091,3.686,5.6,2.626,6.962,2A5.308,5.308,0,0,1,19.4,33.118c-5.338-.592-10.725-1.366-10.725-10.553a7.238,7.238,0,0,1,2.254-5.625,9.023,9.023,0,0,1,.248-6.484c2-.621,6.59,2.578,6.59,2.578a22.561,22.561,0,0,1,11.995,0s4.594-3.209,6.59-2.578a9.019,9.019,0,0,1,.248,6.484c1.528,1.69,2.464,3.008,2.464,5.625,0,9.216-5.625,9.951-10.963,10.553a5.648,5.648,0,0,1,1.624,4.431c0,3.218-.029,7.2-.029,7.984,0,.621.439,1.375,1.652,1.156A23.722,23.722,0,0,0,47.368,23.864C47.368,10.619,36.624.563,23.378.563ZM9.283,33.5c-.124.1-.1.315.067.5.153.153.372.22.5.1.124-.1.1-.315-.067-.5C9.626,33.443,9.407,33.376,9.283,33.5Zm-1.031-.774c-.067.124.029.277.22.372a.284.284,0,0,0,.411-.067c.067-.124-.029-.277-.22-.372C8.471,32.6,8.318,32.631,8.251,32.727Zm3.094,3.4c-.153.124-.1.411.124.592.22.22.5.248.621.1.124-.124.067-.411-.124-.592C11.756,36,11.47,35.974,11.345,36.126Zm-1.089-1.4c-.153.1-.153.344,0,.563s.411.315.535.22a.436.436,0,0,0,0-.592C10.658,34.694,10.41,34.6,10.257,34.723Z" transform="translate(0 -0.563)" fill="#fff" opacity="0.2"/>
    </g>
    <g id="Icon_awesome-medium-m" data-name="Icon awesome-medium-m" transform="translate(39 7577.752)">
      <path id="Icon_awesome-medium-m-2" data-name="Icon awesome-medium-m" d="M5.272,10.339a1.408,1.408,0,0,0-.455-1.178L1.453,5.1V4.5H11.909l8.084,17.727L27.1,4.5h9.971v.6L34.192,7.863a.84.84,0,0,0-.321.805V28.953a.84.84,0,0,0,.321.805L37,32.518v.6H22.857v-.6l2.916-2.826c.283-.283.283-.373.283-.805V12.495L17.95,33.07h-1.1L7.427,12.495V26.284a1.878,1.878,0,0,0,.522,1.581l3.788,4.594v.6H1v-.6l3.788-4.6a1.817,1.817,0,0,0,.485-1.581Z" transform="translate(-0.998 -4.5)" fill="#fff" opacity="0.2"/>
    </g>
    <g id="Icon_awesome-twitter" data-name="Icon awesome-twitter" transform="translate(86.796 7522.757)">
      <path id="Icon_awesome-twitter-2" data-name="Icon awesome-twitter" d="M33.6,10.961c.024.333.024.665.024,1C33.627,22.107,25.9,33.8,11.787,33.8A21.691,21.691,0,0,1,0,30.353a15.879,15.879,0,0,0,1.854.1,15.373,15.373,0,0,0,9.529-3.279,7.689,7.689,0,0,1-7.177-5.323,9.679,9.679,0,0,0,1.45.119,8.118,8.118,0,0,0,2.02-.261A7.677,7.677,0,0,1,1.521,14.17v-.1a7.73,7.73,0,0,0,3.47.974A7.687,7.687,0,0,1,2.614,4.783a21.818,21.818,0,0,0,15.827,8.032,8.665,8.665,0,0,1-.19-1.759A7.683,7.683,0,0,1,31.535,5.8a15.112,15.112,0,0,0,4.872-1.854,7.655,7.655,0,0,1-3.375,4.23,15.388,15.388,0,0,0,4.42-1.188A16.5,16.5,0,0,1,33.6,10.961Z" transform="translate(0 -3.381)" fill="#fff" opacity="0.2"/>
    </g>
    <g id="Icon_awesome-discord" data-name="Icon awesome-discord" transform="translate(171.577 7529.39)">
      <path id="Icon_awesome-discord-2" data-name="Icon awesome-discord" d="M24.827,20.315a2.189,2.189,0,1,1-2.181-2.374A2.278,2.278,0,0,1,24.827,20.315Zm-9.987-2.374a2.382,2.382,0,0,0,0,4.747,2.278,2.278,0,0,0,2.181-2.374A2.264,2.264,0,0,0,14.841,17.941ZM37.423,4.405V42.768c-5.387-4.761-3.664-3.185-9.922-9l1.133,3.956H4.384A4.394,4.394,0,0,1,0,33.317V4.405A4.394,4.394,0,0,1,4.384,0H33.039A4.394,4.394,0,0,1,37.423,4.405ZM31.328,24.677A28.637,28.637,0,0,0,28.249,12.21,10.575,10.575,0,0,0,22.24,9.965l-.3.342a14.232,14.232,0,0,1,5.325,2.716,18.17,18.17,0,0,0-15.974-.62c-.791.364-1.262.62-1.262.62a14.427,14.427,0,0,1,5.624-2.8l-.214-.257A10.575,10.575,0,0,0,9.431,12.21,28.637,28.637,0,0,0,6.351,24.677s1.8,3.1,6.522,3.25c0,0,.791-.962,1.433-1.775a6.651,6.651,0,0,1-3.742-2.523c.315.22.833.506.877.535a15.588,15.588,0,0,0,13.344.748,12.237,12.237,0,0,0,2.459-1.262A6.748,6.748,0,0,1,23.373,26.2c.642.813,1.411,1.732,1.411,1.732C29.51,27.778,31.328,24.677,31.328,24.677Z" fill="#fff" opacity="0.2"/>
    </g>
    <g id="Icon_awesome-linkedin-in" data-name="Icon awesome-linkedin-in" transform="translate(171.486 7591.887)">
      <path id="Icon_awesome-linkedin-in-2" data-name="Icon awesome-linkedin-in" d="M5.889,26.307H.435V8.744H5.889ZM3.159,6.348A3.174,3.174,0,1,1,6.317,3.159,3.185,3.185,0,0,1,3.159,6.348ZM26.3,26.307H20.859v-8.55c0-2.038-.041-4.651-2.836-4.651-2.836,0-3.27,2.214-3.27,4.5v8.7H9.3V8.744h5.231v2.4h.076A5.731,5.731,0,0,1,19.773,8.3c5.52,0,6.535,3.635,6.535,8.356v9.648Z" transform="translate(0 -0.001)" fill="#fff" opacity="0.2"/>
    </g>
    <g id="Icon_awesome-youtube" data-name="Icon awesome-youtube" transform="translate(90.908 7637.111)">
      <path id="Icon_awesome-youtube-2" data-name="Icon awesome-youtube" d="M30.04,7.757a3.72,3.72,0,0,0-2.618-2.635C25.113,4.5,15.854,4.5,15.854,4.5S6.6,4.5,4.286,5.123A3.72,3.72,0,0,0,1.669,7.757,39.027,39.027,0,0,0,1.05,14.93,39.027,39.027,0,0,0,1.669,22.1,3.665,3.665,0,0,0,4.286,24.7c2.309.623,11.568.623,11.568.623s9.259,0,11.568-.623A3.665,3.665,0,0,0,30.04,22.1a39.027,39.027,0,0,0,.619-7.173,39.027,39.027,0,0,0-.619-7.173ZM12.826,19.333v-8.8l7.739,4.4-7.739,4.4Z" transform="translate(-1.05 -4.5)" fill="#fff" opacity="0.2"/>
    </g>
  </g>
</svg>
