<svg xmlns="http://www.w3.org/2000/svg" xmlns:xlink="http://www.w3.org/1999/xlink" width="168" height="168" viewBox="0 0 168 168">
  <defs>
    <filter id="Ellipse_2" x="0" y="0" width="168" height="168" filterUnits="userSpaceOnUse">
      <feOffset input="SourceAlpha"/>
      <feGaussianBlur stdDeviation="10" result="blur"/>
      <feFlood flood-color="#fff"/>
      <feComposite operator="in" in2="blur"/>
      <feComposite in="SourceGraphic"/>
    </filter>
  </defs>
  <g id="Group_324" data-name="Group 324" transform="translate(-945 -5579)">
    <circle id="Ellipse_1" data-name="Ellipse 1" cx="59" cy="59" r="59" transform="translate(970 5604)" fill="#fff"/>
    <g transform="matrix(1, 0, 0, 1, 945, 5579)" filter="url(#Ellipse_2)">
      <circle id="Ellipse_2-2" data-name="Ellipse 2" cx="54" cy="54" r="54" transform="translate(30 30)" fill="#00061d"/>
    </g>
    <g id="Group_288" data-name="Group 288" transform="translate(435.529 6188.901)">
      <g id="Group_287" data-name="Group 287" transform="translate(542.47 -540.804)">
        <path id="Path_2059" data-name="Path 2059" d="M542.47-468.44c.879-.352,1.319-.524,2.2-.86v9.416q2.4.569,4.812,1.076v2.84q-3.538-1.22-7.015-2.588Z" transform="translate(-542.47 478.585)" fill="#fff"/>
        <path id="Path_2060" data-name="Path 2060" d="M609.632-481.429a3.161,3.161,0,0,1-1.757,1.093,4.273,4.273,0,0,1-2.239-.128,6.409,6.409,0,0,1-2.5-1.424,6.387,6.387,0,0,1-1.55-2.149,6.188,6.188,0,0,1-.525-2.526,5.157,5.157,0,0,1,.428-2.164,3.366,3.366,0,0,1,1.175-1.45,3.345,3.345,0,0,1-.878-1.358,5.411,5.411,0,0,1-.311-1.89,6.428,6.428,0,0,1,.484-2.455,6.427,6.427,0,0,1,1.468-2.167,5.792,5.792,0,0,1,2.418-1.436,4.316,4.316,0,0,1,1.855-.171,3.314,3.314,0,0,1,1.581.635q-.31,1.85-.63,3.7a3.185,3.185,0,0,0-2.723-.726,2.651,2.651,0,0,0-1.634.911,2.563,2.563,0,0,0-.548,1.659,2.124,2.124,0,0,0,.368,1.359,1.253,1.253,0,0,0,1.119.419c1.063-.062,1.6-.091,2.663-.148v3.587c-1.124-.053-1.684-.081-2.8-.138a1.6,1.6,0,0,0-1.306.448,2.017,2.017,0,0,0-.458,1.442,2.5,2.5,0,0,0,.589,1.692,3.079,3.079,0,0,0,1.814.941,3.231,3.231,0,0,0,1.729-.13,3.162,3.162,0,0,0,1.468-1.094Q609.288-483.265,609.632-481.429Z" transform="translate(-593.454 505.029)" fill="#fff"/>
        <path id="Path_2061" data-name="Path 2061" d="M680.887-516.491a8.359,8.359,0,0,1,1.589,3.678,26.38,26.38,0,0,1,.568,6.324v13.668c-.921-.169-1.38-.257-2.3-.442v-5.783q-2.263-.237-4.521-.514v5.308c-.9-.213-1.351-.324-2.25-.552q0-5.748,0-11.5a23.693,23.693,0,0,1,.562-5.459,11.269,11.269,0,0,1,1.575-3.763,4.119,4.119,0,0,1,2.384-1.76A2.339,2.339,0,0,1,680.887-516.491Zm-.142,12.969v-3.442a11.828,11.828,0,0,0-.609-4.463c-.388-.96-.958-1.389-1.655-1.291s-1.272.672-1.658,1.663a11.475,11.475,0,0,0-.6,4.227v3.16Q678.485-503.592,680.745-503.522Z" transform="translate(-656.899 520.399)" fill="#fff"/>
        <path id="Path_2062" data-name="Path 2062" d="M767.712-501.7q-.955-3.9-1.931-7.793l-.114-.007c-.806-.048-1.209-.073-2.014-.126v7.383c-.925-.138-1.387-.21-2.31-.364v-25.776q2.16-.347,4.323-.648a2.5,2.5,0,0,1,2.311.936,7.969,7.969,0,0,1,1.512,3.365,26.167,26.167,0,0,1,.531,5.382,25.957,25.957,0,0,1-.538,5.392,8.154,8.154,0,0,1-1.526,3.4q1.139,4.561,2.25,9.13C769.207-501.524,768.709-501.578,767.712-501.7Zm-.587-21.106a1.557,1.557,0,0,0-1.588-1.108c-.755.063-1.132.1-1.885.166v9.238l1.885.02a1.705,1.705,0,0,0,1.588-1.239,9.214,9.214,0,0,0,.544-3.547A8.906,8.906,0,0,0,767.125-522.8Z" transform="translate(-732.923 530.577)" fill="#fff"/>
        <path id="Path_2063" data-name="Path 2063" d="M850.441-537.62c.986,2.868.969,6.252,1.008,9.379V-511c-.933-.02-1.4-.034-2.332-.069v-16.952a17.553,17.553,0,0,0-.568-5.283c-.361-1.166-.9-1.751-1.575-1.728-.71.024-1.3.688-1.7,1.944a18.32,18.32,0,0,0-.639,5.558v16.217c-.931-.066-1.4-.1-2.327-.185v-28.443c.9-.079,1.352-.115,2.255-.18v3.5a9.111,9.111,0,0,1,1.294-3.066,2.354,2.354,0,0,1,1.783-1.116C849.332-540.855,850.009-538.876,850.441-537.62Z" transform="translate(-803.37 540.804)" fill="#fff"/>
        <path id="Path_2064" data-name="Path 2064" d="M976.1-536.234a28.568,28.568,0,0,1,.987,8.176V-511.5c-.926.127-1.39.186-2.317.3v-16.727a13.155,13.155,0,0,0-.551-4.423c-.354-1-.852-1.545-1.454-1.585-.659-.044-1.2.46-1.577,1.5a15.238,15.238,0,0,0-.589,4.823v16.849c-.93.083-1.4.12-2.326.187v-17.482a14.946,14.946,0,0,0-.517-4.606c-.331-1.036-.815-1.581-1.409-1.6-.652-.024-1.192.516-1.568,1.6a16.281,16.281,0,0,0-.59,4.981v17.346c-.932.039-1.4.055-2.331.078v-29.414c.9.023,1.356.038,2.26.075v3.6a8.174,8.174,0,0,1,1.223-2.977,2,2,0,0,1,1.754-.959,2.409,2.409,0,0,1,1.811,1.217,8.9,8.9,0,0,1,1.192,3.208,7.608,7.608,0,0,1,1.356-3,2.087,2.087,0,0,1,1.885-.871C974.837-539.2,975.688-537.536,976.1-536.234Z" transform="translate(-907.4 540.064)" fill="#fff"/>
        <path id="Path_2065" data-name="Path 2065" d="M1094.568-498.785a11.777,11.777,0,0,1-1.952-4.575,28.585,28.585,0,0,1-.706-6.961,28.583,28.583,0,0,1,.706-6.961,11.778,11.778,0,0,1,1.952-4.575,2.765,2.765,0,0,1,2.793-1.2,4.584,4.584,0,0,1,2.777,2.157,14.547,14.547,0,0,1,1.935,4.575,24.624,24.624,0,0,1,.705,6,24.624,24.624,0,0,1-.705,6,14.548,14.548,0,0,1-1.935,4.575,4.584,4.584,0,0,1-2.777,2.157A2.764,2.764,0,0,1,1094.568-498.785Zm4.381-4.832a8.614,8.614,0,0,0,1.111-2.8,17.614,17.614,0,0,0,.4-3.9,17.616,17.616,0,0,0-.4-3.9,8.617,8.617,0,0,0-1.111-2.8,2.343,2.343,0,0,0-1.588-1.177,1.7,1.7,0,0,0-1.591.839,7.477,7.477,0,0,0-1.117,2.8,19.643,19.643,0,0,0-.406,4.243,19.633,19.633,0,0,0,.406,4.243,7.474,7.474,0,0,0,1.117,2.8,1.7,1.7,0,0,0,1.591.839A2.342,2.342,0,0,0,1098.949-503.617Z" transform="translate(-1020.567 525.408)" fill="#fff"/>
        <path id="Path_2066" data-name="Path 2066" d="M1195.072-487.635q-1-2.382-1.881-4.807l-.112.014c-.787.1-1.182.146-1.972.238v5.669c-.908.24-1.362.357-2.273.581v-21.512q2.13.538,4.245,1.119a4.758,4.758,0,0,1,2.25,1.449,7.292,7.292,0,0,1,1.465,2.554,10.166,10.166,0,0,1,.513,3.337,9.182,9.182,0,0,1-.52,3.237,5.7,5.7,0,0,1-1.479,2.272c.691,1.719,1.4,3.428,2.179,5.107C1196.523-488.072,1196.04-487.923,1195.072-487.635Zm-.571-13.979a2.161,2.161,0,0,0-1.548-1.107c-.738-.129-1.107-.191-1.846-.313v7.093l1.846-.037a1.776,1.776,0,0,0,1.548-.877,4.342,4.342,0,0,0,.529-2.33A4.8,4.8,0,0,0,1194.5-501.614Z" transform="translate(-1104.904 511.783)" fill="#fff"/>
        <path id="Path_2067" data-name="Path 2067" d="M1271.482-467.141a10.5,10.5,0,0,1-1.706,1.4,10.745,10.745,0,0,1-2.191,1.155,4.506,4.506,0,0,1-2.471.352,2.25,2.25,0,0,1-1.544-1.157,4.792,4.792,0,0,1-.525-2.352,5.74,5.74,0,0,1,.428-2.285,2.948,2.948,0,0,1,1.172-1.426,3.05,3.05,0,0,1-.876-1.339,5.709,5.709,0,0,1-.311-1.931,4.746,4.746,0,0,1,.483-2.219,2.237,2.237,0,0,1,1.46-1.178,4.022,4.022,0,0,1,2.387.3,10.3,10.3,0,0,1,1.816.924,12.558,12.558,0,0,1,1.537,1.127c-.244.633-.367.967-.611,1.669a7.606,7.606,0,0,0-2.659-1.32,2.083,2.083,0,0,0-1.61.081,1.3,1.3,0,0,0-.543,1.175,1.752,1.752,0,0,0,.364,1.178,1.53,1.53,0,0,0,1.1.465c1.047.073,1.569.111,2.609.189v2.049c-1.095.072-1.644.108-2.746.176a1.9,1.9,0,0,0-1.29.5,1.785,1.785,0,0,0-.454,1.3,1.333,1.333,0,0,0,.584,1.235,2.449,2.449,0,0,0,1.79.049,6.823,6.823,0,0,0,1.694-.69,6.945,6.945,0,0,0,1.429-1.032C1271.075-468.059,1271.211-467.74,1271.482-467.141Z" transform="translate(-1169.48 486.323)" fill="#fff"/>
      </g>
    </g>
  </g>
</svg>
