<svg xmlns="http://www.w3.org/2000/svg" xmlns:xlink="http://www.w3.org/1999/xlink" width="76" height="76" viewBox="0 0 76 76">
  <defs>
    <filter id="Rectangle_468" x="0" y="0" width="76" height="76" filterUnits="userSpaceOnUse">
      <feOffset input="SourceAlpha"/>
      <feGaussianBlur stdDeviation="10" result="blur"/>
      <feFlood flood-color="#fff"/>
      <feComposite operator="in" in2="blur"/>
      <feComposite in="SourceGraphic"/>
    </filter>
  </defs>
  <g id="Group_363" data-name="Group 363" transform="translate(30.301 29.803)">
    <g transform="matrix(1, 0, 0, 1, -30.3, -29.8)" filter="url(#Rectangle_468)">
      <g id="Rectangle_468-2" data-name="Rectangle 468" transform="translate(30 30)" fill="#00061d" stroke="#fff" stroke-width="1">
        <rect width="16" height="16" rx="2" stroke="none"/>
        <rect x="0.5" y="0.5" width="15" height="15" rx="1.5" fill="none"/>
      </g>
    </g>
    <path id="Icon_awesome-linkedin-in" data-name="Icon awesome-linkedin-in" d="M2.2,9.83H.162V3.268H2.2ZM1.18,2.372A1.186,1.186,0,1,1,2.36,1.181,1.19,1.19,0,0,1,1.18,2.372ZM9.828,9.83H7.794V6.636c0-.761-.015-1.738-1.06-1.738-1.06,0-1.222.827-1.222,1.683V9.83H3.477V3.268H5.431v.9H5.46A2.141,2.141,0,0,1,7.388,3.1C9.451,3.1,9.83,4.461,9.83,6.225v3.6Z" transform="translate(3.099 3.154)" fill="#fff"/>
  </g>
</svg>
