<svg width="40" height="40" viewBox="0 0 40 40" fill="none" xmlns="http://www.w3.org/2000/svg">
<rect width="40" height="40" rx="5" fill="black"/>
<path d="M13.358 31.818H8.41897V15.916H13.358V31.818ZM10.886 13.746C10.3178 13.7485 9.76154 13.5825 9.28766 13.269C8.81377 12.9554 8.44351 12.5084 8.22369 11.9844C8.00387 11.4605 7.94437 10.8831 8.0527 10.3253C8.16103 9.76745 8.43234 9.2543 8.83231 8.8507C9.23228 8.44709 9.74296 8.17115 10.2998 8.05777C10.8566 7.94439 11.4345 7.99867 11.9604 8.21374C12.4864 8.42881 12.9367 8.79501 13.2546 9.26604C13.5724 9.73706 13.7434 10.2918 13.746 10.86C13.7465 11.6211 13.4462 12.3515 12.9105 12.8921C12.3747 13.4327 11.647 13.7396 10.886 13.746ZM31.84 31.818H26.912V24.077C26.912 22.232 26.875 19.866 24.345 19.866C21.778 19.866 21.384 21.866 21.384 23.944V31.818H16.451V15.916H21.187V18.085H21.256C21.7294 17.2746 22.4137 16.6078 23.2361 16.1556C24.0585 15.7034 24.9881 15.4827 25.926 15.517C30.926 15.517 31.842 18.808 31.842 23.083V31.818H31.84Z" fill="white"/>
</svg>
