<svg xmlns="http://www.w3.org/2000/svg" width="67.403" height="70.613" viewBox="0 0 67.403 70.613">
  <g id="Group_370" data-name="Group 370" transform="translate(0)">
    <path id="Path_444" data-name="Path 444" d="M1423.907,1585.628h0q0-4.566,0-9.132a1.055,1.055,0,0,1,.378-.813,12.789,12.789,0,1,1,.128,19.875,1.278,1.278,0,0,1-.479-.994C1423.933,1591.584,1423.907,1588.606,1423.907,1585.628Zm-5.558,2.615a7.275,7.275,0,0,1-.789-.595,18.444,18.444,0,0,0-8.5-4.336c-1.261-.262-1.255-.229-.9-1.455a13.652,13.652,0,0,1,7.206-8.691,18.945,18.945,0,0,1,2.384-.91c.695-.243.817-.15.819.584.006,2.48,0,4.961,0,7.441h0c0,2.161,0,6.792,0,7.877a.124.124,0,0,1-.192.1Zm-16.625.038a23.264,23.264,0,0,1-.677,2.835.082.082,0,0,1-.01.016,13.556,13.556,0,0,1-1.951,3.117,13.728,13.728,0,0,1-9.652,5.026c-.715.066-.893-.2-.887-.892.039-4.305.043-8.612.041-12.917,0-4.287-.012-8.574-.056-12.861-.007-.71.256-.861.89-.822a12.852,12.852,0,0,1,4.149.978c.125.053.279.121.457.206A14.014,14.014,0,0,1,1401.723,1588.28Zm30.631-21.018a18.083,18.083,0,0,0-8.439,2.085q0-.9,0-1.8c0-.72-.214-1.042-.952-1.1a19.305,19.305,0,0,0-8.638,1.272,18.391,18.391,0,0,0-6.146,3.922,20.894,20.894,0,0,0-1.487,1.586,17.281,17.281,0,0,0-1.476,2.036h0a22.335,22.335,0,0,0-7.47-6.44c-.127-.084-.306-.176-.544-.3q-.926-.475-1.864-.843l-.032-.013h0a18.326,18.326,0,0,0-11.381-.685.837.837,0,0,0-.759.989c.011,7.022-.006,14.044-.011,21.067,0,4.7.007,9.4-.008,14.1,0,.53.1.807.684.968a17.8,17.8,0,0,0,9.141.089,18.865,18.865,0,0,0,9.5-5.577,18.254,18.254,0,0,0,4.671-9.116c.189-.99.216-1.038,1.145-.766a13.454,13.454,0,0,1,10.015,10.881,21.5,21.5,0,0,1,.177,4.012c.017,1.119.021,1.041,1.365,1.052.961.008,1.924.007,2.885,0,1.165-.008,1.189,0,1.19-1.122q0-.753,0-1.5a.16.16,0,0,1,.233-.142,18.515,18.515,0,0,0,14.783.779,17.417,17.417,0,0,0,10.606-10.98A18.358,18.358,0,0,0,1432.354,1567.262Z" transform="translate(-1383.15 -1534.14)" fill="#fff"/>
    <path id="Path_445" data-name="Path 445" d="M1124.336,1566.766c1.917,1.587,12.625,13.332,14.412,20.7v-3.423c-.078-13.786,10.891-17.854,17.458-18.133h7.044l9.279.009.037.008c.141.014.3.028.487.044l.159.016.042,0c.037,0,.072.01.111.011l.007.008a22.544,22.544,0,0,1,9.785,3.374q.153.1.312.183c.512.285,1.024.57,1.512.888l.1.068a.529.529,0,0,1,.182.729l-2.27,3.7a1.1,1.1,0,0,1-1.631.222,16.263,16.263,0,0,0-7.853-3.571h-.469v30.988a1.553,1.553,0,0,1-1.633,1.458l-3.835.019a1.492,1.492,0,0,1-1.57-1.4v-31.045l-2.756-.037-5.369.021a16.374,16.374,0,0,0-3.475.362c-7.608,1.688-9.45,7.9-9.459,9.721v1.217h11.883a1.158,1.158,0,0,1,1.217,1.086v3.41a1.159,1.159,0,0,1-1.225,1.087l-11.875-.035v14.27a1.433,1.433,0,0,1-1.507,1.345h-.51l-2.667-.037h-.008c-.817,0-1.131-.168-1.445-.673-4.479-16.8-12.065-25.428-14.215-27.616a.337.337,0,0,0-.578.2l.16,26.69c0,.953-.377,1.4-1.507,1.4l-3.221.038c-1.13,0-1.507-.448-1.507-1.4v-35.312c0-.953.377-1.4,1.507-1.4l3.221-.038S1123.249,1565.865,1124.336,1566.766Z" transform="translate(-1117.941 -1565.905)" fill="#fff"/>
  </g>
</svg>
