<svg xmlns="http://www.w3.org/2000/svg" width="70.098" height="20.118" viewBox="0 0 70.098 20.118">
  <g id="Project_Catalyst_Logo" data-name="Project Catalyst Logo" transform="translate(0.142 0.22)">
    <path id="Path_1801" data-name="Path 1801" d="M-354.824-349.843c-5.594.007-11.406,0-17,0h-1a12.165,12.165,0,0,0,1,2c1.637,3.744,4.926,5.456,9,5,3.636-.407,7.06-2.542,8-6C-354.727-349.2-354.522-349.843-354.824-349.843Z" transform="translate(372.773 360.623)" fill="#fff"/>
    <path id="Path_1802" data-name="Path 1802" d="M-358.532-481.255a9.916,9.916,0,0,0-9-9c-5.136-.051-9.23,4.857-9,10,.011.239-.21.01,0,0,.265-.013.736-.019,1,0s.009.261,0,0a7.692,7.692,0,0,1,1-3,8.414,8.414,0,0,1,9-5,7.562,7.562,0,0,1,6,6c.156.865-.143.953-1,1-.427.023-.925-.608-1-1-.6-3.161-2.883-5.387-6-5a6.942,6.942,0,0,0-6,7c.012.195-.215,0,0,0,1.22-.007,2.78-.007,4,0,.2,0,0,.21,0,0a3.427,3.427,0,0,1,0-1c.318-1.068.916-2.144,2-2a2.243,2.243,0,0,1,2,2,.908.908,0,0,0,1,1c.786,0,1.03-.225,1-1a3.467,3.467,0,0,0-3-3,3.548,3.548,0,0,0-4,2c-.3.747-.325,1.055-1,1-.31-.025-1.058-.779-1-1,.487-1.847,2.141-2.491,4-3a4.866,4.866,0,0,1,5,1c1,1.009,1.05,2.6,1,4-.01.293-.306.013,0,0,.569-.024,1.43,0,2,0h0c.583,0,1.418-.027,2,0,.327.015.031.3,0,0C-358.57-480.623-358.5-480.886-358.532-481.255Z" transform="translate(376.481 490.035)" fill="#fff"/>
    <path id="Path_1803" data-name="Path 1803" d="M-83.467-369.827c-.576-.262-1.586.506-2,1-.773.923-2.506,1.1-3,0a4.678,4.678,0,0,1,0-3c.468-1.176,2.173-.959,3,0,.377.438.481.115,1,0,.193,0,.881,0,1,0,.588-.012.218.549,0,0-.5-1.247-1.7-2.787-3-3a3.962,3.962,0,0,0-4,2c-.806,1.469-.024,3.872,1,5a3.9,3.9,0,0,0,4,1c1.209-.283,1.547-.852,2-2C-83.4-369-83.212-369.711-83.467-369.827Z" transform="translate(113.416 383.607)" fill="#fff"/>
    <path id="Path_1804" data-name="Path 1804" d="M17.348-354.489a1.348,1.348,0,0,0-1,0,2.287,2.287,0,0,0-1,1c-.009.03.03-.037,0,0-.051-.042.036.036,0,0a1.979,1.979,0,0,0-3,0,3.378,3.378,0,0,0-1,3,2.643,2.643,0,0,0,1,2c1.067.84,1.862.06,3-1,.236.81.179,1,1,1,.119,0,.881-.007,1,0,.37.021,0,.355,0,0,0-1.68,0-3.319,0-5C17.348-353.636,17.5-354.436,17.348-354.489Zm-3,5c-.785-.009-1-1.14-1-2,0-.915.162-1.013,1-1,.813.012,1.008.088,1,1C15.34-350.6,15.174-349.479,14.348-349.489Z" transform="translate(19.601 365.27)" fill="#fff"/>
    <path id="Path_1805" data-name="Path 1805" d="M166.163-354.365c-.37-.014-.63-.016-1,0-.2.008-1-.244-1,0,0,.128.153.947,0,1s.1.078,0,0c-1.13-.915-3.2-1.165-4,0a3.7,3.7,0,0,0,0,4c.565,1.11,2.682,2.192,4,1,.226-.2-.072-.272,0,0,.087.332.665.017,1,0,.2-.01.8,0,1,0,.5,0,0,.517,0,0,.005-.807,0-2.193,0-3,0-.834-.009-1.166,0-2C166.165-353.643,166.466-354.354,166.163-354.365Zm-3,5c-.791-.016-1.017-1.082-1-2,.016-.854.2-1.01,1-1s1.018.115,1,1C164.145-350.451,164.022-349.348,163.163-349.365Z" transform="translate(-117.214 365.145)" fill="#fff"/>
    <path id="Path_1806" data-name="Path 1806" d="M295.131-354.322a1.993,1.993,0,0,0-2,1c-.284.8.292,1.206,0,2-.031.084-.846,1.015-1,1-.119-.011.033-.919,0-1-.3-.748-.693-1.254-1-2-.379-.92,0-1-1-1h0c-.667.007-1.268.379-1,1,.577,1.335,1.375,2.686,2,4a1.67,1.67,0,0,1,0,2c-.272.422-.831.526-1,1-.061.17-.218.9,0,1a1.54,1.54,0,0,0,2-1c.978-2.341,2.018-4.66,3-7C295.544-354.308,296.183-354.286,295.131-354.322Z" transform="translate(-236.182 365.103)" fill="#fff"/>
    <path id="Path_1807" data-name="Path 1807" d="M384.649-351.469c-.521-.151-1.481-.844-2-1-.2-.059.016.228,0,0-.013-.178-.154-.889,0-1,.254-.182.854.727,1,1,.26.486.6.062,1,0,.137,0,.947,0,1,0,.211-.019-.139.265,0,0a1.178,1.178,0,0,0,0-1,3.354,3.354,0,0,0-4-1,1.738,1.738,0,0,0-1,2c.206.614,1.412.834,2,1,.56.158.441.836,1,1,.221.065,1-.249,1,0,0,.226-.8.944-1,1-.362.1-.753.318-1,0-.469-.606-.362-1.015-1-1-.34.008-1.117.694-1,1a1.678,1.678,0,0,0,1,1,5.619,5.619,0,0,0,4,0c.832-.367.364-1.193,0-2C385.379-351.066,385.236-351.3,384.649-351.469Z" transform="translate(-320.7 365.249)" fill="#fff"/>
    <path id="Path_1808" data-name="Path 1808" d="M105.015-370.857c-.366-.009,0,.357,0,0,0-.185.006-.815,0-1-.009-.265-.714,0-1,0-.318,0-.682,0-1,0s0-.331,0,0c0,.2-.007.8,0,1,.008.254.259,0,0,0a1.464,1.464,0,0,0-1,1c.007.172.012-.171,0,0-.022.32.669.984,1,1,.277.013,0-.249,0,0-.005.318,0,.682,0,1h0c0,.344-.023.657,0,1a1.879,1.879,0,0,0,2,2c.967.044,1.008-.038,1-1,0-.5-.49.038-1,0-.455-.034.01-.541,0-1s.014-1.537,0-2c-.023-.75.266.016,1,0,.318-.007,0-.691,0-1,0-.106,0,.106,0,0C106.016-370.583,105.726-370.84,105.015-370.857Z" transform="translate(-64.066 381.637)" fill="#fff"/>
    <path id="Path_1809" data-name="Path 1809" d="M456.721-366.347c-.008-.351-.621.011-1,0-.557-.017.012-.45,0-1-.011-.49-.005-1.51,0-2,.005-.526-.513.046,0,0,.633-.056,1-.378,1-1,0-.066,0,.066,0,0a.948.948,0,0,0-1-1c-.443,0,.014.452,0,0-.006-.185.015-.815,0-1-.009-.117.139.037,0,0a4.524,4.524,0,0,0-2,0c-.358.137.043.686,0,1-.009.065.012-.064,0,0-.034.185.213.008,0,0-.384-.015-1.015.674-1,1,.008.185,0-.185,0,0a1.7,1.7,0,0,0,1,1c.288.007,0-.266,0,0-.006.318,0,.682,0,1h0c0,.291-.013.709,0,1,.049,1.1.412,1.825,2,2C456.774-365.231,456.745-365.279,456.721-366.347Z" transform="translate(-386.772 382.127)" fill="#fff"/>
    <path id="Path_1810" data-name="Path 1810" d="M256.6-378.391a.9.9,0,0,0-1,1c0,2-.008,4,0,6,0,1.271.552,1.008,2,1,.562,0,0,.55,0,0,0-1.125,0-2.875,0-4h0c0-.966,0-2.034,0-3C257.6-378.559,257.865-378.371,256.6-378.391Z" transform="translate(-205.656 387.171)" fill="#fff"/>
    <path id="Path_1811" data-name="Path 1811" d="M55.831-451.553c-.665-.18-1.516.464-2,1-.508.563-1.291,1.314-1,2,.237.558,1.4.957,2,1,.635.045.616-.47,1-1,.085-.117.155.12,0,0-.14-.108.13-.129,0,0-.056.055.051-.06,0,0-.305.357-1.573.187-2,0-.325-.142.084-.673,0-1-.042-.163-.138.007,0,0,.343-.016.657.018,1,0a3.6,3.6,0,0,0,1,0c.216-.047,1.013.223,1,0C56.8-450.083,56.354-451.411,55.831-451.553Zm0,2c-.244.042-.707-.018-1,0-.219-.015-.738,0-1,0-.239,0-.064-.807,0-1,.124-.372.582.046,1,0,.458-.05.763-.422,1,0C55.978-450.29,56.11-449.6,55.831-449.553Z" transform="translate(-18.882 454.333)" fill="#fff"/>
    <path id="Path_1812" data-name="Path 1812" d="M-84.034-459.612c0,.555,0,.445,0,1,0,.177.755,1,1,1,.228,0,0-.812,0-1,.006-.291.013-.71,0-1-.014-.311-.289,0,0,0a3.906,3.906,0,0,0,1,0c.553-.153,1.031-.362,1-1-.029-.6-.428-.884-1-1-.447-.09-.552-.977-1-1a1.336,1.336,0,0,0-1,1C-84.024-461.084-84.034-460.141-84.034-459.612Zm1-2c.412-.147.642-.27,1,0,.418.316.481.8,0,1-.2.086.211-.007,0,0-.564,0-1,.577-1,0,0-.026,0,.026,0,0C-82.994-460.895-83.416-461.476-83.034-461.612Z" transform="translate(106.983 464.393)" fill="#fff"/>
    <path id="Path_1813" data-name="Path 1813" d="M-9.687-448.479c.013-.986-.023-1.99-1-2a2.157,2.157,0,0,0-2,2,2.238,2.238,0,0,0,2,2C-9.682-446.474-9.7-447.474-9.687-448.479Zm-1,1a.9.9,0,0,1-1-1c0-.712.337-1.006,1-1a.89.89,0,0,1,1,1C-9.689-447.767-10.034-447.476-10.687-447.479Z" transform="translate(41.636 453.26)" fill="#fff"/>
    <path id="Path_1814" data-name="Path 1814" d="M102.073-446.582c.646.308,1.591-.506,2-1,.149-.18.282.257,0,0a.886.886,0,0,0-1,0c-.382.376-.593.233-1,0-.468-.268-.177-.39,0-1,.14-.484.507-1.018,1-1,.379.014.8-.307,1,0,.111.169-.207,1.136,0,1,.234-.154.095-.848,0-1-.3-.486-.443-1.023-1-1a2.4,2.4,0,0,0-2,2A2.213,2.213,0,0,0,102.073-446.582Z" transform="translate(-63.124 453.362)" fill="#fff"/>
    <path id="Path_1815" data-name="Path 1815" d="M146.583-456.643c.03-.217.162.017,0,0-.387-.04.011.33,0,0-.012-.382,0-1.617,0-2,0-.343-.384,0,0,0,.145,0,.017.206,0,0-.015-.183.13-1,0-1-.33,0,.015.317,0,0-.008-.178-.789,0-1,0s.011-.161,0,0c-.015.231.223-.105,0,0s-.266.882,0,1c.243.108,0-.25,0,0,0,.475-.042,1.528,0,2,.054.611.288.982,1,1C146.646-455.64,146.551-456.409,146.583-456.643Z" transform="translate(-103.635 462.422)" fill="#fff"/>
    <path id="Path_1816" data-name="Path 1816" d="M29.991-445.456a.99.99,0,0,0,1-1c.017-.594,0-.405,0-1h0c0-.568.008-1.432,0-2,0-.211-.643-1.008-1-1-.332.007,0,.8,0,1,0,1.044,0,1.956,0,3,0,.337.414.916,0,1-.1.02-1.02-.129-1,0S29.859-445.475,29.991-445.456Z" transform="translate(2.957 453.236)" fill="#fff"/>
    <path id="Path_1817" data-name="Path 1817" d="M-40.491-447.388c.33.01-.006-.781,0-1,.007-.278,0-.722,0-1,.014-.965.077-.673,1-1,.184-.065,1.029-.825,1-1s-.869-.011-1,0c-.2.017.167.893,0,1-.136.088-.895.184-1,0-.084-.147.156-1.061,0-1s0,.865,0,1c0,.411,0,.589,0,1h0c0,.358-.008.643,0,1C-40.486-448.174-40.822-447.4-40.491-447.388Z" transform="translate(67.44 454.168)" fill="#fff"/>
    <path id="Path_1818" data-name="Path 1818" d="M36.4-465.142a2.483,2.483,0,0,0,1-1c-.035-.216-.788-.013-1,0-.189.012-.006-.207,0,0C36.408-465.911,36.2-465.142,36.4-465.142Z" transform="translate(-3.452 467.922)" fill="#fff"/>
  </g>
</svg>
