<svg xmlns="http://www.w3.org/2000/svg" width="172" height="135.172" viewBox="0 0 172 135.172">
  <g id="Group_371" data-name="Group 371" transform="translate(188.045 -7316.501)">
    <g id="Icon_awesome-github" data-name="Icon awesome-github" transform="translate(-119.333 7362.715)">
      <path id="Icon_awesome-github-2" data-name="Icon awesome-github" d="M15.843,37.75c0,.191-.22.344-.5.344-.315.029-.535-.124-.535-.344,0-.191.22-.344.5-.344C15.6,37.378,15.843,37.53,15.843,37.75Zm-2.97-.43c-.067.191.124.411.411.468a.448.448,0,0,0,.592-.191c.057-.191-.124-.411-.411-.5A.49.49,0,0,0,12.873,37.32Zm4.221-.162c-.277.067-.468.248-.439.468.029.191.277.315.563.248s.468-.248.439-.439S17.371,37.129,17.095,37.158ZM23.378.563A22.9,22.9,0,0,0,0,23.864,23.943,23.943,0,0,0,16.187,46.708c1.222.22,1.652-.535,1.652-1.156,0-.592-.029-3.858-.029-5.864,0,0-6.685,1.432-8.089-2.846,0,0-1.089-2.779-2.655-3.5,0,0-2.187-1.5.153-1.471a5.041,5.041,0,0,1,3.686,2.464c2.091,3.686,5.6,2.626,6.962,2A5.308,5.308,0,0,1,19.4,33.118c-5.338-.592-10.725-1.366-10.725-10.553a7.238,7.238,0,0,1,2.254-5.625,9.023,9.023,0,0,1,.248-6.484c2-.621,6.59,2.578,6.59,2.578a22.561,22.561,0,0,1,11.995,0s4.594-3.209,6.59-2.578a9.019,9.019,0,0,1,.248,6.484c1.528,1.69,2.464,3.008,2.464,5.625,0,9.216-5.625,9.951-10.963,10.553a5.648,5.648,0,0,1,1.624,4.431c0,3.218-.029,7.2-.029,7.984,0,.621.439,1.375,1.652,1.156A23.722,23.722,0,0,0,47.368,23.864C47.368,10.619,36.624.563,23.378.563ZM9.283,33.5c-.124.1-.1.315.067.5.153.153.372.22.5.1.124-.1.1-.315-.067-.5C9.626,33.443,9.407,33.376,9.283,33.5Zm-1.031-.774c-.067.124.029.277.22.372a.284.284,0,0,0,.411-.067c.067-.124-.029-.277-.22-.372C8.471,32.6,8.318,32.631,8.251,32.727Zm3.094,3.4c-.153.124-.1.411.124.592.22.22.5.248.621.1.124-.124.067-.411-.124-.592C11.756,36,11.47,35.974,11.345,36.126Zm-1.089-1.4c-.153.1-.153.344,0,.563s.411.315.535.22a.436.436,0,0,0,0-.592C10.658,34.694,10.41,34.6,10.257,34.723Z" transform="translate(0 -0.563)" fill="#fff" opacity="0.2"/>
    </g>
    <g id="Icon_awesome-medium-m" data-name="Icon awesome-medium-m" transform="translate(-188.045 7357.008)">
      <path id="Icon_awesome-medium-m-2" data-name="Icon awesome-medium-m" d="M5.272,10.339a1.408,1.408,0,0,0-.455-1.178L1.453,5.1V4.5H11.909l8.084,17.727L27.1,4.5h9.971v.6L34.192,7.863a.84.84,0,0,0-.321.805V28.953a.84.84,0,0,0,.321.805L37,32.518v.6H22.857v-.6l2.916-2.826c.283-.283.283-.373.283-.805V12.495L17.95,33.07h-1.1L7.427,12.495V26.284a1.878,1.878,0,0,0,.522,1.581l3.788,4.594v.6H1v-.6l3.788-4.6a1.817,1.817,0,0,0,.485-1.581Z" transform="translate(-0.998 -4.5)" fill="#fff" opacity="0.2"/>
    </g>
    <g id="Icon_awesome-twitter" data-name="Icon awesome-twitter" transform="translate(-138.248 7316.501)">
      <path id="Icon_awesome-twitter-2" data-name="Icon awesome-twitter" d="M33.6,10.961c.024.333.024.665.024,1C33.627,22.107,25.9,33.8,11.787,33.8A21.691,21.691,0,0,1,0,30.353a15.879,15.879,0,0,0,1.854.1,15.373,15.373,0,0,0,9.529-3.279,7.689,7.689,0,0,1-7.177-5.323,9.679,9.679,0,0,0,1.45.119,8.118,8.118,0,0,0,2.02-.261A7.677,7.677,0,0,1,1.521,14.17v-.1a7.73,7.73,0,0,0,3.47.974A7.687,7.687,0,0,1,2.614,4.783a21.818,21.818,0,0,0,15.827,8.032,8.665,8.665,0,0,1-.19-1.759A7.683,7.683,0,0,1,31.535,5.8a15.112,15.112,0,0,0,4.872-1.854,7.655,7.655,0,0,1-3.375,4.23,15.388,15.388,0,0,0,4.42-1.188A16.5,16.5,0,0,1,33.6,10.961Z" transform="translate(0 -3.381)" fill="#fff" opacity="0.2"/>
    </g>
    <g id="Icon_awesome-discord" data-name="Icon awesome-discord" transform="translate(-53.468 7323.133)">
      <path id="Icon_awesome-discord-2" data-name="Icon awesome-discord" d="M24.827,20.315a2.189,2.189,0,1,1-2.181-2.374A2.278,2.278,0,0,1,24.827,20.315Zm-9.987-2.374a2.382,2.382,0,0,0,0,4.747,2.278,2.278,0,0,0,2.181-2.374A2.264,2.264,0,0,0,14.841,17.941ZM37.423,4.405V42.768c-5.387-4.761-3.664-3.185-9.922-9l1.133,3.956H4.384A4.394,4.394,0,0,1,0,33.317V4.405A4.394,4.394,0,0,1,4.384,0H33.039A4.394,4.394,0,0,1,37.423,4.405ZM31.328,24.677A28.637,28.637,0,0,0,28.249,12.21,10.575,10.575,0,0,0,22.24,9.965l-.3.342a14.232,14.232,0,0,1,5.325,2.716,18.17,18.17,0,0,0-15.974-.62c-.791.364-1.262.62-1.262.62a14.427,14.427,0,0,1,5.624-2.8l-.214-.257A10.575,10.575,0,0,0,9.431,12.21,28.637,28.637,0,0,0,6.351,24.677s1.8,3.1,6.522,3.25c0,0,.791-.962,1.433-1.775a6.651,6.651,0,0,1-3.742-2.523c.315.22.833.506.877.535a15.588,15.588,0,0,0,13.344.748,12.237,12.237,0,0,0,2.459-1.262A6.748,6.748,0,0,1,23.373,26.2c.642.813,1.411,1.732,1.411,1.732C29.51,27.778,31.328,24.677,31.328,24.677Z" fill="#fff" opacity="0.2"/>
    </g>
    <g id="Icon_awesome-linkedin-in" data-name="Icon awesome-linkedin-in" transform="translate(-53.559 7385.63)">
      <path id="Icon_awesome-linkedin-in-2" data-name="Icon awesome-linkedin-in" d="M5.889,26.307H.435V8.744H5.889ZM3.159,6.348A3.174,3.174,0,1,1,6.317,3.159,3.185,3.185,0,0,1,3.159,6.348ZM26.3,26.307H20.859v-8.55c0-2.038-.041-4.651-2.836-4.651-2.836,0-3.27,2.214-3.27,4.5v8.7H9.3V8.744h5.231v2.4h.076A5.731,5.731,0,0,1,19.773,8.3c5.52,0,6.535,3.635,6.535,8.356v9.648Z" transform="translate(0 -0.001)" fill="#fff" opacity="0.2"/>
    </g>
    <g id="Icon_awesome-youtube" data-name="Icon awesome-youtube" transform="translate(-115.257 7430.854)">
      <path id="Icon_awesome-youtube-2" data-name="Icon awesome-youtube" d="M30.04,7.757a3.72,3.72,0,0,0-2.618-2.635C25.113,4.5,15.854,4.5,15.854,4.5S6.6,4.5,4.286,5.123A3.72,3.72,0,0,0,1.669,7.757,39.027,39.027,0,0,0,1.05,14.93,39.027,39.027,0,0,0,1.669,22.1,3.665,3.665,0,0,0,4.286,24.7c2.309.623,11.568.623,11.568.623s9.259,0,11.568-.623A3.665,3.665,0,0,0,30.04,22.1a39.027,39.027,0,0,0,.619-7.173,39.027,39.027,0,0,0-.619-7.173ZM12.826,19.333v-8.8l7.739,4.4-7.739,4.4Z" transform="translate(-1.05 -4.5)" fill="#fff" opacity="0.2"/>
    </g>
    <g id="Icon_awesome-telegram-plane" data-name="Icon awesome-telegram-plane" transform="translate(-165.696 7404.273)">
      <path id="Icon_awesome-telegram-plane-2" data-name="Icon awesome-telegram-plane" d="M27.371,6.624,23.229,26.157c-.312,1.379-1.127,1.722-2.285,1.072l-6.311-4.651-3.045,2.929a1.585,1.585,0,0,1-1.268.619l.453-6.428,11.7-10.57c.509-.453-.11-.7-.79-.251L7.218,17.984.993,16.035c-1.354-.423-1.379-1.354.282-2l24.35-9.381c1.127-.423,2.114.251,1.746,1.973Z" transform="translate(-0.001 -4.528)" fill="#fff" opacity="0.2"/>
    </g>
    <g id="Group_322" data-name="Group 322" transform="translate(-60.459 7435.315)">
      <g id="Group_321" data-name="Group 321" transform="translate(0 0)">
        <path id="Path_2077" data-name="Path 2077" d="M116.983-702.62c-.194.09-.291.3-.291.626v.291c.642.248,1.287.48,1.948.672v.88c-.662-.192-1.306-.424-1.948-.672v1.725c-.438-.176-.658-.271-1.1-.477v-2.889c0-.609.194-1,.572-1.162a2.3,2.3,0,0,1,1.6.11,5.487,5.487,0,0,1,.764.327,3.257,3.257,0,0,1,.622.42c-.135.311-.2.466-.338.774a2.629,2.629,0,0,0-.974-.563A1.223,1.223,0,0,0,116.983-702.62Z" transform="translate(-115.596 706.317)" fill="#fff"/>
        <path id="Path_2078" data-name="Path 2078" d="M194.6-675.975a3.422,3.422,0,0,1-.927-1.068,3.045,3.045,0,0,1-.335-1.335,2.06,2.06,0,0,1,.335-1.175,1.832,1.832,0,0,1,.927-.684,3.022,3.022,0,0,1,1.329-.115,3.392,3.392,0,0,1,1.326.441,2.717,2.717,0,0,1,.927.918,2.414,2.414,0,0,1,.338,1.262,2.334,2.334,0,0,1-.338,1.248,2.163,2.163,0,0,1-.927.834,2.445,2.445,0,0,1-1.326.2A3.043,3.043,0,0,1,194.6-675.975Zm2.087-.527a1.214,1.214,0,0,0,.531-.5,1.514,1.514,0,0,0,.193-.773,1.651,1.651,0,0,0-.193-.8,1.579,1.579,0,0,0-.531-.579,1.738,1.738,0,0,0-.758-.272,1.484,1.484,0,0,0-.758.088,1.106,1.106,0,0,0-.531.448,1.389,1.389,0,0,0-.193.749,1.791,1.791,0,0,0,.193.821,1.733,1.733,0,0,0,.531.628,1.6,1.6,0,0,0,.758.3A1.34,1.34,0,0,0,196.692-676.5Z" transform="translate(-189.52 684.111)" fill="#fff"/>
        <path id="Path_2079" data-name="Path 2079" d="M315.545-675.493c.438-.007.658-.015,1.1-.038v3.843q1.19-.066,2.375-.21v.893c-1.156.132-2.307.219-3.471.249Z" transform="translate(-305.715 679.503)" fill="#fff"/>
        <path id="Path_2080" data-name="Path 2080" d="M398.661-684.591c.438-.06.658-.093,1.1-.163v3.843q1.191-.193,2.375-.434v.893c-1.153.228-2.307.431-3.471.6Z" transform="translate(-384.745 688.273)" fill="#fff"/>
        <path id="Path_2081" data-name="Path 2081" d="M475.329-704.389a1.723,1.723,0,0,1-.927-.677,2.11,2.11,0,0,1-.335-1.186,2.981,2.981,0,0,1,.335-1.324,3.616,3.616,0,0,1,.927-1.075,3.7,3.7,0,0,1,1.329-.617,2.631,2.631,0,0,1,1.326.01,1.713,1.713,0,0,1,.927.659,2.045,2.045,0,0,1,.338,1.176,3.018,3.018,0,0,1-.338,1.334,3.74,3.74,0,0,1-.927,1.094,3.6,3.6,0,0,1-1.326.626A2.578,2.578,0,0,1,475.329-704.389Zm2.087-1.282a1.941,1.941,0,0,0,.531-.662,1.849,1.849,0,0,0,.193-.83,1.341,1.341,0,0,0-.193-.74.99.99,0,0,0-.531-.414,1.379,1.379,0,0,0-.758-.018,1.878,1.878,0,0,0-.758.365,1.919,1.919,0,0,0-.531.656,1.831,1.831,0,0,0-.193.827,1.355,1.355,0,0,0,.193.743,1,1,0,0,0,.531.42,1.357,1.357,0,0,0,.758.021A1.859,1.859,0,0,0,477.416-705.671Z" transform="translate(-456.444 711.657)" fill="#fff"/>
        <path id="Path_2082" data-name="Path 2082" d="M602.513-750.1v2.794a2.3,2.3,0,0,1-.534,1.58,2.605,2.605,0,0,1-1.515.762,2.54,2.54,0,0,1-.869.018,1.3,1.3,0,0,1-.626-.277,2.286,2.286,0,0,1-.629.528,3.051,3.051,0,0,1-.859.325,1.883,1.883,0,0,1-1.516-.177,1.641,1.641,0,0,1-.534-1.382v-2.794c.438-.1.658-.152,1.1-.252v2.76a1.066,1.066,0,0,0,.237.8.747.747,0,0,0,.7.118,1.229,1.229,0,0,0,.954-1.326v-2.76c.438-.091.658-.135,1.1-.219v2.76c-.008.6.313,1.072.961.946a1.167,1.167,0,0,0,.934-1.279v-2.76C601.852-750.007,602.072-750.04,602.513-750.1Z" transform="translate(-571.839 750.404)" fill="#fff"/>
        <path id="Path_2083" data-name="Path 2083" d="M803.926-756.169v4.736c-.425-.05-.637-.07-1.062-.1v-.575a1.806,1.806,0,0,1-1.434.6,1.888,1.888,0,0,1-1.309-.518,2.219,2.219,0,0,1-.47-1.493V-756.3c.438-.021.658-.028,1.1-.033v2.74a1.212,1.212,0,0,0,.267.854.981.981,0,0,0,.727.3,1.042,1.042,0,0,0,.792-.275,1.194,1.194,0,0,0,.3-.891q0-1.333,0-2.666C803.269-756.241,803.488-756.22,803.926-756.169Z" transform="translate(-766.02 756.33)" fill="#fff"/>
        <path id="Path_2084" data-name="Path 2084" d="M902.744-741.437a3.474,3.474,0,0,1-.842-.541c.149-.308.223-.461.372-.766a3.535,3.535,0,0,0,.724.494,3.713,3.713,0,0,0,.839.325,1.345,1.345,0,0,0,.69.045.3.3,0,0,0,.223-.3.477.477,0,0,0-.132-.319,1.414,1.414,0,0,0-.338-.274c-.138-.083-.325-.181-.558-.292-.36-.172-.656-.32-.886-.451a1.941,1.941,0,0,1-.592-.521,1.279,1.279,0,0,1-.247-.8,1.154,1.154,0,0,1,.223-.712,1.133,1.133,0,0,1,.673-.408,2.32,2.32,0,0,1,1.1.054,3.742,3.742,0,0,1,.886.357,3.549,3.549,0,0,1,.758.558c-.135.286-.2.429-.338.718a3.554,3.554,0,0,0-1.312-.755,1.1,1.1,0,0,0-.68-.013.352.352,0,0,0-.22.345.5.5,0,0,0,.254.417,6.8,6.8,0,0,0,.775.421,7.255,7.255,0,0,1,.886.511,2.258,2.258,0,0,1,.592.6,1.455,1.455,0,0,1,.247.838.96.96,0,0,1-.227.661,1.041,1.041,0,0,1-.68.309,3.107,3.107,0,0,1-1.1-.11A5.571,5.571,0,0,1,902.744-741.437Z" transform="translate(-863.245 746.509)" fill="#fff"/>
        <path id="Path_2085" data-name="Path 2085" d="M992.772-722.032a.857.857,0,0,1-.186-.51.371.371,0,0,1,.183-.357.525.525,0,0,1,.467.021,1.1,1.1,0,0,1,.467.38.883.883,0,0,1,.183.514.355.355,0,0,1-.186.35.539.539,0,0,1-.463-.026A1.107,1.107,0,0,1,992.772-722.032Zm-.166-4.676c.5.2.755.3,1.258.54l-.21,2.995c-.336-.153-.5-.225-.839-.36Q992.712-725.12,992.607-726.708Z" transform="translate(-949.471 728.164)" fill="#fff"/>
      </g>
    </g>
  </g>
</svg>
