<svg width="350" height="290" viewBox="0 0 350 290" fill="none" xmlns="http://www.w3.org/2000/svg">
<path opacity="0.2" d="M166.365 183.92C166.365 184.321 165.904 184.641 165.322 184.641C164.661 184.701 164.2 184.38 164.2 183.92C164.2 183.519 164.661 183.2 165.242 183.2C165.844 183.138 166.365 183.459 166.365 183.92ZM160.128 183.018C159.988 183.419 160.389 183.882 160.993 184C161.211 184.107 161.463 184.126 161.695 184.051C161.927 183.976 162.121 183.814 162.236 183.599C162.357 183.198 161.975 182.735 161.372 182.557C161.143 182.474 160.893 182.476 160.666 182.56C160.438 182.644 160.248 182.806 160.128 183.018ZM168.992 182.677C168.411 182.817 168.01 183.198 168.07 183.659C168.13 184.06 168.651 184.321 169.253 184.181C169.835 184.041 170.236 183.659 170.176 183.258C170.116 182.877 169.574 182.617 168.992 182.677ZM182.189 105.826C154.371 105.826 133.094 126.944 133.094 154.76C133.094 177.001 147.092 196.033 167.088 202.732C169.655 203.193 170.557 201.609 170.557 200.305C170.557 199.062 170.497 192.203 170.497 187.992C170.497 187.992 156.459 191 153.511 182.015C153.511 182.015 151.224 176.179 147.935 174.675C147.935 174.675 143.343 171.526 148.256 171.587C149.856 171.802 151.385 172.38 152.726 173.277C154.068 174.174 155.187 175.365 155.998 176.761C160.39 184.502 167.75 182.276 170.618 180.952C171.079 177.743 172.383 175.517 173.827 174.194C162.616 172.95 151.305 171.326 151.305 152.033C151.305 146.518 152.829 143.75 156.037 140.221C155.516 138.917 153.811 133.544 156.559 126.603C160.75 125.299 170.396 132.02 170.396 132.02C178.639 129.747 187.343 129.747 195.586 132.02C195.586 132.02 205.232 125.281 209.424 126.605C212.172 133.564 210.467 138.919 209.946 140.222C213.154 143.772 215.12 146.54 215.12 152.035C215.12 171.388 203.307 172.932 192.096 174.196C193.942 175.781 195.507 178.788 195.507 183.501C195.507 190.26 195.447 198.623 195.447 200.267C195.447 201.571 196.369 203.155 198.916 202.694C218.971 196.035 232.569 177.003 232.569 154.76C232.567 126.944 210.006 105.826 182.189 105.826ZM152.587 174.996C152.327 175.196 152.387 175.658 152.728 176.038C153.049 176.359 153.51 176.5 153.77 176.239C154.031 176.038 153.971 175.577 153.63 175.196C153.309 174.875 152.848 174.735 152.587 174.996ZM150.421 173.371C150.281 173.632 150.481 173.953 150.882 174.153C150.947 174.204 151.022 174.241 151.101 174.261C151.181 174.282 151.264 174.285 151.345 174.272C151.427 174.259 151.504 174.229 151.573 174.185C151.642 174.14 151.701 174.082 151.747 174.013C151.887 173.752 151.687 173.431 151.286 173.231C150.883 173.111 150.562 173.171 150.421 173.373V173.371ZM156.919 180.511C156.598 180.772 156.718 181.375 157.18 181.754C157.641 182.216 158.223 182.276 158.484 181.955C158.744 181.694 158.624 181.091 158.223 180.712C157.781 180.25 157.18 180.19 156.919 180.511V180.511ZM154.633 177.563C154.312 177.764 154.312 178.283 154.633 178.746C154.954 179.209 155.498 179.408 155.756 179.207C155.913 179.039 156.001 178.816 156.001 178.586C156.001 178.355 155.913 178.133 155.756 177.964C155.475 177.504 154.954 177.302 154.633 177.563V177.563Z" fill="white"/>
<path opacity="0.2" d="M8.97285 118.089C9.01732 117.63 8.95411 117.168 8.78825 116.738C8.6224 116.309 8.35849 115.924 8.01755 115.614L0.954344 107.095V105.826H22.91L39.8884 143.052L54.8131 105.826H75.7539V107.095L69.707 112.889C69.4517 113.084 69.2542 113.344 69.1358 113.642C69.0173 113.94 68.9823 114.265 69.0346 114.581V157.179C68.9823 157.495 69.0173 157.82 69.1358 158.118C69.2542 158.416 69.4517 158.676 69.707 158.87L75.6113 164.665V165.934H45.9022V164.665L52.0259 158.73C52.621 158.135 52.621 157.947 52.621 157.038V122.615L35.597 165.824H33.2949L13.4991 122.615V151.572C13.4144 152.172 13.4692 152.784 13.6594 153.36C13.8496 153.936 14.17 154.46 14.5957 154.892L22.5517 164.539V165.808H0V164.555L7.95607 154.892C8.3763 154.458 8.68766 153.931 8.86459 153.354C9.04152 152.777 9.07895 152.166 8.97382 151.571L8.97285 118.089Z" fill="white"/>
<path opacity="0.2" d="M169.22 15.9196C169.268 16.6184 169.268 17.3172 169.268 18.0156C169.268 39.3248 153.049 63.8784 123.404 63.8784C114.629 63.9007 106.034 61.388 98.6533 56.6423C99.9451 56.7845 101.244 56.851 102.544 56.8416C109.799 56.8605 116.85 54.4346 122.558 49.9551C119.194 49.894 115.934 48.7838 113.232 46.7796C110.53 44.7754 108.521 41.9774 107.486 38.7763C108.494 38.9356 109.511 39.0189 110.531 39.0256C111.962 39.0214 113.388 38.8369 114.773 38.4766C111.123 37.7383 107.841 35.7592 105.485 32.8755C103.128 29.9917 101.843 26.3811 101.847 22.6571V22.4578C104.081 23.7045 106.577 24.4057 109.133 24.5043C105.712 22.2226 103.29 18.7209 102.362 14.7141C101.435 10.7073 102.072 6.49764 104.143 2.94442C108.191 7.92783 113.242 12.0046 118.968 14.9105C124.694 17.8164 130.966 19.4864 137.379 19.8123C137.12 18.5982 136.987 17.3608 136.98 16.1194C136.983 12.8863 137.957 9.72864 139.777 7.05594C141.596 4.38324 144.176 2.31871 147.183 1.13005C150.189 -0.0586134 153.484 -0.316592 156.639 0.389562C159.794 1.09572 162.664 2.73343 164.877 5.09037C168.487 4.39582 171.948 3.07946 175.108 1.19999C173.906 4.92589 171.386 8.08531 168.021 10.0854C171.222 9.72033 174.351 8.87851 177.303 7.5879C175.096 10.7999 172.363 13.6167 169.22 15.9196Z" fill="white"/>
<path opacity="0.2" d="M323.549 74.6016C323.549 77.3393 321.528 79.5861 318.968 79.5861C316.454 79.5861 314.388 77.3407 314.388 74.6016C314.388 71.8625 316.409 69.6171 318.968 69.6171C321.528 69.6171 323.549 71.862 323.549 74.6016ZM302.577 69.6166C300.017 69.6166 297.996 71.862 297.996 74.6011C297.996 77.3402 300.062 79.5846 302.577 79.5846C305.137 79.5846 307.158 77.3393 307.158 74.6001C307.203 71.862 305.137 69.6166 302.577 69.6166ZM349.999 41.1904V121.754C338.686 111.757 342.304 115.066 329.162 102.849L331.543 111.158H280.617C279.405 111.155 278.206 110.913 277.087 110.447C275.968 109.98 274.953 109.298 274.098 108.438C273.243 107.579 272.565 106.56 272.104 105.439C271.644 104.318 271.408 103.117 271.411 101.905V41.1904C271.408 39.9785 271.644 38.7778 272.105 37.657C272.566 36.5362 273.243 35.5172 274.098 34.6582C274.953 33.7991 275.969 33.1169 277.087 32.6504C278.206 32.1839 279.406 31.9424 280.617 31.9395H340.793C342.005 31.9424 343.205 32.184 344.323 32.6506C345.442 33.1171 346.457 33.7993 347.312 34.6583C348.167 35.5174 348.844 36.5364 349.305 37.6571C349.766 38.7779 350.002 39.9785 349.999 41.1904V41.1904ZM337.201 83.7632C337.201 69.303 330.734 57.5824 330.734 57.5824C324.268 52.7314 318.115 52.8663 318.115 52.8663L317.486 53.5868C325.123 55.922 328.668 59.2898 328.668 59.2898C318 53.4413 305.47 53.4403 295.122 57.9858C293.461 58.749 292.473 59.2879 292.473 59.2879C292.473 59.2879 296.2 55.7404 304.283 53.4052L303.834 52.8663C303.834 52.8663 297.682 52.7319 291.215 57.5814C291.215 57.5814 284.748 69.3006 284.748 83.7622C284.748 83.7622 288.521 90.2736 298.445 90.5882C298.445 90.5882 300.107 88.5676 301.455 86.8611C295.751 85.1546 293.595 81.562 293.595 81.562C294.256 82.0245 295.346 82.6239 295.437 82.6845C303.017 86.9293 313.784 88.3197 323.459 84.256C325.275 83.5708 327.008 82.682 328.624 81.6067C328.624 81.6067 326.378 85.2891 320.495 86.9504C321.843 88.6569 323.459 90.5877 323.459 90.5877C333.384 90.2741 337.201 83.7632 337.201 83.7632Z" fill="white"/>
<path opacity="0.2" d="M287.826 230.435H276.373V193.552H287.826V230.435ZM282.094 188.52C280.776 188.527 279.485 188.142 278.386 187.415C277.286 186.688 276.427 185.651 275.917 184.436C275.407 183.22 275.268 181.881 275.519 180.587C275.77 179.293 276.4 178.102 277.327 177.166C278.255 176.229 279.439 175.589 280.731 175.326C282.022 175.062 283.363 175.188 284.583 175.687C285.803 176.185 286.848 177.035 287.586 178.127C288.323 179.219 288.72 180.506 288.727 181.824C288.728 183.59 288.032 185.285 286.79 186.539C285.547 187.793 283.859 188.506 282.094 188.52V188.52ZM330.694 230.435H319.263V212.48C319.263 208.201 319.177 202.714 313.307 202.714C307.352 202.714 306.439 207.363 306.439 212.173V230.435H295.001V193.552H305.986V198.581H306.146C307.676 195.683 311.411 192.626 316.983 192.626C328.575 192.626 330.706 200.259 330.706 210.173V230.434L330.694 230.435Z" fill="white"/>
<path opacity="0.2" d="M166.797 247.889C166.399 246.392 165.616 245.025 164.524 243.926C163.433 242.827 162.072 242.034 160.577 241.627C155.092 240.146 133.095 240.146 133.095 240.146C133.095 240.146 111.097 240.146 105.612 241.627C104.118 242.034 102.756 242.827 101.665 243.926C100.573 245.025 99.7898 246.392 99.3926 247.889C97.9229 253.412 97.9229 264.939 97.9229 264.939C97.9229 264.939 97.9229 276.466 99.3926 281.99C99.7929 283.474 100.579 284.827 101.672 285.909C102.764 286.991 104.123 287.765 105.612 288.152C111.098 289.632 133.095 289.632 133.095 289.632C133.095 289.632 155.092 289.632 160.578 288.152C162.066 287.765 163.426 286.991 164.518 285.909C165.61 284.827 166.397 283.474 166.797 281.99C168.267 276.466 168.267 264.939 168.267 264.939C168.267 264.939 168.267 253.412 166.797 247.889H166.797ZM125.9 275.4V254.474L144.286 264.938L125.9 275.4Z" fill="white"/>
</svg>
